<?xml version="1.0" encoding="UTF-8"?>
<svg width="28px" height="28px" viewBox="0 0 28 28" version="1.1" xmlns="http://www.w3.org/2000/svg" xmlns:xlink="http://www.w3.org/1999/xlink">
    <!-- Generator: Sketch 61.2 (89653) - https://sketch.com -->
    <title>Group 10</title>
    <desc>Created with Sketch.</desc>
    <defs>
        <polygon id="path-1" points="0.278020074 0.637692708 9.46685823 0.637692708 9.46685823 11 0.278020074 11"></polygon>
    </defs>
    <g id="Page-1" stroke="none" stroke-width="1" fill="none" fill-rule="evenodd">
        <g id="Customer-Portal---Design-Suite-builder" transform="translate(-588.000000, -903.000000)">
            <g id="Group-10" transform="translate(588.000000, 903.000000)">
                <path d="M23.9300513,14.5682716 C22.4590369,14.5682716 20.9880225,14.5703531 19.5170081,14.5675778 C18.5224898,14.5654963 17.9868716,14.1644618 18.0002445,13.4407959 C18.0136173,12.7428016 18.5224898,12.3702143 19.4761857,12.3688266 C20.964796,12.3667451 22.4534062,12.3681328 23.9420165,12.3681328 C23.9856542,12.2987497 24.0292919,12.2300604 24.0729297,12.1606772 C23.6266985,11.7596428 23.1579447,11.380811 22.7405707,10.9527171 C22.1704647,10.3678174 22.1704647,9.75238908 22.6870793,9.28127768 C23.1403488,8.86706045 23.8019534,8.90730266 24.3347562,9.42212542 C25.4264037,10.476055 26.5096052,11.5376168 27.5794338,12.6123614 C28.1502437,13.1861598 28.1382785,13.7544076 27.5540958,14.3420826 C26.4842672,15.417521 25.4045848,16.4825519 24.3171603,17.5399507 C23.7336814,18.1075046 23.0945996,18.1456654 22.6138805,17.6780231 C22.1303461,17.2069117 22.1570918,16.581076 22.7279017,16.0045022 C23.1530178,15.5750207 23.6175487,15.1843937 24.0637798,14.776421 L23.9300513,14.5682716 Z" id="Fill-1" fill="#5A595C"></path>
                <path d="M14.6081864,4.08065284 C14.6081864,5.58108006 14.6109857,7.08221238 14.6074865,8.58334469 C14.6046872,9.4865624 14.2330706,9.97518837 13.5451251,9.99916136 C12.8263866,10.0238394 12.3938837,9.50277942 12.3903845,8.58122943 C12.3840859,7.07939203 12.388285,5.57755462 12.388285,3.85079415 C11.8613033,4.3760847 11.4651923,4.78010011 11.0592835,5.17353921 C10.4224265,5.78978611 9.80796454,5.83632191 9.30897662,5.31808225 C8.8526791,4.84426312 8.89956857,4.19135165 9.46434172,3.61247441 C10.4931106,2.55907297 11.5302777,1.5127224 12.5758428,0.476948155 C13.225297,-0.166797173 13.7956689,-0.155515766 14.4395243,0.490344827 C15.4591952,1.51483767 16.4767667,2.54144577 17.4887394,3.57439966 C18.0948032,4.19346691 18.162688,4.85413435 17.6888944,5.33993997 C17.1829081,5.85817964 16.5782439,5.82010489 15.945586,5.179885 C15.5550737,4.78433064 15.2149501,4.33800995 14.8524315,3.91425207 L14.6081864,4.08065284 Z" id="Fill-3" fill="#5A595C"></path>
                <path d="M4.07493727,12.3939476 C5.57490661,12.3939476 7.07487596,12.3918504 8.5748453,12.3946467 C9.51840853,12.3967439 10.0205139,12.7994032 9.9993578,13.5243299 C9.97961208,14.2129053 9.48173791,14.6050787 8.59247541,14.608574 C7.08827484,14.6155647 5.58407427,14.6106712 3.85350315,14.6106712 C4.37464905,15.1356663 4.77591025,15.5320341 5.16729858,15.9367906 C5.78646787,16.5778299 5.83865298,17.1888096 5.32737993,17.6872403 C4.84008383,18.162602 4.18283351,18.0961912 3.56225381,17.4873088 C2.53054006,16.4743688 1.50305753,15.4572345 0.484742656,14.4310125 C-0.164045213,13.776691 -0.159813988,13.2146457 0.486858268,12.5680139 C1.52844488,11.5271115 2.57426272,10.4904035 3.628543,9.46208424 C4.20257923,8.90143702 4.86335557,8.85250273 5.33725279,9.30689262 C5.84288421,9.79343933 5.81467604,10.3855443 5.24698666,10.9965239 C5.04670866,11.2125339 4.84008383,11.4236504 4.62076532,11.6200867 C4.40356243,11.8144258 4.16731902,11.988492 3.93953806,12.1716461 C3.98467113,12.2457466 4.0298042,12.3198471 4.07493727,12.3939476" id="Fill-5" fill="#5A595C"></path>
                <g id="Group-9" transform="translate(9.000000, 17.000000)">
                    <mask id="mask-2" fill="white">
                        <use xlink:href="#path-1"></use>
                    </mask>
                    <g id="Clip-8"></g>
                    <path d="M3.74035714,6.78047333 C3.74035714,5.17080667 3.73892857,3.56114 3.74107143,1.95220667 C3.7425,1.25407333 4.0175,0.755406667 4.73821429,0.652006667 C5.48321429,0.54494 5.9925,1.04580667 6.00107143,1.90967333 C6.01607143,3.52447333 6.00464286,5.13927333 6.00464286,6.97407333 C6.56178571,6.41380667 6.98607143,5.97234 7.42535714,5.54847333 C8.04892857,4.94787333 8.64535714,4.91634 9.14678571,5.43700667 C9.6125,5.92027333 9.5725,6.62574 9.01035714,7.21387333 C7.94392857,8.33074 6.8675,9.43587333 5.78535714,10.5358733 C5.19321429,11.13794 4.59178571,11.15994 4.0025,10.5696067 C2.8925,9.45934 1.79678571,8.33294 0.7125,7.19554 C0.151785714,6.60740667 0.141071429,5.90194 0.638214286,5.42380667 C1.13178571,4.94934 1.72892857,4.97500667 2.30035714,5.54260667 C2.72892857,5.96867333 3.11678571,6.43800667 3.52321429,6.88827333 C3.59535714,6.85234 3.6675,6.81640667 3.74035714,6.78047333" id="Fill-7" fill="#5A595C" mask="url(#mask-2)"></path>
                </g>
            </g>
        </g>
    </g>
</svg>