<?xml version="1.0" encoding="UTF-8"?>
<svg width="45px" height="45px" viewBox="0 0 45 45" version="1.1" xmlns="http://www.w3.org/2000/svg" xmlns:xlink="http://www.w3.org/1999/xlink">
    <!-- Generator: Sketch 61.2 (89653) - https://sketch.com -->
    <title>Group 3</title>
    <desc>Created with Sketch.</desc>
    <defs>
        <polygon id="path-1" points="0 0 45 0 45 44 0 44"></polygon>
    </defs>
    <g id="Page-1" stroke="none" stroke-width="1" fill="none" fill-rule="evenodd">
        <g id="Customer-Portal---Design-Suite" transform="translate(-1188.000000, -169.000000)">
            <g id="Group-3" transform="translate(1188.000000, 169.295455)">
                <mask id="mask-2" fill="white">
                    <use xlink:href="#path-1"></use>
                </mask>
                <g id="Clip-2"></g>
                <path d="M42.9453654,33.9280744 C42.7109212,34.7058408 42.3261923,35.3484741 41.8603096,35.9160335 C37.7875933,31.8290058 33.7028543,27.7329692 29.6211209,23.6399357 C28.911777,24.3726577 28.1904103,25.1143887 27.5291574,25.7990634 C27.8718066,26.1564156 28.2475185,26.5468003 28.7013783,27.0182649 C29.0139706,26.6789305 29.3355799,26.3305872 29.6090981,26.0302913 C30.0359068,26.4296849 30.4506926,26.8230726 30.9285981,27.2735165 C30.3064193,27.8921261 29.6872462,28.5017268 29.1101528,29.0722891 C29.4888704,29.4746857 29.8585708,29.8620674 30.3034136,30.3305291 C30.9045525,29.6878958 31.4966744,29.0512684 32.0527279,28.4536795 C32.5125992,28.8921115 32.927385,29.2885022 33.3662165,29.7119194 C33.0205616,30.042245 32.6749067,30.3695675 32.3442803,30.6848783 C32.7740946,31.1112985 33.1618292,31.4926743 33.5946493,31.9251005 C33.9072415,31.594775 34.2378679,31.2524376 34.5143918,30.9611505 C34.9562289,31.3845678 35.3740205,31.7899673 35.8489203,32.2434142 C35.2417699,32.8259883 34.6195911,33.4235772 34.0394921,33.9791247 C34.4452609,34.3905301 34.8269841,34.7779119 35.2537927,35.207335 C35.8368975,34.6157521 36.4410421,34.0031483 37.0061127,33.4325861 C37.4299157,33.8499974 37.8416958,34.2583999 38.3105842,34.7238586 C37.9919806,35.0271575 37.6493314,35.3544801 37.3637904,35.6217434 C37.751525,36.0361518 38.1242311,36.4295395 38.5750853,36.90701 C38.8816662,36.5496579 39.1912527,36.1893028 39.4707823,35.8679861 C39.6751696,36.0421577 39.8374771,36.1802939 39.9817504,36.3064182 C38.1873507,38.0991849 36.4049738,39.8859457 34.5504602,41.7447775 C30.7242109,37.8979866 26.8919502,34.0391839 23.1077806,30.2344344 C22.6869833,30.6218161 22.2992487,30.9851742 21.9085084,31.3485323 C24.2228933,33.6518021 26.5252554,35.9430601 28.8336289,38.2433269 L28.5661221,38.2433269 C22.9785357,38.2433269 17.0332717,38.2463299 13.5677057,38.2433269 C20.1321429,31.6818608 26.69658,25.1233976 33.2610172,18.5619314 C33.7810023,18.0424194 34.2919704,17.5199045 34.8089499,17.0063985 L41.9084007,29.0512684 L41.9114064,29.0572743 C42.9814337,30.8590499 43.4382993,32.108281 42.9453654,33.9280744 L42.9453654,33.9280744 Z M1.86653639,32.6067723 C1.86653639,31.738917 2.03184959,31.3004849 2.33843045,30.4746711 L2.48871518,30.1743752 C2.57888602,29.9881917 2.64200561,29.8620674 3.14095092,28.9131323 L9.11026053,18.5979669 C11.1150589,20.6009408 13.1168515,22.6039147 15.1216499,24.6068886 C15.2358663,24.721001 15.3831453,24.8050839 15.641635,24.9972733 C15.4011795,25.1594331 15.2448833,25.2315041 15.1306669,25.3456166 C11.8634768,28.6008245 8.59929243,31.8590354 5.34713081,35.1262551 C5.13372649,35.3394653 4.95037911,35.6277494 4.87223105,35.9160335 C4.75200326,36.3454566 4.64079256,36.7748798 4.52657616,37.207306 C2.77425618,36.1412554 1.86653639,34.3695094 1.86653639,32.6067723 L1.86653639,32.6067723 Z M4.50251627,11.5169888 C6.26987907,9.7512487 8.0552617,7.96749085 9.81359308,6.21075964 C10.2253732,6.61015323 10.6551876,7.02756458 11.124076,7.48701736 C10.769404,7.80232809 10.414732,8.11763882 10.0690771,8.42394067 C10.5169256,8.87738753 10.9016545,9.26176633 11.3314689,9.69118951 C11.6410554,9.35786103 11.9626648,9.00951774 12.2932912,8.65516854 C12.7261112,9.11161836 13.1198572,9.52902971 13.5316374,9.96445881 C12.9515383,10.5230093 12.3233481,11.1236011 11.6981636,11.7271959 C12.1580349,12.1896517 12.5427638,12.5740305 12.9695725,13.0004507 C13.5707114,12.3788381 14.165839,11.7572255 14.7669779,11.129607 C15.1937865,11.5830539 15.5875325,12.0004652 15.9752671,12.4148736 C15.6837148,12.6881429 15.3380599,13.0124625 15.0164505,13.3127585 C15.4883446,13.7752142 15.8730735,14.1535871 16.2668195,14.5409689 C16.528315,14.2616936 16.85293,13.9163533 17.1685279,13.5830248 C17.640422,14.0755102 18.0431851,14.4959245 18.4519595,14.9193417 C17.8929003,15.4628774 17.2767329,16.0664722 16.6695826,16.6610581 C17.1174311,17.0934843 17.5111771,17.4688542 17.9139402,17.853233 C18.4639823,17.2856737 19.0621156,16.6670641 19.6422146,16.0694752 C20.1050916,16.5499487 20.5108604,16.96736 20.9316576,17.3997861 C20.6461166,17.6670495 20.3004618,17.9943721 19.8976987,18.372745 C20.3245073,18.7451119 20.682185,19.0574197 21.0128114,19.3457038 C19.5159755,20.8381746 18.0852648,22.2705862 16.675594,23.6759712 C16.7176737,23.6489445 12.6479631,19.624979 9.20343706,16.2136172 L8.67142911,15.6730845 L8.66842341,15.6790904 C6.38108977,13.4148591 4.49651922,11.5410125 4.50251627,11.5169888 L4.50251627,11.5169888 Z M16.6545541,5.6371944 C18.1213331,3.19879142 19.2875427,2.4690723 20.6851907,2.0846935 C22.3112715,1.65527031 24.0335345,1.85346563 25.4041313,2.62822914 C26.2757828,3.12371743 27.1925196,4.10568514 27.8808237,5.29485704 L28.0220914,5.50806715 C28.1543419,5.70626247 28.2865925,5.90445778 28.9598681,7.07260897 L30.6099945,9.87737299 C28.2895982,12.1956576 25.9631905,14.5169452 23.6427942,16.8412357 C23.5285778,16.9553482 23.4564412,17.111502 23.291128,17.3517388 C23.1017692,17.0964873 23.0206154,16.9493422 22.906399,16.8352298 C20.2072852,14.1355693 17.5051657,11.4359089 14.8060519,8.7392514 L16.6545541,5.6371944 Z M34.8420125,8.12364474 C35.8970114,9.17167755 36.9910842,10.2647547 38.0641172,11.3308053 C28.6562929,20.7300681 19.2334402,30.1413426 9.84064433,39.5285935 C8.77362272,38.4655459 7.68255556,37.3724687 6.62455104,36.315427 C16.0053241,26.9461939 25.4251712,17.5319164 34.8420125,8.12364474 L34.8420125,8.12364474 Z M43.5134417,28.1053362 L36.1705296,15.640052 C37.4930352,14.3247558 38.8275637,13.0214714 40.1170067,11.6731427 C41.9685146,9.74223982 41.3072618,6.55609996 38.893689,5.39395469 C37.288648,4.62219414 35.5393337,4.95552263 34.1837654,6.30385138 C33.4473702,7.03957641 32.710975,7.77830441 31.9745798,8.51402945 L30.5709204,6.13568565 C29.8585708,4.89546344 29.7142975,4.67925037 29.5700241,4.46904322 L29.4768476,4.32790413 C28.6382588,2.88047772 27.4900834,1.66728215 26.3238739,1.0066311 C24.5294742,-0.00836916243 22.2992487,-0.269626625 20.1982681,0.285920853 C18.0702363,0.871497925 16.5794118,2.14475269 15.0525189,4.67925037 L13.486552,7.38191378 L14.4543856,8.38790516 C13.1559255,7.08762376 11.8574655,5.79034533 10.5559997,4.49006393 C10.3185498,4.25283014 10.090117,4.00058156 9.8586785,3.75433889 L9.77752474,3.75433889 C9.5220407,4.01859932 9.26956234,4.28285974 9.0110726,4.54111424 C6.73876744,6.82036038 4.46345658,9.09960652 2.18814572,11.3758497 C2.1430603,11.4208941 2.0829464,11.4539266 2.03184959,11.4929651 L2.03184959,11.574045 C2.09496918,11.6190894 2.16710585,11.6551249 2.22120836,11.7121812 C4.06670488,13.5559982 5.9122014,15.4028182 7.75769793,17.2466352 L1.50585303,28.0122445 C0.976850766,29.0242418 0.913731178,29.153369 0.817548949,29.3425554 L0.616167406,29.7689757 C0.258489741,30.7179108 0,31.4025856 0,32.6067723 C0,35.0872167 1.41568219,37.651744 4.03965363,39.0301023 C3.80821514,39.9099694 3.56775957,40.7838305 3.33632108,41.6636976 C3.11389967,42.5045262 3.61885638,43.0150293 4.45744519,42.7928103 C6.3089531,42.303328 8.15745532,41.7988308 10.0149746,41.3243632 C10.4598174,41.2132537 10.808478,41.0030466 11.1300873,40.6847329 C11.3194461,40.4925435 11.5118106,40.3003541 11.704175,40.1081647 C12.9184757,40.1111677 14.5054824,40.1111677 16.3630018,40.1111677 C19.8766588,40.1111677 26.6995857,40.1081647 30.7061767,40.1051617 C32.0076425,41.4024402 33.3181254,42.7057245 34.6165854,44 C36.0803587,42.5405618 37.5230922,41.0991413 38.9778484,39.6517149 C41.8963779,38.9460194 43.904182,37.2133119 44.7397651,34.4385775 C45.4701489,31.7239022 44.5353778,29.820026 43.5134417,28.1053362 L43.5134417,28.1053362 Z" id="Fill-1" fill="#5A595C" mask="url(#mask-2)"></path>
            </g>
        </g>
    </g>
</svg>