<?xml version="1.0" encoding="UTF-8"?>
<svg width="27px" height="27px" viewBox="0 0 27 27" version="1.1" xmlns="http://www.w3.org/2000/svg" xmlns:xlink="http://www.w3.org/1999/xlink">
    <!-- Generator: Sketch 61.2 (89653) - https://sketch.com -->
    <title>Group 3</title>
    <desc>Created with Sketch.</desc>
    <defs>
        <polygon id="path-1" points="0 0 27 0 27 26 0 26"></polygon>
    </defs>
    <g id="Page-1" stroke="none" stroke-width="1" fill="none" fill-rule="evenodd">
        <g id="Tearsheet" transform="translate(-839.000000, -52.000000)">
            <g id="Group-3" transform="translate(839.000000, 52.500000)">
                <mask id="mask-2" fill="white">
                    <use xlink:href="#path-1"></use>
                </mask>
                <g id="Clip-2"></g>
                <path d="M25.7672192,20.0484076 C25.6265527,20.5079969 25.3957154,20.8877347 25.1161858,21.2231107 C22.672556,18.8080489 20.2217126,16.3876636 17.7726725,13.9690529 C17.3470662,14.402025 16.9142462,14.8403206 16.5174945,15.2449011 C16.723084,15.4560638 16.9485111,15.6867456 17.220827,15.9653384 C17.4083824,15.7648226 17.601348,15.5589834 17.7654589,15.3815358 C18.0215441,15.6175411 18.2704156,15.8499974 18.5571589,16.1161688 C18.1838516,16.4817109 17.8123477,16.8419295 17.4660917,17.1790799 C17.6933222,17.4168597 17.9151425,17.6457671 18.1820482,17.9225854 C18.5427315,17.5428475 18.8980046,17.1666586 19.2316367,16.8135379 C19.5075595,17.0726114 19.756431,17.3068422 20.0197299,17.5570433 C19.8123369,17.7522357 19.604944,17.9456535 19.4065682,18.1319735 C19.6644568,18.3839491 19.8970975,18.6093076 20.1567896,18.8648321 C20.3443449,18.6696397 20.5427208,18.4673495 20.7086351,18.2952253 C20.9737374,18.5454264 21.2244123,18.7849807 21.5093522,19.0529266 C21.145062,19.3971749 20.7717547,19.7502956 20.4236952,20.0785737 C20.6671565,20.3216769 20.8961904,20.5505843 21.1522756,20.8043343 C21.5021385,20.4547626 21.8646253,20.0927695 22.2036676,19.755619 C22.4579494,20.0022712 22.7050175,20.2435999 22.9863505,20.5186437 C22.7951883,20.6978658 22.5895988,20.8912837 22.4182742,21.049212 C22.650915,21.2940897 22.8745387,21.5265461 23.1450512,21.8086877 C23.3289997,21.5975251 23.5147516,21.384588 23.6824694,21.1947191 C23.8051017,21.2976387 23.9024862,21.3792646 23.9890503,21.4537926 C22.9124104,22.5131547 21.8429843,23.5689679 20.7302761,24.6673685 C18.4345265,22.3942648 16.1351701,20.1140632 13.8646683,17.8658021 C13.61219,18.0947095 13.3795492,18.3094211 13.145105,18.5241327 C14.533736,19.8851558 15.9151532,21.239081 17.3001773,22.5983296 L17.1396733,22.5983296 C13.7871214,22.5983296 10.219963,22.600104 8.14062343,22.5983296 C12.0792857,18.7210996 16.017948,14.845644 19.9566103,10.968414 C20.2686014,10.6614297 20.5751823,10.3526709 20.8853699,10.0492355 L25.1450404,17.1666586 L25.1468438,17.1702075 C25.7888602,18.2348931 26.0629796,18.9730751 25.7672192,20.0484076 L25.7672192,20.0484076 Z M1.11992183,19.2676382 C1.11992183,18.7548146 1.21910976,18.4957411 1.40305827,18.0077602 L1.49322911,17.8303126 C1.54733161,17.7202951 1.58520337,17.6457671 1.88457055,17.0850327 L5.46615632,10.9897077 C6.66903532,12.1732832 7.87011091,13.3568587 9.07298991,14.5404342 C9.14151975,14.6078642 9.22988717,14.6575496 9.38498102,14.771116 C9.24070768,14.8669377 9.14693,14.9095252 9.07840016,14.9769552 C7.1180861,16.9004872 5.15957546,18.8257936 3.20827848,20.7564235 C3.08023589,20.8824113 2.97022747,21.052761 2.92333863,21.2231107 C2.85120196,21.4768607 2.78447554,21.7306108 2.7159457,21.9861353 C1.66455371,21.3561964 1.11992183,20.3092555 1.11992183,19.2676382 L1.11992183,19.2676382 Z M2.70150976,6.80549338 C3.76192744,5.7621015 4.83315702,4.70806278 5.88815585,3.66999433 C6.13522395,3.90599963 6.39311255,4.1526518 6.67444557,4.42414662 C6.46164239,4.6104666 6.24883921,4.79678657 6.04144628,4.97778312 C6.31015538,5.245729 6.54099273,5.47286192 6.79888133,5.72661199 C6.98463326,5.52964515 7.17759886,5.32380594 7.37597471,5.11441777 C7.63566672,5.38413812 7.87191433,5.63079028 8.11898243,5.8880893 C7.77092298,6.21814183 7.39400887,6.57303703 7.01889818,6.9297067 C7.29482095,7.202976 7.5256583,7.43010892 7.78174349,7.68208451 C8.14242685,7.31476798 8.49950337,6.94745146 8.86018673,6.57658598 C9.11627192,6.84453185 9.35251952,7.09118401 9.58516028,7.33606169 C9.41022885,7.49753901 9.20283592,7.68918241 9.00987033,7.86663001 C9.29300676,8.13989931 9.52384411,8.36348328 9.76009171,8.59239068 C9.91698898,8.42736442 10.111758,8.22329968 10.3011168,8.02633285 C10.5842532,8.31734691 10.825911,8.56577355 11.0711757,8.81597466 C10.7357402,9.13715481 10.3660398,9.49382448 10.0017496,9.84517072 C10.2704587,10.1006953 10.5067063,10.3225048 10.7483641,10.5496377 C11.0783894,10.2142617 11.4372693,9.84871968 11.7853288,9.49559896 C12.063055,9.77951511 12.3065162,10.0261673 12.5589946,10.2816918 C12.38767,10.4396202 12.1802771,10.6330381 11.9386192,10.856622 C12.1947044,11.076657 12.409311,11.2612026 12.6076868,11.4315522 C11.7095853,12.3134668 10.8511589,13.1598918 10.0053564,13.9903466 C10.0306042,13.9743763 7.58877789,11.5965785 5.52206224,9.5807738 L5.20285746,9.26136813 L5.20105405,9.26491708 C3.82865386,7.92696219 2.69791153,6.81968919 2.70150976,6.80549338 L2.70150976,6.80549338 Z M9.99273248,3.33106942 C10.8727999,1.89019493 11.5725256,1.45899727 12.4111144,1.23186434 C13.3867629,0.978114276 14.4201207,1.09522969 15.2424788,1.55304449 C15.7654697,1.84583303 16.3155118,2.42608667 16.7284942,3.12877916 L16.8132548,3.25476695 C16.8926052,3.37188237 16.9719555,3.48899778 17.3759209,4.17926893 L18.3659967,5.8366295 C16.9737589,7.20652495 15.5779143,8.57819488 14.1856765,9.95163928 C14.1171467,10.0190694 14.0738647,10.1113421 13.9746768,10.2533002 C13.8610615,10.1024697 13.8123693,10.0155204 13.7438394,9.94809033 C12.1243711,8.35283643 10.5030994,6.75758253 8.88363115,5.1641031 L9.99273248,3.33106942 Z M20.9052075,4.80033553 C21.5382068,5.41962764 22.1946505,6.0655369 22.8384703,6.69547587 C17.1937758,12.2495857 11.5400641,17.8107934 5.9043866,23.3578053 C5.26417363,22.7296408 4.60953334,22.0837315 3.97473062,21.459116 C9.60319445,15.9227509 15.2551027,10.3597688 20.9052075,4.80033553 L20.9052075,4.80033553 Z M26.108065,16.6076987 L21.7023178,9.24184889 C22.4958211,8.46462841 23.2965382,7.69450584 24.070204,6.89776613 C25.1811088,5.75677808 24.7843571,3.87405907 23.3362134,3.18733686 C22.3731888,2.73129654 21.3236002,2.92826337 20.5102592,3.72500309 C20.0684221,4.1597497 19.626585,4.59627079 19.1847479,5.0310174 L18.3425523,3.62563243 C17.9151425,2.89277385 17.8285785,2.76501158 17.7420145,2.64079826 L17.6861085,2.55739789 C17.1829553,1.70210047 16.49405,0.98521218 15.7943243,0.594827465 C14.7176845,-0.00494541416 13.3795492,-0.159324824 12.1189609,0.168953231 C10.8421418,0.514976047 9.94764706,1.26735386 9.03151133,2.76501158 L8.09193117,4.36203996 L8.67263138,4.95648941 C7.89355533,4.18814131 7.11447927,3.42156769 6.3335998,2.6532196 C6.19112987,2.51303599 6.05407019,2.36398001 5.9152071,2.21847298 L5.86651485,2.21847298 C5.71322442,2.37462687 5.56173741,2.53078075 5.40664356,2.68338569 C4.04326046,4.03021295 2.67807395,5.37704022 1.31288743,6.72209301 C1.28583618,6.74871015 1.24976784,6.76822938 1.21910976,6.79129757 L1.21910976,6.83920842 C1.25698151,6.86582556 1.30026351,6.88711927 1.33272501,6.92083432 C2.44002293,8.01036257 3.54732084,9.10166529 4.65461876,10.1911935 L0.903511816,16.5526899 C0.58611046,17.1506883 0.548238707,17.2269908 0.490529369,17.3387828 L0.369700444,17.5907584 C0.155093845,18.1514928 0,18.5560733 0,19.2676382 C0,20.7333553 0.849409312,22.2487578 2.42379218,23.0632423 C2.28492908,23.5831637 2.14065574,24.0995362 2.00179265,24.6194577 C1.8683398,25.116311 2.17131383,25.4179719 2.67446711,25.2866607 C3.78537186,24.9974211 4.89447319,24.6993091 6.00898477,24.4189419 C6.27589046,24.3532863 6.48508681,24.229073 6.6780524,24.0409785 C6.79166766,23.9274121 6.90708634,23.8138456 7.02250501,23.7002791 C7.7510854,23.7020536 8.70328947,23.7020536 9.81780105,23.7020536 C11.9259953,23.7020536 16.0197514,23.7002791 18.423706,23.6985047 C19.2045855,24.4650783 19.9908752,25.2352009 20.7699513,26 C21.6482152,25.1376047 22.5138553,24.2858562 23.386709,23.4305588 C25.1378268,23.0135569 26.3425092,21.9896843 26.843859,20.3500685 C27.2820893,18.7459422 26.7212267,17.6209244 26.108065,16.6076987 L26.108065,16.6076987 Z" id="Fill-1" fill="#E7E8E8" mask="url(#mask-2)"></path>
            </g>
        </g>
    </g>
</svg>