<?xml version="1.0" encoding="UTF-8"?>
<svg width="41px" height="47px" viewBox="0 0 41 47" version="1.1" xmlns="http://www.w3.org/2000/svg" xmlns:xlink="http://www.w3.org/1999/xlink">
    <!-- Generator: Sketch 61.2 (89653) - https://sketch.com -->
    <title>Group 7</title>
    <desc>Created with Sketch.</desc>
    <g id="Page-1" stroke="none" stroke-width="1" fill="none" fill-rule="evenodd">
        <g id="Customer-Portal---Design-Suite" transform="translate(-860.000000, -168.000000)" fill="#5A595C">
            <g id="Group-7" transform="translate(860.000000, 168.295455)">
                <path d="M31.1968331,41.9852246 C31.1001131,41.9852246 31.004718,41.97337 30.909323,41.9707356 L30.909323,41.9167311 L30.1832606,41.9167311 C26.1064469,41.4175185 22.9385361,37.9599118 22.9385361,33.7752198 C22.9385361,29.24806 26.6430441,25.5652149 31.1968331,25.5652149 C35.7506221,25.5652149 39.4551301,29.24806 39.4551301,33.7752198 C39.4551301,38.3023795 35.7506221,41.9852246 31.1968331,41.9852246 L31.1968331,41.9852246 Z M28.496623,44.4628468 L3.07516562,44.4628468 C2.23250929,44.4628468 1.54486993,43.7805458 1.54486993,42.9414999 L1.54486993,5.60461587 C1.54486993,4.94602411 1.97282275,4.39807577 2.56109226,4.18600922 L2.56109226,40.2465424 C2.56109226,42.0142027 4.00791727,43.4538843 5.78597512,43.4538843 L29.9235741,43.4538843 C29.7089352,44.0387137 29.1577638,44.4628468 28.496623,44.4628468 L28.496623,44.4628468 Z M15.7547584,28.4472124 C15.7163354,28.4432609 15.6567135,28.4393093 15.5546938,28.4353578 C13.8283083,28.4287719 13.2016158,27.2446239 13.2016158,26.4516794 C13.2016158,26.161899 13.2479884,26.0301807 13.3791566,25.6811271 L13.4242042,25.5928758 C13.4626272,25.5164791 13.486476,25.4677433 13.6852157,25.0897117 L14.9412506,22.9295307 L17.17111,26.6966755 L17.1737599,26.6993099 C17.4374212,27.1392492 17.4837938,27.3355095 17.4042979,27.6305587 C17.307578,27.9493171 17.0730651,28.3787189 16.1350137,28.4353578 C16.0250444,28.4458953 15.9720472,28.4485296 15.9322992,28.4498468 C15.8461787,28.4485296 15.7839069,28.4472124 15.7547584,28.4472124 L15.7547584,28.4472124 Z M12.540475,28.4537984 C10.9624818,28.4551155 9.38448861,28.4551155 9.02013249,28.4537984 L8.77899499,28.4498468 C8.74719664,28.4472124 8.70214897,28.4445781 8.6398772,28.4432609 C7.70712555,28.4379922 7.36926806,27.8228675 7.36926806,27.4092718 C7.36926806,27.2696504 7.38649216,27.2156458 7.46333818,27.0114824 L10.7690418,21.28832 L11.2340927,20.5098646 C11.5798998,19.9368897 11.8130877,19.8341494 12.0356762,19.773559 C12.4901276,19.6523781 12.8293101,19.8038542 12.9525287,19.8723477 C13.1154952,19.9645506 13.3023106,20.168714 13.4546777,20.4308335 L13.4984004,20.4966927 C13.5315237,20.5441113 13.563322,20.5954815 13.7329132,20.886579 L14.1343674,21.5649286 L12.4662789,24.4232168 C12.2450153,24.8447155 12.2198417,24.8960857 12.1787688,24.9751167 L12.0820488,25.1832317 C11.9296817,25.5849727 11.8104379,25.9024139 11.8104379,26.4516794 C11.8104379,27.1497867 12.0674746,27.8610658 12.540475,28.4537984 L12.540475,28.4537984 Z M22.9941832,28.4524812 L20.8888673,28.4537984 C20.0939085,28.4537984 19.2737761,28.4551155 18.5291646,28.4551155 C18.6046857,28.3102254 18.6921312,28.1758726 18.7411537,28.0099075 C18.9822912,27.1247602 18.676232,26.5056839 18.368848,25.9919824 L15.7415091,21.5543911 L18.5304896,16.7572087 L19.2525772,15.5480342 C19.8037486,14.6365433 20.2277266,14.369155 20.7272257,14.2321679 C21.5672322,14.0108811 22.2045242,14.2940755 22.439037,14.4244767 C22.7517208,14.6009793 23.0869284,14.9618876 23.3519147,15.4163159 L23.4128615,15.5085187 C23.4658588,15.5875498 23.518856,15.6678979 23.790467,16.1354981 L28.6648893,24.3692123 C26.3078365,24.998826 24.2992406,26.4727543 22.9941832,28.4524812 L22.9941832,28.4524812 Z M4.10728712,3.20602468 C4.10728712,2.28399622 4.86117305,1.53583598 5.78597512,1.53583598 L30.909323,1.53583598 C31.83545,1.53583598 32.588011,2.28399622 32.588011,3.20602468 L32.588011,24.1387052 C32.1322346,24.072846 31.6698336,24.0280617 31.1968331,24.0280617 C30.831152,24.0280617 30.4694458,24.051771 30.1143642,24.0912865 L24.9921797,15.4400252 C24.6900953,14.9184205 24.6278236,14.8275349 24.5682016,14.7379664 L24.5403781,14.6984509 C24.3217644,14.3217364 23.847439,13.630215 23.1240265,13.220571 C22.3144935,12.7661427 21.3101955,12.646279 20.3641945,12.897861 C19.4022944,13.1599805 18.734529,13.7211007 18.0574891,14.8393895 L14.9359509,20.1924233 L14.9346259,20.1911061 C14.7345613,19.8433697 14.6921635,19.7840964 14.6431411,19.7129685 C14.490774,19.4482146 14.1555663,18.9621739 13.6388431,18.6697592 C13.0598481,18.3444149 12.3443852,18.2587979 11.672645,18.4379349 C10.9929552,18.6223406 10.5053805,19.0293503 10.0390047,19.8012198 L6.42989174,25.9880308 L6.24440136,26.3436704 L6.16888027,26.5056839 C6.06686056,26.7770237 5.97809016,27.0114824 5.97809016,27.4092718 C5.97809016,28.5710277 6.90289223,29.8104974 8.6398772,29.8276208 C8.69419939,29.8328895 8.7750202,29.8328895 9.00820811,29.8355239 C9.23212151,29.8368411 9.91446114,29.8381582 10.7730166,29.8381582 C11.7614154,29.8381582 12.9830021,29.8368411 14.0137987,29.8368411 L15.8263047,29.8342067 L15.9203749,29.8315723 C15.9799968,29.8328895 16.0462433,29.8342067 16.1310389,29.8342067 C16.4794959,29.8368411 17.1644854,29.8381582 18.001842,29.8381582 C18.869672,29.8381582 19.9031184,29.8368411 20.8901923,29.8355239 L22.2363225,29.8355239 C21.6984004,31.0407468 21.3923413,32.3724193 21.3923413,33.7752198 C21.3923413,37.1761876 23.1571498,40.1727801 25.8215867,41.9167311 L5.78597512,41.9167311 C4.86117305,41.9167311 4.10728712,41.1672537 4.10728712,40.2465424 L4.10728712,3.20602468 Z M41,33.7752198 C41,29.4179767 38.1089998,25.7206426 34.1342058,24.4772213 L34.1342058,3.20602468 C34.1342058,1.43704722 32.6873808,0 30.909323,0 L5.78597512,0 C4.21990629,0 2.91352399,1.11697162 2.62336403,2.59089998 C1.14209081,2.81086963 0,4.07141425 0,5.60461587 L0,42.9414999 C0,44.6274948 1.37925351,46 3.07516562,46 L28.496623,46 C29.9990952,46 31.2485054,44.9225439 31.5161415,43.5052544 C36.7721441,43.3366549 41,39.0426367 41,33.7752198 L41,33.7752198 Z" id="Fill-1"></path>
                <polygon id="Fill-3" points="31.132981 29 27 33.2026144 28.155692 34.3764706 30.6881874 31.8013072 30.6881874 40 32.3632338 40 32.3632338 31.8535948 34.8455935 34.3764706 36 33.2026144 31.867019 29"></polygon>
                <path d="M11.5,8.16245967 C12.788425,8.16245967 13.8377609,9.21199469 13.8377609,10.5006643 C13.8377609,11.7893338 12.788425,12.8375403 11.5,12.8375403 C10.211575,12.8375403 9.16223909,11.7893338 9.16223909,10.5006643 C9.16223909,9.21199469 10.211575,8.16245967 11.5,8.16245967 M11.5,14 C13.429981,14 15,12.4296831 15,10.5006643 C15,8.57031695 13.429981,7 11.5,7 C9.57001898,7 8,8.57031695 8,10.5006643 C8,12.4296831 9.57001898,14 11.5,14" id="Fill-5"></path>
            </g>
        </g>
    </g>
</svg>