<?xml version="1.0" encoding="UTF-8"?>
<svg width="436px" height="183px" viewBox="0 0 436 183" version="1.1" xmlns="http://www.w3.org/2000/svg" xmlns:xlink="http://www.w3.org/1999/xlink">
    <!-- Generator: Sketch 61.2 (89653) - https://sketch.com -->
    <title>Artboard Copy</title>
    <desc>Created with Sketch.</desc>
    <defs>
        <polygon id="path-1" points="0.1227 0.05 2.2517 0.05 2.2517 1 0.1227 1"></polygon>
        <polygon id="path-3" points="0.4245 0.9622 1.112 0.9622 1.112 1.9622 0.4245 1.9622"></polygon>
        <polygon id="path-5" points="0.671 0.485 2.056 0.485 2.056 1 0.671 1"></polygon>
        <polygon id="path-7" points="0.6094 0.5376 1.112 0.5376 1.112 1.5376 0.6094 1.5376"></polygon>
        <polygon id="path-9" points="0.3541 0.353 2.0231 0.353 2.0231 1 0.3541 1"></polygon>
        <polygon id="path-11" points="0.607397959 0.1166 1.112 0.1166 1.112 1.1166 0.607397959 1.1166"></polygon>
        <polygon id="path-13" points="0.0446 0.887 1.8956 0.887 1.8956 1.409 0.0446 1.409"></polygon>
        <polygon id="path-15" points="0.9187 0.493980247 1.9187 0.493980247 1.9187 1 0.9187 1"></polygon>
        <polygon id="path-17" points="0.2452 0.1978 1.2662 0.1978 1.2662 1 0.2452 1"></polygon>
        <polygon id="path-19" points="0.1934 0.0434 1.112 0.0434 1.112 1.0434 0.1934 1.0434"></polygon>
        <polygon id="path-21" points="0.0725 0.4263 1.0725 0.4263 1.0725 1 0.0725 1"></polygon>
        <polygon id="path-23" points="0.5087 0.6186 1.112 0.6186 1.112 1.6186 0.5087 1.6186"></polygon>
        <polygon id="path-25" points="0.1452 0.0813 3.1692 0.0813 3.1692 1 0.1452 1"></polygon>
        <polygon id="path-27" points="0.596 0.5851 1.112 0.5851 1.112 2.1771 0.596 2.1771"></polygon>
        <polygon id="path-29" points="0.504 0.1398 1.112 0.1398 1.112 1.6138 0.504 1.6138"></polygon>
        <polygon id="path-31" points="0.6715 0.485 2.4905 0.485 2.4905 1 0.6715 1"></polygon>
        <polygon id="path-33" points="0.3654 0.366 2.8084 0.366 2.8084 1 0.3654 1"></polygon>
        <polygon id="path-35" points="0.4555 0.9653 1.112 0.9653 1.112 2.7913 0.4555 2.7913"></polygon>
    </defs>
    <g id="Artboard-Copy" stroke="none" stroke-width="1" fill="none" fill-rule="evenodd">
        <g id="Chart-2" transform="translate(11.500000, 0.000000)">
            <g id="Group-353" transform="translate(231.500000, 0.000000)">
                <path d="M111.441,32.2734 C111.432,32.2704 111.424,32.2664 111.415,32.2634 C111.091,32.1454 110.759,32.0434 110.432,31.9304 C110.303,31.8854 110.172,31.8434 110.043,31.7994 C110.509,31.9574 110.98,32.1054 111.441,32.2734" id="Fill-1" fill="#C6C4C3"></path>
                <path d="M108.5153,31.2866 C108.1563,31.1756 107.7883,31.0816 107.4273,30.9766 C107.2993,30.9396 107.1703,30.9056 107.0423,30.8696 C107.5423,31.0096 108.0463,31.1416 108.5413,31.2956 C108.5333,31.2926 108.5243,31.2896 108.5153,31.2866" id="Fill-3" fill="#C6C4C3"></path>
                <g id="Group-7" transform="translate(80.000000, 180.113000)">
                    <mask id="mask-2" fill="white">
                        <use xlink:href="#path-1"></use>
                    </mask>
                    <g id="Clip-6"></g>
                    <path d="M0.2257,0.4475 C0.1927,0.4445 0.1587,0.4405 0.1247,0.4365 L0.1227,0.4365 C0.8317,0.5145 1.5397,0.6025 2.2517,0.6635 L2.2457,0.6635 C1.5697,0.6045 0.8987,0.5205 0.2257,0.4475" id="Fill-5" fill="#C6C4C3" mask="url(#mask-2)"></path>
                </g>
                <path d="M114.2531,33.3769 C113.9611,33.2539 113.6621,33.1469 113.3681,33.0279 C113.2481,32.9789 113.1261,32.9339 113.0051,32.8859 C113.4301,33.0539 113.8581,33.2119 114.2771,33.3879 C114.2691,33.3849 114.2611,33.3799 114.2531,33.3769" id="Fill-8" fill="#C6C4C3"></path>
                <path d="M93.1954,28.5854 C93.1864,28.5854 93.1764,28.5834 93.1674,28.5834 C92.6554,28.5584 92.1384,28.5574 91.6234,28.5444 C91.4804,28.5404 91.3384,28.5374 91.1954,28.5344 C91.8624,28.5464 92.5324,28.5524 93.1954,28.5854" id="Fill-10" fill="#C6C4C3"></path>
                <path d="M177.0685,114.251 L177.0675,114.257 C177.1455,113.962 177.2345,113.67 177.3095,113.373 C177.3095,113.375 177.3095,113.376 177.3085,113.377 C177.2335,113.671 177.1465,113.959 177.0685,114.251" id="Fill-12" fill="#C6C4C3"></path>
                <path d="M99.4601,29.2124 C98.9991,29.1424 98.5311,29.0944 98.0671,29.0354 C97.9411,29.0184 97.8141,29.0044 97.6881,28.9874 C98.2891,29.0604 98.8921,29.1274 99.4881,29.2174 C99.4791,29.2154 99.4691,29.2134 99.4601,29.2124" id="Fill-14" fill="#C6C4C3"></path>
                <path d="M96.3341,28.8198 C95.8481,28.7708 95.3561,28.7448 94.8671,28.7078 C94.7251,28.6968 94.5821,28.6878 94.4401,28.6758 C95.0811,28.7208 95.7241,28.7588 96.3591,28.8228 C96.3511,28.8218 96.3421,28.8198 96.3341,28.8198" id="Fill-16" fill="#C6C4C3"></path>
                <path d="M102.5353,29.7578 C102.0943,29.6678 101.6443,29.5988 101.2003,29.5188 C101.0643,29.4938 100.9283,29.4718 100.7933,29.4468 C101.3843,29.5498 101.9773,29.6448 102.5623,29.7638 C102.5533,29.7618 102.5443,29.7588 102.5353,29.7578" id="Fill-18" fill="#C6C4C3"></path>
                <path d="M105.5504,30.4492 C105.1554,30.3482 104.7534,30.2662 104.3554,30.1732 C104.2254,30.1422 104.0944,30.1142 103.9654,30.0842 C104.5034,30.2052 105.0444,30.3202 105.5774,30.4562 C105.5684,30.4542 105.5594,30.4512 105.5504,30.4492" id="Fill-20" fill="#C6C4C3"></path>
                <path d="M178.0704,110.0849 C178.0704,110.0869 178.0694,110.0889 178.0694,110.0919 C178.1464,109.7339 178.2354,109.3829 178.3074,109.0239 C178.3074,109.0249 178.3074,109.0269 178.3064,109.0279 C178.2344,109.3829 178.1464,109.7309 178.0704,110.0849" id="Fill-22" fill="#C6C4C3"></path>
                <g id="Group-26" transform="translate(179.000000, 95.113000)">
                    <mask id="mask-4" fill="white">
                        <use xlink:href="#path-3"></use>
                    </mask>
                    <g id="Clip-25"></g>
                    <path d="M0.901,1.7962 C0.916,1.5732 0.931,1.3512 0.948,1.1282 C0.931,1.3492 0.916,1.5692 0.901,1.7912 C0.901,1.7922 0.901,1.7942 0.901,1.7962" id="Fill-24" fill="#C6C4C3" mask="url(#mask-4)"></path>
                </g>
                <g id="Group-29" transform="translate(88.000000, 180.113000)">
                    <mask id="mask-6" fill="white">
                        <use xlink:href="#path-5"></use>
                    </mask>
                    <g id="Clip-28"></g>
                    <path d="M0.671,0.97 C1.133,0.977 1.593,1 2.056,1 C1.593,1 1.134,0.977 0.671,0.97 Z" id="Fill-27" fill="#C6C4C3" mask="url(#mask-6)"></path>
                </g>
                <g id="Group-32" transform="translate(179.000000, 90.113000)">
                    <mask id="mask-8" fill="white">
                        <use xlink:href="#path-7"></use>
                    </mask>
                    <g id="Clip-31"></g>
                    <path d="M1.1119,0.9441 L1.1119,0.9441 C1.1119,1.0061 1.1089,1.0691 1.1069,1.1311 C1.1089,1.0691 1.1119,1.0071 1.1119,0.9441" id="Fill-30" fill="#C6C4C3" mask="url(#mask-8)"></path>
                </g>
                <path d="M108.1827,179.2803 C108.2347,179.2693 108.2867,179.2553 108.3387,179.2443 C108.2867,179.2553 108.2347,179.2693 108.1827,179.2803" id="Fill-33" fill="#C6C4C3"></path>
                <path d="M111.7003,178.4668 C111.9263,178.4098 112.1533,178.3578 112.3793,178.3038 C112.1543,178.3578 111.9283,178.4098 111.7033,178.4658 C111.7023,178.4658 111.7013,178.4658 111.7003,178.4668" id="Fill-35" fill="#C6C4C3"></path>
                <path d="M114.5397,177.7021 C114.5307,177.7051 114.5217,177.7081 114.5137,177.7101 C114.6137,177.6811 114.7137,177.6531 114.8127,177.6251 C114.8107,177.6251 114.8097,177.6261 114.8077,177.6261 C114.7187,177.6521 114.6287,177.6771 114.5397,177.7021" id="Fill-37" fill="#C6C4C3"></path>
                <path d="M116.5065,177.1426 C116.6055,177.1126 116.7075,177.0876 116.8065,177.0576 C116.7075,177.0876 116.6055,177.1126 116.5065,177.1426" id="Fill-39" fill="#C6C4C3"></path>
                <g id="Group-43" transform="translate(84.000000, 180.113000)">
                    <mask id="mask-10" fill="white">
                        <use xlink:href="#path-9"></use>
                    </mask>
                    <g id="Clip-42"></g>
                    <path d="M0.3541,0.801 C0.9111,0.836 1.4661,0.877 2.0231,0.905 C1.4701,0.877 0.9181,0.836 0.3651,0.802 C0.3611,0.802 0.3581,0.802 0.3541,0.801" id="Fill-41" fill="#C6C4C3" mask="url(#mask-10)"></path>
                </g>
                <path d="M179.4982,101.414 C179.5312,101.131 179.5662,100.848 179.6012,100.565 C179.5662,100.846 179.5312,101.126 179.4982,101.407 C179.4982,101.41 179.4982,101.412 179.4982,101.414" id="Fill-44" fill="#C6C4C3"></path>
                <path d="M178.8844,105.8017 C178.8844,105.8037 178.8844,105.8057 178.8834,105.8077 C178.9504,105.4057 179.0304,105.0077 179.0914,104.6037 C179.0914,104.6047 179.0914,104.6057 179.0914,104.6067 C179.0304,105.0077 178.9504,105.4027 178.8844,105.8017" id="Fill-46" fill="#C6C4C3"></path>
                <path d="M176.6139,115.8476 C176.6079,115.8706 176.6009,115.8946 176.5939,115.9166 C176.6429,115.7496 176.6899,115.5826 176.7379,115.4146 C176.7349,115.4226 176.7329,115.4316 176.7299,115.4396 C176.6919,115.5766 176.6529,115.7116 176.6139,115.8476" id="Fill-48" fill="#C6C4C3"></path>
                <path d="M117.0436,34.6347 C117.0356,34.6307 117.0276,34.6267 117.0196,34.6227 C116.7656,34.5007 116.5036,34.3907 116.2476,34.2727 C116.1276,34.2177 116.0056,34.1657 115.8856,34.1107 C116.2716,34.2857 116.6626,34.4517 117.0436,34.6347" id="Fill-50" fill="#C6C4C3"></path>
                <path d="M135.777,48.4302 C135.71,48.3582 135.641,48.2902 135.574,48.2192 C135.797,48.4552 136.027,48.6842 136.247,48.9242 C136.242,48.9192 136.238,48.9132 136.233,48.9082 C136.085,48.7452 135.927,48.5912 135.777,48.4302" id="Fill-52" fill="#C6C4C3"></path>
                <path d="M118.6871,35.4712 C119.0161,35.6412 119.3501,35.8022 119.6751,35.9782 C119.6691,35.9752 119.6651,35.9712 119.6591,35.9682 C119.4511,35.8562 119.2371,35.7542 119.0281,35.6452 C118.9161,35.5852 118.8001,35.5302 118.6871,35.4712" id="Fill-54" fill="#C6C4C3"></path>
                <path d="M137.6627,50.5483 C137.6607,50.5453 137.6587,50.5433 137.6557,50.5403 C137.6307,50.5103 137.6037,50.4813 137.5787,50.4513 C137.6067,50.4843 137.6347,50.5163 137.6627,50.5483" id="Fill-56" fill="#C6C4C3"></path>
                <path d="M147.2272,65.7221 C147.2262,65.7191 147.2242,65.7161 147.2232,65.7121 C147.2072,65.6771 147.1902,65.6411 147.1742,65.6051 C147.1912,65.6441 147.2092,65.6831 147.2272,65.7221" id="Fill-58" fill="#C6C4C3"></path>
                <path d="M168.7682,134.7441 C168.7552,134.7671 168.7412,134.7901 168.7282,134.8141 C168.9002,134.5051 169.0862,134.2031 169.2552,133.8911 C169.2542,133.8931 169.2532,133.8941 169.2532,133.8961 C169.0972,134.1821 168.9272,134.4591 168.7682,134.7441" id="Fill-60" fill="#C6C4C3"></path>
                <path d="M48.4127,170.8994 C48.4007,170.8924 48.3887,170.8864 48.3767,170.8804 C48.7717,171.0874 49.1687,171.2884 49.5667,171.4894 C49.5557,171.4834 49.5447,171.4774 49.5337,171.4714 C49.1587,171.2824 48.7847,171.0934 48.4127,170.8994" id="Fill-62" fill="#C6C4C3"></path>
                <path d="M52.8263,173.0429 C52.8003,173.0299 52.7733,173.0189 52.7473,173.0069 C53.2643,173.2419 53.7763,173.4889 54.2973,173.7149 C54.2873,173.7109 54.2783,173.7059 54.2683,173.7019 C53.7833,173.4909 53.3073,173.2619 52.8263,173.0429" id="Fill-64" fill="#C6C4C3"></path>
                <path d="M22.8312,150.9795 L22.8342,150.9765 C22.4022,150.4925 21.9902,149.9935 21.5692,149.5005 C21.9902,149.9935 22.3982,150.4975 22.8312,150.9825 C22.8582,151.0125 22.8882,151.0405 22.9142,151.0705 C22.9072,151.0605 22.8992,151.0515 22.8912,151.0425 C22.8722,151.0205 22.8512,151.0005 22.8312,150.9795" id="Fill-66" fill="#C6C4C3"></path>
                <path d="M171.0255,130.4385 C171.1005,130.2925 171.1765,130.1465 171.2485,129.9985 L171.2465,130.0015 C171.1755,130.1485 171.0995,130.2925 171.0255,130.4385" id="Fill-68" fill="#C6C4C3"></path>
                <path d="M27.6647,94.5586 C27.5997,93.3926 27.5047,92.2316 27.5047,91.0576 C27.5047,71.8936 36.1127,54.0566 51.1197,42.1016 C51.0907,42.1246 51.0607,42.1436 51.0317,42.1656 L33.8627,20.6906 C12.3427,37.8936 0.0007,63.5196 0.0007,91.0576 C0.0007,91.1526 0.0067,91.2456 0.0077,91.3416 L27.5027,91.2526 C27.5067,92.3616 27.6027,93.4576 27.6647,94.5586" id="Fill-70" fill="#E8F9F7"></path>
                <path d="M133.4689,46.0864 C133.6369,46.2494 133.8099,46.4064 133.9759,46.5704 C133.9699,46.5644 133.9639,46.5574 133.9579,46.5514 C133.8719,46.4664 133.7809,46.3854 133.6949,46.3004 C133.6199,46.2284 133.5429,46.1584 133.4689,46.0864" id="Fill-72" fill="#C6C4C3"></path>
                <path d="M128.962,42.1308 C129.176,42.3008 129.395,42.4648 129.607,42.6378 C129.6,42.6328 129.595,42.6268 129.588,42.6218 C129.469,42.5248 129.344,42.4328 129.223,42.3348 C129.137,42.2658 129.048,42.1998 128.962,42.1308" id="Fill-74" fill="#C6C4C3"></path>
                <path d="M124.7799,39.0581 C124.7739,39.0541 124.7679,39.0491 124.7619,39.0451 C124.6129,38.9461 124.4609,38.8511 124.3099,38.7551 C124.2099,38.6901 124.1079,38.6281 124.0079,38.5631 C124.2639,38.7291 124.5259,38.8881 124.7799,39.0581" id="Fill-76" fill="#C6C4C3"></path>
                <path d="M38.6989,165.0019 C38.6899,164.9949 38.6799,164.9889 38.6709,164.9819 C39.2659,165.3979 39.8679,165.7989 40.4729,166.1989 C40.4599,166.1899 40.4469,166.1809 40.4329,166.1719 C39.8509,165.7859 39.2719,165.3999 38.6989,165.0019" id="Fill-78" fill="#C6C4C3"></path>
                <path d="M43.108,167.8769 C43.095,167.8679 43.082,167.8609 43.069,167.8539 C43.694,168.2359 44.321,168.6149 44.955,168.9819 L44.92,168.9619 C44.311,168.6079 43.709,168.2449 43.108,167.8769" id="Fill-80" fill="#C6C4C3"></path>
                <path d="M31.5465,159.4707 C31.6335,159.5427 31.7185,159.6157 31.8045,159.6887 C31.7805,159.6677 31.7565,159.6487 31.7325,159.6277 C31.6715,159.5747 31.6085,159.5227 31.5465,159.4707" id="Fill-82" fill="#C6C4C3"></path>
                <path d="M173.0739,125.9453 C173.0799,125.9323 173.0859,125.9193 173.0919,125.9063 C173.0909,125.9073 173.0899,125.9093 173.0899,125.9113 C173.0849,125.9233 173.0789,125.9333 173.0739,125.9453" id="Fill-84" fill="#C6C4C3"></path>
                <path d="M61.4034,176.4326 C61.9024,176.6056 62.4004,176.7826 62.9034,176.9416 C62.8944,176.9386 62.8854,176.9346 62.8764,176.9316 C62.3824,176.7756 61.8934,176.6016 61.4034,176.4326" id="Fill-86" fill="#C6C4C3"></path>
                <path d="M58.9987,175.6094 C58.7147,175.5054 58.4407,175.3784 58.1577,175.2704 C58.1467,175.2664 58.1367,175.2634 58.1267,175.2594 C58.4197,175.3714 58.7047,175.5034 58.9987,175.6114 C59.0557,175.6314 59.1127,175.6484 59.1687,175.6694 C59.1607,175.6664 59.1517,175.6624 59.1437,175.6594 C59.0957,175.6414 59.0467,175.6274 58.9987,175.6094" id="Fill-88" fill="#C6C4C3"></path>
                <path d="M34.0812,20.5068 C34.0522,20.5298 34.0242,20.5558 33.9952,20.5788 C34.0242,20.5558 34.0552,20.5338 34.0842,20.5108 L34.0812,20.5068 Z" id="Fill-90" fill="#C6C4C3"></path>
                <path d="M175.881,118.3252 C175.945,118.1232 176.014,117.9222 176.078,117.7192 C176.015,117.9202 175.946,118.1182 175.882,118.3192 L175.881,118.3252 Z" id="Fill-92" fill="#C6C4C3"></path>
                <path d="M76.1769,180.0283 C76.8379,180.1313 77.4979,180.2383 78.1609,180.3283 C77.5469,180.2453 76.9359,180.1443 76.3229,180.0503 C76.2749,180.0433 76.2259,180.0363 76.1769,180.0283" id="Fill-94" fill="#C6C4C3"></path>
                <path d="M175.2628,120.1465 C175.2548,120.1705 175.2468,120.1955 175.2388,120.2195 C175.3668,119.8465 175.4958,119.4735 175.6188,119.0985 C175.6138,119.1155 175.6068,119.1315 175.6018,119.1485 C175.4918,119.4825 175.3768,119.8145 175.2628,120.1465" id="Fill-96" fill="#C6C4C3"></path>
                <path d="M105.1246,151.7627 C105.1606,151.7537 105.1956,151.7417 105.2316,151.7337 C104.8206,151.8367 104.4056,151.9297 103.9906,152.0257 C104.3696,151.9387 104.7496,151.8557 105.1246,151.7627" id="Fill-98" fill="#9253A0"></path>
                <path d="M94.2233,28.6606 C93.8713,28.6326 93.5213,28.6006 93.1673,28.5836 C93.1773,28.5836 93.1863,28.5846 93.1953,28.5856 C93.5403,28.6026 93.8813,28.6346 94.2233,28.6606" id="Fill-100" fill="#9253A0"></path>
                <g id="Group-104" transform="translate(179.000000, 90.113000)">
                    <mask id="mask-12" fill="white">
                        <use xlink:href="#path-11"></use>
                    </mask>
                    <g id="Clip-103"></g>
                    <path d="M1.1085,0.8001 C1.1085,0.7531 1.1115,0.7071 1.1115,0.6591 C1.1115,0.5841 1.1055,0.5091 1.1055,0.4331 C1.1055,0.4841 1.1025,0.5341 1.1035,0.5851 C1.1035,0.6571 1.1085,0.7281 1.1085,0.8001" id="Fill-102" fill="#9253A0" mask="url(#mask-12)"></path>
                </g>
                <path d="M101.8483,152.4785 C101.8843,152.4715 101.9183,152.4635 101.9543,152.4565 C101.6063,152.5235 101.2573,152.5855 100.9083,152.6475 C101.2223,152.5915 101.5363,152.5395 101.8483,152.4785" id="Fill-105" fill="#9253A0"></path>
                <path d="M89.5104,153.5849 C89.5574,153.5859 89.6054,153.5829 89.6524,153.5839 C88.8394,153.5639 88.0294,153.5229 87.2184,153.4849 C87.9824,153.5199 88.7434,153.5809 89.5104,153.5849" id="Fill-107" fill="#9253A0"></path>
                <path d="M92.2423,153.5537 C92.2723,153.5517 92.3023,153.5497 92.3323,153.5487 L92.1063,153.5547 C92.1513,153.5537 92.1973,153.5547 92.2423,153.5537" id="Fill-109" fill="#9253A0"></path>
                <path d="M60.9005,146.3916 C60.9115,146.3966 60.9225,146.4016 60.9335,146.4076 C60.7485,146.3096 60.5675,146.2046 60.3835,146.1046 C60.5565,146.1986 60.7265,146.2986 60.9005,146.3916" id="Fill-111" fill="#9253A0"></path>
                <path d="M76.61,152.1015 C77.334,152.2605 78.05,152.4525 78.78,152.5845 C78.908,152.6095 79.035,152.6395 79.164,152.6625 C79.165,152.6635 79.166,152.6635 79.167,152.6635 C78.306,152.5115 77.462,152.2885 76.61,152.1015" id="Fill-113" fill="#9253A0"></path>
                <path d="M72.7487,151.1484 L72.9497,151.2074 C72.4177,151.0554 71.8947,150.8744 71.3677,150.7094 C71.8297,150.8514 72.2857,151.0134 72.7487,151.1484" id="Fill-115" fill="#9253A0"></path>
                <path d="M121.1251,145.3125 L121.1461,145.3005 C121.0831,145.3355 121.0211,145.3735 120.9581,145.4085 C121.0141,145.3765 121.0691,145.3445 121.1251,145.3125" id="Fill-117" fill="#9253A0"></path>
                <g id="Group-121" transform="translate(88.000000, 0.113000)">
                    <mask id="mask-14" fill="white">
                        <use xlink:href="#path-13"></use>
                    </mask>
                    <g id="Clip-120"></g>
                    <path d="M1.7706,0.888 C1.1946,0.89 0.6206,0.917 0.0446,0.93 C0.6616,0.916 1.2776,0.892 1.8956,0.891 C1.8536,0.891 1.8126,0.888 1.7706,0.888" id="Fill-119" fill="#9253A0" mask="url(#mask-14)"></path>
                </g>
                <path d="M124.299,143.3652 C124.327,143.3462 124.355,143.3262 124.383,143.3072 C124.318,143.3482 124.254,143.3912 124.189,143.4322 C124.225,143.4092 124.263,143.3882 124.299,143.3652" id="Fill-122" fill="#9253A0"></path>
                <path d="M144.3956,121.9756 C144.4046,121.9596 144.4166,121.9456 144.4246,121.9296 C144.6436,121.5446 144.8726,121.1686 145.0826,120.7786 C145.0926,120.7606 145.1006,120.7436 145.1096,120.7266 C144.8816,121.1486 144.6376,121.5616 144.3956,121.9756" id="Fill-124" fill="#9253A0"></path>
                <path d="M152.1276,98.6738 C152.1286,98.6608 152.1286,98.6488 152.1306,98.6358 C152.1086,98.8158 152.0866,98.9958 152.0636,99.1758 C152.0856,99.0088 152.1066,98.8418 152.1276,98.6738" id="Fill-126" fill="#9253A0"></path>
                <path d="M172.9581,55.8906 C172.7741,55.4586 172.5691,55.0366 172.3791,54.6086 C172.3861,54.6226 172.3911,54.6386 172.3971,54.6536 C172.5821,55.0676 172.7801,55.4736 172.9581,55.8906" id="Fill-128" fill="#9253A0"></path>
                <path d="M112.0792,32.5234 C111.8572,32.4374 111.6392,32.3454 111.4152,32.2634 C111.4242,32.2664 111.4322,32.2704 111.4412,32.2734 C111.6562,32.3524 111.8672,32.4394 112.0792,32.5234" id="Fill-130" fill="#9253A0"></path>
                <path d="M147.171,21.4839 C147.08,21.4089 146.987,21.3369 146.896,21.2619 C146.92,21.2819 146.943,21.3039 146.967,21.3239 C147.034,21.3789 147.105,21.4289 147.171,21.4839" id="Fill-132" fill="#9253A0"></path>
                <path d="M115.8859,34.1108 C116.0059,34.1658 116.1279,34.2168 116.2469,34.2728 C115.5869,33.9668 114.9259,33.6608 114.2529,33.3768 C114.2609,33.3808 114.2689,33.3848 114.2779,33.3878 C114.8209,33.6168 115.3509,33.8668 115.8859,34.1108" id="Fill-134" fill="#9253A0"></path>
                <path d="M118.6871,35.4712 C118.8001,35.5302 118.9161,35.5852 119.0281,35.6452 C118.3631,35.2962 117.6981,34.9482 117.0191,34.6222 C117.0271,34.6262 117.0351,34.6312 117.0431,34.6352 C117.5981,34.9012 118.1411,35.1892 118.6871,35.4712" id="Fill-136" fill="#9253A0"></path>
                <path d="M132.5367,11.6704 C132.1247,11.4494 131.7017,11.2484 131.2867,11.0344 C131.7017,11.2484 132.1227,11.4534 132.5347,11.6744 L132.5367,11.6704 Z" id="Fill-138" fill="#9253A0"></path>
                <path d="M155.6056,29.3984 C155.5266,29.3144 155.4446,29.2314 155.3646,29.1484 C155.4186,29.2054 155.4736,29.2614 155.5276,29.3184 C155.5536,29.3454 155.5806,29.3714 155.6056,29.3984" id="Fill-140" fill="#9253A0"></path>
                <path d="M132.7897,11.8052 C132.7497,11.7842 132.7117,11.7612 132.6717,11.7392 C132.6957,11.7522 132.7167,11.7672 132.7397,11.7802 C132.7567,11.7882 132.7727,11.7962 132.7897,11.8052" id="Fill-142" fill="#9253A0"></path>
                <path d="M151.068,104.8008 C151.095,104.6778 151.126,104.5558 151.153,104.4328 C151.157,104.4128 151.159,104.3928 151.163,104.3738 C151.129,104.5318 151.091,104.6898 151.055,104.8478 C151.059,104.8318 151.065,104.8168 151.068,104.8008" id="Fill-144" fill="#9253A0"></path>
                <g id="Group-148" transform="translate(89.000000, 180.113000)">
                    <mask id="mask-16" fill="white">
                        <use xlink:href="#path-15"></use>
                    </mask>
                    <g id="Clip-147"></g>
                    <path d="M1.1837,0.9964 C1.2357,0.9964 1.2877,1.0004 1.3387,0.9994 C1.4447,0.9994 1.5477,0.9914 1.6537,0.9904 C1.5997,0.9904 1.5447,0.9884 1.4907,0.9884 C1.3887,0.9894 1.2867,0.9964 1.1837,0.9964" id="Fill-146" fill="#9253A0" mask="url(#mask-16)"></path>
                </g>
                <path d="M110.0431,31.7993 C110.1721,31.8433 110.3031,31.8853 110.4321,31.9303 C109.7961,31.7103 109.1611,31.4863 108.5151,31.2863 C108.5241,31.2893 108.5331,31.2933 108.5421,31.2953 C109.0471,31.4523 109.5431,31.6303 110.0431,31.7993" id="Fill-149" fill="#9253A0"></path>
                <path d="M103.9073,180.0459 C104.2463,179.9929 104.5793,179.9249 104.9173,179.8679 C104.8643,179.8769 104.8103,179.8849 104.7573,179.8939 C104.4723,179.9409 104.1933,180.0009 103.9073,180.0459" id="Fill-151" fill="#9253A0"></path>
                <path d="M99.4044,180.6279 C99.7334,180.5939 100.0574,180.5429 100.3854,180.5059 C100.2844,180.5179 100.1834,180.5299 100.0814,180.5409 C99.8544,180.5659 99.6324,180.6049 99.4044,180.6279" id="Fill-153" fill="#9253A0"></path>
                <path d="M150.8575,76.4062 C150.8535,76.3872 150.8465,76.3692 150.8425,76.3512 C150.8515,76.3872 150.8585,76.4232 150.8675,76.4592 C150.8635,76.4412 150.8615,76.4242 150.8575,76.4062" id="Fill-155" fill="#9253A0"></path>
                <path d="M145.7272,62.5908 C145.5792,62.3018 145.4352,62.0108 145.2832,61.7248 C145.2612,61.6838 145.2372,61.6448 145.2162,61.6038 C145.4002,61.9488 145.5762,62.2988 145.7542,62.6468 C145.7452,62.6288 145.7372,62.6098 145.7272,62.5908" id="Fill-157" fill="#9253A0"></path>
                <path d="M149.6398,110.084 C149.6438,110.071 149.6488,110.058 149.6528,110.045 C149.6608,110.022 149.6648,109.996 149.6718,109.973 C149.6458,110.055 149.6168,110.135 149.5908,110.217 C149.6048,110.172 149.6248,110.129 149.6398,110.084" id="Fill-159" fill="#9253A0"></path>
                <path d="M140.2257,16.3076 C140.1507,16.2566 140.0747,16.2076 139.9987,16.1566 C140.0227,16.1726 140.0447,16.1906 140.0687,16.2066 C140.1207,16.2416 140.1737,16.2726 140.2257,16.3076" id="Fill-161" fill="#9253A0"></path>
                <path d="M153.5826,27.29 C153.4396,27.147 153.2906,27.011 153.1466,26.87 C153.1696,26.892 153.1896,26.915 153.2126,26.937 C153.3336,27.057 153.4616,27.17 153.5826,27.29" id="Fill-163" fill="#9253A0"></path>
                <path d="M105.6705,30.4829 C105.6295,30.4719 105.5905,30.4599 105.5505,30.4489 C105.5595,30.4519 105.5675,30.4549 105.5775,30.4569 C105.6085,30.4649 105.6395,30.4749 105.6705,30.4829" id="Fill-165" fill="#9253A0"></path>
                <path d="M94.7184,153.417 C95.2604,153.377 95.8064,153.347 96.3444,153.293 C96.3754,153.29 96.4054,153.283 96.4354,153.28 C95.8644,153.339 95.2864,153.375 94.7104,153.417 L94.7184,153.417 Z" id="Fill-167" fill="#9253A0"></path>
                <path d="M107.1617,151.2119 C107.5867,151.0909 108.0157,150.9789 108.4367,150.8489 C108.4757,150.8369 108.5137,150.8219 108.5527,150.8109 C108.0807,150.9569 107.6027,151.0859 107.1267,151.2219 C107.1387,151.2179 107.1497,151.2149 107.1617,151.2119" id="Fill-169" fill="#9253A0"></path>
                <path d="M40.4327,166.1719 C40.4467,166.1809 40.4597,166.1909 40.4737,166.1989 C41.3297,166.7649 42.1937,167.3169 43.0687,167.8539 C43.0817,167.8609 43.0957,167.8679 43.1077,167.8769 C42.2057,167.3239 41.3147,166.7549 40.4327,166.1719" id="Fill-171" fill="#9253A0"></path>
                <g id="Group-175" transform="translate(82.000000, 180.113000)">
                    <mask id="mask-18" fill="white">
                        <use xlink:href="#path-17"></use>
                    </mask>
                    <g id="Clip-174"></g>
                    <path d="M0.2452,0.6633 L0.2512,0.6633 C0.5892,0.6923 0.9282,0.7073 1.2662,0.7323 C1.2342,0.7303 1.2022,0.7253 1.1692,0.7243 C0.8622,0.7003 0.5522,0.6893 0.2452,0.6633" id="Fill-173" fill="#9253A0" mask="url(#mask-18)"></path>
                </g>
                <path d="M179.0909,104.6064 C179.0909,104.6054 179.0909,104.6044 179.0909,104.6034 C179.1529,104.2034 179.1929,103.7954 179.2489,103.3934 C179.2429,103.4374 179.2349,103.4804 179.2289,103.5244 C179.1789,103.8834 179.1449,104.2484 179.0909,104.6064" id="Fill-176" fill="#9253A0"></path>
                <path d="M173.0914,125.9062 C173.2944,125.4242 173.4744,124.9302 173.6684,124.4442 C173.6784,124.4202 173.6884,124.3952 173.6974,124.3712 C173.4924,124.8832 173.3034,125.4032 173.0894,125.9112 C173.0904,125.9092 173.0914,125.9072 173.0914,125.9062" id="Fill-178" fill="#9253A0"></path>
                <path d="M62.9034,176.9414 C63.4494,177.1134 64.0004,177.2624 64.5494,177.4244 C64.6654,177.4594 64.7834,177.4924 64.9004,177.5264 C64.2244,177.3304 63.5474,177.1434 62.8764,176.9314 C62.8854,176.9344 62.8944,176.9384 62.9034,176.9414" id="Fill-180" fill="#9253A0"></path>
                <path d="M70.5319,178.9863 C71.1099,179.1143 71.6939,179.2183 72.2739,179.3353 C72.3399,179.3483 72.4049,179.3613 72.4699,179.3743 C71.8189,179.2443 71.1639,179.1273 70.5159,178.9823 C70.5209,178.9843 70.5259,178.9853 70.5319,178.9863" id="Fill-182" fill="#9253A0"></path>
                <path d="M49.5338,171.4717 C49.5448,171.4777 49.5558,171.4837 49.5668,171.4897 C49.9348,171.6747 50.3008,171.8657 50.6718,172.0467 C50.3238,171.8777 49.9818,171.6947 49.6368,171.5217 C49.6028,171.5037 49.5678,171.4897 49.5338,171.4717" id="Fill-184" fill="#9253A0"></path>
                <path d="M174.694,121.8252 C174.694,121.8232 174.695,121.8222 174.696,121.8202 C174.888,121.2932 175.055,120.7532 175.238,120.2202 C175.247,120.1952 175.255,120.1712 175.263,120.1462 C175.071,120.7052 174.896,121.2712 174.694,121.8252" id="Fill-186" fill="#9253A0"></path>
                <path d="M76.0919,180.0146 L76.0519,180.0086 C75.4999,179.9216 74.9449,179.8486 74.3939,179.7516 C74.3979,179.7526 74.4019,179.7536 74.4049,179.7546 C74.9939,179.8576 75.5859,179.9366 76.1769,180.0286 C76.2259,180.0356 76.2749,180.0426 76.3229,180.0506 C76.2459,180.0386 76.1689,180.0266 76.0919,180.0146" id="Fill-188" fill="#9253A0"></path>
                <path d="M147.2233,65.7124 C147.2223,65.7114 147.2223,65.7094 147.2213,65.7084 C147.1483,65.5454 147.0753,65.3834 147.0003,65.2214 C146.9893,65.1954 146.9753,65.1714 146.9643,65.1454 C147.0343,65.2984 147.1053,65.4514 147.1743,65.6054 C147.1903,65.6414 147.2073,65.6764 147.2233,65.7124" id="Fill-190" fill="#9253A0"></path>
                <path d="M78.3043,180.3506 C78.3073,180.3506 78.3103,180.3516 78.3133,180.3516 C78.7623,180.4106 79.2133,180.4496 79.6633,180.5006 C79.6403,180.4976 79.6183,180.4946 79.5963,180.4926 C79.1663,180.4426 78.7333,180.4066 78.3043,180.3506" id="Fill-192" fill="#9253A0"></path>
                <g id="Group-196" transform="translate(179.000000, 99.113000)">
                    <mask id="mask-20" fill="white">
                        <use xlink:href="#path-19"></use>
                    </mask>
                    <g id="Clip-195"></g>
                    <path d="M0.6569,0.9944 C0.6569,0.9934 0.6569,0.9934 0.6569,0.9924 C0.6869,0.6934 0.7029,0.3904 0.7299,0.0924 C0.7259,0.1404 0.7189,0.1894 0.7149,0.2394 C0.6919,0.4894 0.6819,0.7444 0.6569,0.9944" id="Fill-194" fill="#9253A0" mask="url(#mask-20)"></path>
                </g>
                <path d="M66.6959,178.0488 C67.2609,178.1998 67.8329,178.3278 68.4019,178.4688 C68.4929,178.4908 68.5839,178.5128 68.6749,178.5348 C68.0079,178.3718 67.3369,178.2198 66.6729,178.0418 C66.6799,178.0438 66.6879,178.0458 66.6959,178.0488" id="Fill-197" fill="#9253A0"></path>
                <path d="M80.1451,180.5517 C80.1391,180.5517 80.1321,180.5507 80.1251,180.5497 C80.1591,180.5537 80.1921,180.5577 80.2261,180.5607 C80.1991,180.5577 80.1721,180.5557 80.1451,180.5517" id="Fill-199" fill="#9253A0"></path>
                <path d="M44.92,168.9619 L44.955,168.9829 C45.817,169.4829 46.691,169.9639 47.569,170.4349 L47.571,170.4319 C46.68,169.9539 45.794,169.4699 44.92,168.9619" id="Fill-201" fill="#9253A0"></path>
                <path d="M135.777,48.4302 C135.65,48.2942 135.52,48.1612 135.392,48.0262 C135.331,47.9622 135.269,47.9002 135.208,47.8372 C135.33,47.9642 135.453,48.0902 135.574,48.2192 C135.641,48.2902 135.71,48.3582 135.777,48.4302" id="Fill-203" fill="#9253A0"></path>
                <path d="M124.3097,38.7553 C124.0927,38.6163 123.8767,38.4763 123.6587,38.3383 C123.6387,38.3243 123.6157,38.3133 123.5957,38.2993 C123.7327,38.3873 123.8707,38.4743 124.0077,38.5633 C124.1077,38.6283 124.2097,38.6903 124.3097,38.7553" id="Fill-205" fill="#9253A0"></path>
                <path d="M129.2233,42.3349 C128.7993,41.9929 128.3713,41.6549 127.9373,41.3239 C127.9033,41.2979 127.8673,41.2749 127.8333,41.2499 C128.2133,41.5389 128.5883,41.8339 128.9623,42.1309 C129.0483,42.1999 129.1373,42.2659 129.2233,42.3349" id="Fill-207" fill="#9253A0"></path>
                <path d="M51.1198,42.1015 C51.7298,41.6155 52.3708,41.1865 52.9948,40.7265 C52.3938,41.1695 51.7758,41.5765 51.1878,42.0425 L34.0848,20.5105 C34.0848,20.5105 34.0848,20.5105 34.0848,20.5115 C34.0558,20.5345 34.0248,20.5555 33.9948,20.5795 C33.9498,20.6155 33.9028,20.6485 33.8578,20.6845 L33.8628,20.6905 L51.0318,42.1655 C51.0608,42.1435 51.0908,42.1245 51.1198,42.1015" id="Fill-209" fill="#A3EAE3"></path>
                <path d="M140.1769,53.6704 C140.1709,53.6624 140.1649,53.6544 140.1589,53.6464 C140.1359,53.6154 140.1109,53.5884 140.0879,53.5584 C140.2469,53.7704 140.3979,53.9904 140.5519,54.2064 C140.4239,54.0294 140.3069,53.8454 140.1769,53.6704" id="Fill-211" fill="#9253A0"></path>
                <path d="M177.3087,113.3769 C177.3087,113.3759 177.3097,113.3749 177.3097,113.3729 C177.4637,112.7729 177.5887,112.1619 177.7297,111.5579 C177.7307,111.5539 177.7317,111.5509 177.7317,111.5479 C177.7307,111.5519 177.7297,111.5559 177.7287,111.5609 C177.5877,112.1649 177.4627,112.7759 177.3087,113.3769" id="Fill-213" fill="#9253A0"></path>
                <path d="M176.1012,117.6484 C176.1012,117.6474 176.1022,117.6454 176.1022,117.6434 C176.2792,117.0744 176.4292,116.4924 176.5942,115.9174 C176.6012,115.8944 176.6072,115.8714 176.6142,115.8474 C176.4422,116.4474 176.2862,117.0534 176.1012,117.6484" id="Fill-215" fill="#9253A0"></path>
                <path d="M133.6945,46.3008 C133.1825,45.8008 132.6705,45.3008 132.1415,44.8198 C132.1065,44.7878 132.0695,44.7588 132.0345,44.7278 C132.5225,45.1708 132.9945,45.6288 133.4685,46.0868 C133.5435,46.1588 133.6205,46.2288 133.6945,46.3008" id="Fill-217" fill="#9253A0"></path>
                <path d="M116.9601,177.0058 C117.5521,176.8188 118.1321,176.6068 118.7191,176.4088 C118.7141,176.4098 118.7091,176.4118 118.7041,176.4138 C118.1221,176.6098 117.5471,176.8208 116.9601,177.0058" id="Fill-219" fill="#9253A0"></path>
                <path d="M91.6232,28.5444 C91.1012,28.5314 90.5822,28.5044 90.0562,28.5044 C90.0302,28.5044 90.0052,28.5074 89.9782,28.5074 C90.3862,28.5074 90.7892,28.5274 91.1952,28.5344 C91.3382,28.5374 91.4802,28.5404 91.6232,28.5444" id="Fill-221" fill="#9253A0"></path>
                <path d="M31.8048,159.6885 C32.6798,160.4305 33.5578,161.1675 34.4598,161.8755 C34.4668,161.8805 34.4728,161.8855 34.4798,161.8905 C33.5468,161.1585 32.6368,160.3965 31.7328,159.6275 C31.7568,159.6485 31.7808,159.6675 31.8048,159.6885" id="Fill-223" fill="#9253A0"></path>
                <path d="M27.1251,155.4482 C28.2041,156.5022 29.3041,157.5332 30.4331,158.5302 C30.4391,158.5352 30.4441,158.5402 30.4501,158.5452 C29.2431,157.4792 28.0641,156.3802 26.9141,155.2492 C26.9831,155.3172 27.0561,155.3812 27.1251,155.4482" id="Fill-225" fill="#9253A0"></path>
                <path d="M43.3546,132.6719 C43.3786,132.6999 43.4066,132.7249 43.4316,132.7529 C42.8236,132.0739 42.2846,131.3499 41.7106,130.6499 C41.0696,129.8669 40.3986,129.1069 39.7986,128.2969 C39.2556,127.5659 38.7826,126.7929 38.2736,126.0399 C37.7196,125.2209 37.1326,124.4199 36.6196,123.5769 C36.1416,122.7909 35.7336,121.9679 35.2906,121.1619 C34.8226,120.3119 34.3216,119.4779 33.8946,118.6079 C33.4876,117.7779 33.1546,116.9179 32.7856,116.0719 C32.3996,115.1899 31.9796,114.3209 31.6356,113.4209 C31.3096,112.5699 31.0596,111.6929 30.7716,110.8289 C30.4626,109.9019 30.1196,108.9879 29.8546,108.0479 C29.6136,107.1959 29.4496,106.3219 29.2456,105.4589 C29.0146,104.4819 28.7486,103.5129 28.5646,102.5229 C28.4106,101.6949 28.3316,100.8519 28.2106,100.0179 C28.0596,98.9699 27.8756,97.9289 27.7776,96.8719 C27.7066,96.1059 27.7076,95.3289 27.6646,94.5589 C27.6036,93.4579 27.5066,92.3609 27.5026,91.2529 L0.0076,91.3409 L0.0006,91.3409 C0.0026,92.0969 0.0376,92.8499 0.0586,93.6039 C0.0746,94.1739 0.0766,94.7459 0.1036,95.3159 C0.1416,96.1149 0.2086,96.9089 0.2676,97.7059 C0.3096,98.2799 0.3386,98.8569 0.3916,99.4299 C0.4646,100.2159 0.5666,100.9959 0.6606,101.7779 C0.7296,102.3569 0.7856,102.9369 0.8656,103.5129 C0.9746,104.2959 1.1126,105.0719 1.2426,105.8519 C1.3366,106.4189 1.4166,106.9889 1.5216,107.5539 C1.6656,108.3259 1.8376,109.0899 2.0006,109.8569 C2.1216,110.4239 2.2296,110.9939 2.3606,111.5589 C2.5366,112.3119 2.7406,113.0559 2.9356,113.8029 C3.0836,114.3719 3.2186,114.9439 3.3776,115.5109 C3.5866,116.2529 3.8246,116.9849 4.0526,117.7219 C4.2266,118.2829 4.3876,118.8499 4.5726,119.4069 C4.8136,120.1369 5.0836,120.8559 5.3436,121.5779 C5.5426,122.1329 5.7306,122.6929 5.9416,123.2439 C6.2156,123.9629 6.5186,124.6699 6.8116,125.3809 C7.0356,125.9249 7.2476,126.4749 7.4816,127.0139 C7.7896,127.7189 8.1236,128.4119 8.4486,129.1089 C8.6976,129.6439 8.9336,130.1839 9.1936,130.7129 C9.5316,131.4009 9.8966,132.0779 10.2516,132.7589 C10.5266,133.2829 10.7886,133.8149 11.0736,134.3339 C11.4396,135.0019 11.8326,135.6559 12.2156,136.3159 C12.5176,136.8339 12.8076,137.3589 13.1196,137.8729 C13.5106,138.5149 13.9266,139.1419 14.3336,139.7749 C14.6666,140.2899 14.9876,140.8139 15.3306,141.3229 C15.7446,141.9389 16.1836,142.5369 16.6126,143.1429 C16.9766,143.6539 17.3286,144.1729 17.7026,144.6779 C18.1286,145.2519 18.5786,145.8109 19.0196,146.3759 C19.4246,146.8969 19.8196,147.4249 20.2386,147.9379 C20.6696,148.4669 21.1246,148.9799 21.5686,149.4999 C21.9896,149.9929 22.4016,150.4919 22.8346,150.9769 L43.3546,132.6719 Z" id="Fill-227" fill="#38A296"></path>
                <path d="M22.9147,151.0703 C22.9497,151.1093 22.9827,151.1513 23.0177,151.1903 C24.1607,152.4643 25.3377,153.7023 26.5507,154.9073 C26.5677,154.9243 26.5867,154.9403 26.6037,154.9583 C26.6097,154.9643 26.6167,154.9683 26.6227,154.9743 C25.3397,153.7033 24.0967,152.3913 22.8917,151.0433 C22.8987,151.0513 22.9067,151.0603 22.9147,151.0703" id="Fill-229" fill="#9253A0"></path>
                <path d="M178.3068,109.0283 C178.3068,109.0273 178.3078,109.0253 178.3078,109.0243 C178.4108,108.5213 178.4878,108.0093 178.5818,107.5043 C178.5768,107.5323 178.5698,107.5613 178.5638,107.5903 C178.4748,108.0683 178.4038,108.5523 178.3068,109.0283" id="Fill-231" fill="#9253A0"></path>
                <path d="M36.0607,163.0849 C36.0767,163.0979 36.0917,163.1089 36.1077,163.1209 C36.9537,163.7549 37.8037,164.3799 38.6707,164.9819 C38.6797,164.9889 38.6897,164.9949 38.6987,165.0019 C37.8067,164.3809 36.9307,163.7379 36.0607,163.0849" id="Fill-233" fill="#9253A0"></path>
                <path d="M144.1276,59.6665 C144.1106,59.6385 144.0926,59.6115 144.0756,59.5835 C144.1256,59.6695 144.1756,59.7545 144.2246,59.8405 C144.1916,59.7825 144.1606,59.7245 144.1276,59.6665" id="Fill-235" fill="#9253A0"></path>
                <path d="M108.3385,179.2441 L108.3385,179.2441 C108.9485,179.1181 109.5475,178.9631 110.1525,178.8251 C110.1475,178.8261 110.1435,178.8271 110.1385,178.8281 C109.5375,178.9651 108.9435,179.1191 108.3385,179.2441" id="Fill-237" fill="#9253A0"></path>
                <path d="M142.4449,56.9458 C142.3369,56.7778 142.2289,56.6088 142.1189,56.4408 C142.1179,56.4408 142.1179,56.4408 142.1179,56.4408 C142.2289,56.6088 142.3379,56.7778 142.4459,56.9478 C142.4449,56.9468 142.4449,56.9468 142.4449,56.9458" id="Fill-239" fill="#9253A0"></path>
                <path d="M54.2682,173.7021 C54.2782,173.7061 54.2872,173.7111 54.2972,173.7151 C55.1212,174.0721 55.9582,174.3971 56.7922,174.7291 C55.9622,174.4001 55.1312,174.0731 54.3102,173.7191 C54.2962,173.7131 54.2822,173.7081 54.2682,173.7021" id="Fill-241" fill="#9253A0"></path>
                <path d="M112.6896,178.2295 C112.6906,178.2285 112.6916,178.2285 112.6926,178.2285 C113.3056,178.0695 113.9056,177.8815 114.5136,177.7095 C114.5226,177.7085 114.5306,177.7055 114.5396,177.7025 C113.9226,177.8765 113.3126,178.0675 112.6896,178.2295" id="Fill-243" fill="#9253A0"></path>
                <g id="Group-247" transform="translate(86.000000, 180.113000)">
                    <mask id="mask-22" fill="white">
                        <use xlink:href="#path-21"></use>
                    </mask>
                    <g id="Clip-246"></g>
                    <path d="M0.2135,0.9163 C0.4525,0.9273 0.6925,0.9283 0.9315,0.9363 C0.8905,0.9353 0.8495,0.9313 0.8085,0.9303 C0.6105,0.9223 0.4115,0.9253 0.2135,0.9163" id="Fill-245" fill="#9253A0" mask="url(#mask-22)"></path>
                </g>
                <g id="Group-250" transform="translate(179.000000, 94.113000)">
                    <mask id="mask-24" fill="white">
                        <use xlink:href="#path-23"></use>
                    </mask>
                    <g id="Clip-249"></g>
                    <path d="M0.9982,1.4221 C1.0082,1.2201 1.0102,1.0171 1.0192,0.8151 C1.0172,0.8651 1.0122,0.9151 1.0102,0.9651 C1.0032,1.1171 1.0062,1.2711 0.9982,1.4221" id="Fill-248" fill="#9253A0" mask="url(#mask-24)"></path>
                </g>
                <path d="M59.1691,175.6689 C59.2011,175.6809 59.2311,175.6949 59.2631,175.7069 C59.7451,175.8819 60.2331,176.0329 60.7171,176.1989 C60.8441,176.2429 60.9721,176.2859 61.1001,176.3289 C60.4471,176.1069 59.7921,175.8969 59.1441,175.6589 C59.1521,175.6619 59.1601,175.6659 59.1691,175.6689" id="Fill-251" fill="#9253A0"></path>
                <path d="M43.1077,167.8769 C43.7087,168.2449 44.3107,168.6089 44.9197,168.9619 C45.7937,169.4699 46.6807,169.9539 47.5707,170.4319 L60.5327,146.2129 C60.6537,146.2779 60.7797,146.3269 60.9007,146.3919 C60.7257,146.2989 60.5567,146.1979 60.3837,146.1049 C59.6437,145.7039 58.8997,145.3099 58.1767,144.8799 C57.8577,144.6909 57.5527,144.4799 57.2367,144.2849 C56.4617,143.8059 55.6857,143.3269 54.9317,142.8149 C54.6767,142.6409 54.4337,142.4499 54.1817,142.2729 C53.3867,141.7149 52.5927,141.1539 51.8237,140.5599 C51.5777,140.3689 51.3457,140.1619 51.1017,139.9679 C50.3467,139.3659 49.5917,138.7619 48.8647,138.1239 C48.5807,137.8769 48.3137,137.6099 48.0357,137.3569 C47.3677,136.7509 46.6987,136.1469 46.0567,135.5129 C45.7057,135.1659 45.3767,134.7969 45.0347,134.4429 C44.5327,133.9209 44.0247,133.4049 43.5397,132.8669 C43.5047,132.8279 43.4667,132.7929 43.4327,132.7539 C43.4067,132.7249 43.3787,132.6999 43.3547,132.6719 L22.8347,150.9769 C22.8507,151.0009 22.8717,151.0209 22.8907,151.0429 C24.0967,152.3919 25.3397,153.7029 26.6217,154.9749 C26.7167,155.0679 26.8187,155.1549 26.9137,155.2489 C28.0637,156.3799 29.2427,157.4799 30.4507,158.5449 C30.8087,158.8619 31.1807,159.1629 31.5467,159.4709 C31.6087,159.5229 31.6707,159.5749 31.7327,159.6279 C32.6367,160.3969 33.5467,161.1579 34.4797,161.8909 C34.9997,162.2989 35.5317,162.6889 36.0607,163.0849 C36.9307,163.7379 37.8067,164.3809 38.6987,165.0019 C39.2717,165.4009 39.8507,165.7859 40.4327,166.1719 C41.3147,166.7549 42.2057,167.3239 43.1077,167.8769 Z" id="Fill-253" fill="#41B7AA"></path>
                <path d="M74.1051,151.5429 C75.6521,151.9539 77.2101,152.2969 78.7801,152.5849 C78.0501,152.4519 77.3341,152.2609 76.6101,152.1019 C75.7741,151.9179 74.9331,151.7609 74.1051,151.5429" id="Fill-255" fill="#EEAC77"></path>
                <path d="M152.0446,99.3271 C152.0736,99.1091 152.1006,98.8911 152.1276,98.6741 C152.1066,98.8421 152.0856,99.0091 152.0636,99.1761 C152.0566,99.2261 152.0506,99.2761 152.0446,99.3271" id="Fill-257" fill="#EEAC77"></path>
                <path d="M120.0099,145.9551 C120.3869,145.7501 120.7519,145.5261 121.1249,145.3121 C121.0699,145.3451 121.0139,145.3771 120.9589,145.4081 C120.6419,145.5901 120.3299,145.7781 120.0099,145.9551" id="Fill-259" fill="#EEAC77"></path>
                <path d="M179.8214,84.1616 C179.7594,83.3436 179.7114,82.5206 179.6264,81.7086 C179.5554,81.0196 179.4514,80.3396 179.3644,79.6556 C179.3154,79.2666 179.2704,78.8766 179.2164,78.4906 C179.4854,80.3876 179.6774,82.2886 179.8234,84.1916 C179.8234,84.1816 179.8224,84.1716 179.8214,84.1616" id="Fill-261" fill="#EEAC77"></path>
                <path d="M58.1573,175.2705 C58.4403,175.3775 58.7153,175.5045 58.9983,175.6095 C59.0473,175.6265 59.0953,175.6415 59.1433,175.6595 C59.7923,175.8965 60.4473,176.1075 61.0993,176.3295 C61.2013,176.3645 61.3023,176.3975 61.4033,176.4325 C61.8933,176.6015 62.3823,176.7755 62.8763,176.9315 C63.5473,177.1435 64.2243,177.3305 64.9003,177.5265 C65.4903,177.6985 66.0783,177.8825 66.6723,178.0415 C67.3363,178.2195 68.0073,178.3725 68.6753,178.5355 C69.2883,178.6845 69.8993,178.8465 70.5153,178.9825 C71.1643,179.1265 71.8183,179.2445 72.4703,179.3745 C73.1113,179.5005 73.7503,179.6395 74.3943,179.7515 C74.9453,179.8485 75.4993,179.9215 76.0523,180.0085 C69.9533,179.0475 63.9523,177.4585 58.1573,175.2705" id="Fill-263" fill="#EEAC77"></path>
                <path d="M169.1471,48.0268 C168.8411,47.4678 168.5111,46.9238 168.1941,46.3728 C168.0981,46.2048 168.0021,46.0368 167.9051,45.8698 C168.4681,46.8408 169.0291,47.8138 169.5551,48.8058 C169.4171,48.5478 169.2871,48.2838 169.1471,48.0268" id="Fill-265" fill="#EEAC77"></path>
                <path d="M76.0919,180.0146 C76.1689,180.0266 76.2459,180.0386 76.3229,180.0506 C76.9359,180.1446 77.5469,180.2446 78.1609,180.3276 C78.2089,180.3346 78.2569,180.3436 78.3039,180.3506 C78.7339,180.4066 79.1659,180.4426 79.5959,180.4926 C78.4249,180.3546 77.2569,180.1976 76.0919,180.0146" id="Fill-267" fill="#EEAC77"></path>
                <path d="M103.8937,152.0478 C104.3047,151.9538 104.7167,151.8628 105.1247,151.7628 C104.7487,151.8558 104.3697,151.9388 103.9907,152.0258 C103.9577,152.0318 103.9257,152.0398 103.8937,152.0478" id="Fill-269" fill="#EEAC77"></path>
                <path d="M129.5885,42.622 C129.0455,42.18 128.4955,41.748 127.9375,41.324 C128.3715,41.655 128.7985,41.993 129.2235,42.335 C129.3435,42.433 129.4685,42.524 129.5885,42.622" id="Fill-271" fill="#EEAC77"></path>
                <path d="M178.2428,72.7729 C178.1108,72.1359 177.9498,71.5099 177.8048,70.8779 C177.7578,70.6749 177.7118,70.4709 177.6628,70.2669 C177.9508,71.4779 178.2178,72.6909 178.4538,73.9079 C178.3818,73.5299 178.3208,73.1479 178.2428,72.7729" id="Fill-273" fill="#EEAC77"></path>
                <path d="M133.9581,46.5517 C133.3611,45.9637 132.7601,45.3827 132.1411,44.8197 C132.6701,45.3017 133.1821,45.8017 133.6941,46.3007 C133.7811,46.3847 133.8721,46.4667 133.9581,46.5517" id="Fill-275" fill="#EEAC77"></path>
                <path d="M79.1637,152.6621 C79.1867,152.6671 79.2117,152.6681 79.2357,152.6721 C79.2127,152.6681 79.1897,152.6671 79.1667,152.6631 C79.1657,152.6631 79.1647,152.6631 79.1637,152.6621" id="Fill-277" fill="#EEAC77"></path>
                <path d="M136.233,48.9082 C136.238,48.9132 136.242,48.9192 136.247,48.9242 C136.702,49.4232 137.141,49.9372 137.579,50.4512 C137.604,50.4812 137.631,50.5102 137.656,50.5402 C137.358,50.1842 137.091,49.8032 136.782,49.4552 C136.339,48.9572 135.85,48.5082 135.392,48.0262 C135.52,48.1612 135.65,48.2942 135.777,48.4302 C135.927,48.5912 136.085,48.7452 136.233,48.9082" id="Fill-279" fill="#EEAC77"></path>
                <path d="M100.6637,152.6914 C100.8397,152.6614 101.0157,152.6494 101.1907,152.6174 C101.4127,152.5774 101.6277,152.5214 101.8487,152.4784 C101.5367,152.5394 101.2217,152.5914 100.9087,152.6474 C100.8267,152.6624 100.7457,152.6764 100.6637,152.6914" id="Fill-281" fill="#EEAC77"></path>
                <g id="Group-285" transform="translate(80.000000, 180.113000)">
                    <mask id="mask-26" fill="white">
                        <use xlink:href="#path-25"></use>
                    </mask>
                    <g id="Clip-284"></g>
                    <path d="M2.2452,0.6633 C2.5522,0.6893 2.8622,0.7003 3.1692,0.7243 C2.1602,0.6453 1.1522,0.5513 0.1452,0.4383 C0.1722,0.4423 0.1992,0.4443 0.2252,0.4473 C0.8982,0.5203 1.5702,0.6043 2.2452,0.6633" id="Fill-283" fill="#EEAC77" mask="url(#mask-26)"></path>
                </g>
                <path d="M179.045,77.2065 C178.942,76.5455 178.81,75.8945 178.692,75.2395 C178.64,74.9435 178.59,74.6475 178.534,74.3535 C178.764,75.5715 178.976,76.7905 179.155,78.0125 C179.116,77.7445 179.087,77.4745 179.045,77.2065" id="Fill-286" fill="#EEAC77"></path>
                <path d="M171.1466,51.9096 C170.8626,51.3246 170.5536,50.7536 170.2576,50.1756 C170.2516,50.1646 170.2466,50.1536 170.2406,50.1426 C170.8476,51.3346 171.4366,52.5366 171.9906,53.7556 C171.7096,53.1396 171.4416,52.5176 171.1466,51.9096" id="Fill-288" fill="#EEAC77"></path>
                <path d="M145.0831,120.7783 C145.1201,120.7113 145.1611,120.6463 145.1981,120.5783 C145.2571,120.4673 145.3011,120.3513 145.3591,120.2403 C145.2741,120.4013 145.1961,120.5663 145.1101,120.7263 C145.1011,120.7433 145.0931,120.7603 145.0831,120.7783" id="Fill-290" fill="#EEAC77"></path>
                <path d="M52.9943,40.7261 C53.7943,40.1351 54.5813,39.5191 55.4033,38.9701 C56.0513,38.5371 56.7263,38.1621 57.3873,37.7551 C58.2153,37.2441 59.0323,36.7081 59.8803,36.2381 C60.5943,35.8431 61.3353,35.5081 62.0623,35.1431 C62.8853,34.7281 63.6963,34.2871 64.5343,33.9111 C65.3343,33.5521 66.1593,33.2581 66.9723,32.9351 C67.7653,32.6191 68.5473,32.2731 69.3533,31.9911 C70.2383,31.6811 71.1473,31.4381 72.0463,31.1691 C72.8043,30.9421 73.5503,30.6831 74.3173,30.4851 C75.2663,30.2401 76.2363,30.0661 77.1983,29.8671 C77.9383,29.7131 78.6693,29.5241 79.4173,29.3971 C80.3903,29.2331 81.3813,29.1391 82.3653,29.0201 C83.1223,28.9281 83.8703,28.8011 84.6343,28.7371 C85.5783,28.6571 86.5373,28.6481 87.4913,28.6101 C88.3203,28.5771 89.1433,28.5091 89.9783,28.5081 C90.0053,28.5081 90.0303,28.5041 90.0563,28.5041 C90.5823,28.5041 91.1013,28.5311 91.6233,28.5441 C92.1383,28.5571 92.6563,28.5581 93.1673,28.5831 C93.5213,28.6011 93.8713,28.6321 94.2233,28.6611 C94.2953,28.6661 94.3683,28.6701 94.4403,28.6761 C94.5823,28.6881 94.7243,28.6971 94.8673,28.7071 C95.3563,28.7451 95.8483,28.7711 96.3343,28.8201 C96.3423,28.8201 96.3513,28.8221 96.3593,28.8231 C96.8063,28.8681 97.2463,28.9301 97.6883,28.9881 C97.8143,29.0051 97.9413,29.0181 98.0673,29.0351 C98.5313,29.0951 98.9993,29.1431 99.4603,29.2121 C99.4693,29.2141 99.4783,29.2161 99.4883,29.2171 C99.9263,29.2851 100.3593,29.3671 100.7933,29.4471 C100.9283,29.4721 101.0643,29.4941 101.2003,29.5181 C101.6443,29.5991 102.0943,29.6681 102.5353,29.7581 C102.5443,29.7591 102.5533,29.7621 102.5623,29.7641 C103.0343,29.8601 103.4993,29.9731 103.9653,30.0841 C104.0953,30.1141 104.2253,30.1431 104.3553,30.1731 C104.7533,30.2661 105.1553,30.3481 105.5503,30.4491 C105.5903,30.4591 105.6303,30.4721 105.6703,30.4831 C106.1313,30.6031 106.5873,30.7361 107.0423,30.8691 C107.1703,30.9061 107.2993,30.9401 107.4273,30.9771 C107.7883,31.0811 108.1563,31.1751 108.5153,31.2871 C109.1613,31.4861 109.7963,31.7101 110.4323,31.9301 C110.7593,32.0431 111.0913,32.1451 111.4153,32.2631 C111.6393,32.3451 111.8573,32.4371 112.0793,32.5231 C112.3893,32.6431 112.6983,32.7621 113.0053,32.8861 C113.1263,32.9341 113.2483,32.9791 113.3683,33.0281 C113.6623,33.1461 113.9613,33.2541 114.2533,33.3771 C114.9263,33.6611 115.5863,33.9671 116.2473,34.2731 C116.5033,34.3911 116.7653,34.5001 117.0193,34.6221 C117.6983,34.9481 118.3633,35.2961 119.0283,35.6451 C119.2373,35.7541 119.4513,35.8561 119.6593,35.9681 C119.6263,35.9501 119.5963,35.9291 119.5633,35.9121 L132.5343,11.6741 C132.1223,11.4531 131.7013,11.2481 131.2863,11.0341 C130.4963,10.6251 129.7123,10.2101 128.9093,9.8251 C128.3803,9.5701 127.8373,9.3411 127.3023,9.0971 C126.5103,8.7351 125.7233,8.3651 124.9193,8.0261 C124.3683,7.7941 123.8033,7.5871 123.2463,7.3661 C122.4433,7.0461 121.6453,6.7171 120.8313,6.4201 C120.2463,6.2071 119.6503,6.0211 119.0603,5.8201 C118.2593,5.5471 117.4623,5.2631 116.6513,5.0121 C116.0363,4.8211 115.4103,4.6591 114.7883,4.4811 C113.9873,4.2521 113.1913,4.0121 112.3803,3.8051 C111.7353,3.6391 111.0773,3.5031 110.4273,3.3521 C109.6293,3.1671 108.8373,2.9701 108.0323,2.8061 C107.3443,2.6661 106.6453,2.5581 105.9523,2.4341 C105.1703,2.2941 104.3933,2.1411 103.6043,2.0211 C102.8843,1.9121 102.1533,1.8361 101.4273,1.7441 C100.6543,1.6461 99.8853,1.5331 99.1063,1.4551 C98.3703,1.3811 97.6253,1.3421 96.8853,1.2861 C96.1013,1.2261 95.3233,1.1531 94.5353,1.1141 C93.7963,1.0781 93.0493,1.0761 92.3063,1.0581 C91.5563,1.0391 90.8103,1.0001 90.0563,1.0001 C90.0023,1.0001 89.9493,1.0031 89.8953,1.0041 C89.2773,1.0051 88.6613,1.0291 88.0443,1.0431 C87.4033,1.0581 86.7613,1.0621 86.1203,1.0901 C85.4853,1.1181 84.8523,1.1701 84.2183,1.2121 C83.5923,1.2531 82.9663,1.2831 82.3423,1.3371 C81.7043,1.3931 81.0703,1.4721 80.4343,1.5401 C79.8183,1.6071 79.2003,1.6631 78.5853,1.7431 C77.9503,1.8251 77.3193,1.9311 76.6863,2.0261 C76.0743,2.1191 75.4603,2.2011 74.8503,2.3061 C74.2233,2.4141 73.5993,2.5451 72.9743,2.6661 C72.3653,2.7851 71.7543,2.8931 71.1483,3.0231 C70.5353,3.1551 69.9273,3.3101 69.3173,3.4551 C68.7033,3.6011 68.0873,3.7361 67.4763,3.8941 C66.8783,4.0501 66.2863,4.2271 65.6913,4.3941 C65.0773,4.5671 64.4613,4.7301 63.8523,4.9161 C63.2643,5.0951 62.6823,5.2961 62.0983,5.4871 C61.4893,5.6861 60.8763,5.8751 60.2713,6.0881 C59.7023,6.2871 59.1423,6.5071 58.5783,6.7171 C57.9653,6.9451 57.3493,7.1651 56.7413,7.4071 C56.1953,7.6241 55.6573,7.8621 55.1153,8.0901 C54.4993,8.3491 53.8793,8.6001 53.2693,8.8721 C52.7503,9.1041 52.2403,9.3551 51.7253,9.5971 C51.1013,9.8901 50.4743,10.1751 49.8583,10.4821 C49.3633,10.7281 48.8773,10.9941 48.3873,11.2491 C47.7633,11.5751 47.1363,11.8921 46.5193,12.2321 C46.0373,12.4971 45.5663,12.7821 45.0883,13.0561 C44.4763,13.4091 43.8593,13.7541 43.2553,14.1211 C42.7863,14.4051 42.3283,14.7091 41.8653,15.0021 C41.2653,15.3821 40.6603,15.7541 40.0693,16.1491 C39.6113,16.4541 39.1653,16.7771 38.7133,17.0901 C38.1313,17.4951 37.5433,17.8921 36.9703,18.3101 C36.5163,18.6411 36.0753,18.9911 35.6273,19.3301 C35.1123,19.7221 34.5883,20.1021 34.0813,20.5061 L34.0853,20.5111 L51.1883,42.0431 C51.7753,41.5761 52.3943,41.1691 52.9943,40.7261" id="Fill-292" fill="#A3EAE3"></path>
                <path d="M177.2281,68.4223 C177.0631,67.7883 176.8701,67.1653 176.6911,66.5363 C176.6491,66.3883 176.6051,66.2423 176.5641,66.0943 C176.9241,67.3373 177.2601,68.5883 177.5661,69.8473 C177.4511,69.3733 177.3511,68.8943 177.2281,68.4223" id="Fill-294" fill="#EEAC77"></path>
                <path d="M176.006,64.1567 C175.811,63.5347 175.588,62.9257 175.38,62.3087 C175.359,62.2487 175.338,62.1897 175.318,62.1287 C175.738,63.3637 176.13,64.6077 176.496,65.8597 C176.338,65.2897 176.182,64.7187 176.006,64.1567" id="Fill-296" fill="#EEAC77"></path>
                <path d="M175.3175,62.1284 C175.0755,61.4084 174.8415,60.6854 174.5795,59.9744 C174.3575,59.3734 174.1085,58.7854 173.8745,58.1894 C173.5725,57.4214 173.2805,56.6484 172.9585,55.8904 C172.7805,55.4734 172.5815,55.0674 172.3975,54.6534 C173.4785,57.0994 174.4545,59.5934 175.3175,62.1284" id="Fill-298" fill="#EEAC77"></path>
                <g id="Group-302" transform="translate(179.000000, 90.113000)">
                    <mask id="mask-28" fill="white">
                        <use xlink:href="#path-27"></use>
                    </mask>
                    <g id="Clip-301"></g>
                    <path d="M1.1085,0.8001 C1.1085,0.7281 1.1035,0.6571 1.1035,0.5851 C1.1055,1.1161 1.0875,1.6461 1.0805,2.1771 C1.0855,1.8271 1.1015,1.4801 1.1075,1.1311 C1.1085,1.0691 1.1115,1.0071 1.1115,0.9441 L1.1115,0.9431 C1.1115,0.8951 1.1085,0.8481 1.1085,0.8001" id="Fill-300" fill="#EEAC77" mask="url(#mask-28)"></path>
                </g>
                <g id="Group-305" transform="translate(179.000000, 86.113000)">
                    <mask id="mask-30" fill="white">
                        <use xlink:href="#path-29"></use>
                    </mask>
                    <g id="Clip-304"></g>
                    <path d="M0.983,0.1648 C0.983,0.1568 0.982,0.1478 0.981,0.1398 C1.008,0.6308 1.009,1.1228 1.027,1.6138 C1.01,1.1318 1.008,0.6448 0.983,0.1648" id="Fill-303" fill="#EEAC77" mask="url(#mask-30)"></path>
                </g>
                <path d="M155.528,29.3183 C155.474,29.2613 155.419,29.2053 155.365,29.1483 C154.775,28.5253 154.191,27.8963 153.583,27.2903 C153.462,27.1703 153.334,27.0563 153.213,26.9373 C154.001,27.7133 154.768,28.5123 155.528,29.3183" id="Fill-306" fill="#EEAC77"></path>
                <path d="M138.3444,15.1006 C137.7524,14.7226 137.1684,14.3336 136.5664,13.9696 C136.0934,13.6826 135.6044,13.4176 135.1254,13.1396 C134.3504,12.6896 133.5794,12.2326 132.7894,11.8056 C132.7734,11.7966 132.7564,11.7886 132.7404,11.7796 C134.6604,12.8136 136.5154,13.9396 138.3444,15.1006" id="Fill-308" fill="#EEAC77"></path>
                <path d="M144.5631,19.4331 C144.2941,19.2281 144.0321,19.0161 143.7621,18.8141 C143.3131,18.4791 142.8481,18.1661 142.3931,17.8391 C141.6741,17.3241 140.9601,16.8021 140.2261,16.3081 C140.1741,16.2731 140.1201,16.2411 140.0681,16.2071 C141.6061,17.2321 143.0961,18.3191 144.5631,19.4331" id="Fill-310" fill="#EEAC77"></path>
                <path d="M150.6656,24.5083 C150.5926,24.4423 150.5196,24.3763 150.4456,24.3103 C150.0256,23.9303 149.5886,23.5703 149.1626,23.1973 C148.5016,22.6223 147.8476,22.0403 147.1706,21.4843 C147.1046,21.4293 147.0346,21.3783 146.9676,21.3233 C148.2286,22.3513 149.4616,23.4133 150.6656,24.5083" id="Fill-312" fill="#EEAC77"></path>
                <path d="M176.7301,115.4394 C176.4591,116.4024 176.1861,117.3644 175.8821,118.3194 C175.9461,118.1184 176.0151,117.9194 176.0781,117.7184 C176.0861,117.6954 176.0941,117.6714 176.1011,117.6484 C176.2861,117.0534 176.4421,116.4474 176.6141,115.8474 C176.6531,115.7114 176.6921,115.5764 176.7301,115.4394" id="Fill-314" fill="#EEAC77"></path>
                <path d="M110.1383,178.8281 C109.0753,179.0711 108.0053,179.2991 106.9283,179.5051 C107.3453,179.4261 107.7683,179.3651 108.1823,179.2801 C108.2353,179.2691 108.2863,179.2551 108.3383,179.2441 C108.9433,179.1191 109.5373,178.9651 110.1383,178.8281" id="Fill-316" fill="#EEAC77"></path>
                <path d="M103.1554,180.1494 C103.4054,180.1134 103.6584,180.0844 103.9074,180.0454 C104.1934,180.0014 104.4724,179.9404 104.7574,179.8934 C104.2234,179.9824 103.6904,180.0704 103.1554,180.1494" id="Fill-318" fill="#EEAC77"></path>
                <path d="M179.4987,101.4072 C179.5307,101.1262 179.5657,100.8452 179.6017,100.5652 C179.6207,100.4132 179.6417,100.2612 179.6567,100.1072 C179.6827,99.8572 179.6917,99.6022 179.7147,99.3522 C179.6507,100.0382 179.5777,100.7232 179.4987,101.4072" id="Fill-320" fill="#EEAC77"></path>
                <g id="Group-324" transform="translate(88.000000, 180.113000)">
                    <mask id="mask-32" fill="white">
                        <use xlink:href="#path-31"></use>
                    </mask>
                    <g id="Clip-323"></g>
                    <path d="M0.6715,0.97 C1.1335,0.977 1.5935,1 2.0565,1 C2.0995,1 2.1415,0.996 2.1835,0.996 C2.2865,0.996 2.3885,0.99 2.4905,0.989 C1.8845,0.991 1.2785,0.98 0.6715,0.97" id="Fill-322" fill="#EEAC77" mask="url(#mask-32)"></path>
                </g>
                <g id="Group-327" transform="translate(84.000000, 180.113000)">
                    <mask id="mask-34" fill="white">
                        <use xlink:href="#path-33"></use>
                    </mask>
                    <g id="Clip-326"></g>
                    <path d="M0.3654,0.802 C0.9184,0.836 1.4694,0.877 2.0234,0.905 C2.0864,0.908 2.1494,0.914 2.2124,0.916 L2.2134,0.916 C2.4114,0.925 2.6104,0.922 2.8084,0.93 C1.9934,0.9 1.1794,0.854 0.3654,0.802" id="Fill-325" fill="#EEAC77" mask="url(#mask-34)"></path>
                </g>
                <path d="M99.0211,180.665 C99.1481,180.652 99.2771,180.641 99.4041,180.628 C99.6321,180.604 99.8541,180.566 100.0821,180.541 C99.7281,180.581 99.3751,180.629 99.0211,180.665" id="Fill-328" fill="#EEAC77"></path>
                <path d="M114.8077,177.626 C113.7787,177.92 112.7467,178.208 111.7037,178.466 C111.9287,178.41 112.1537,178.357 112.3787,178.304 C112.4827,178.279 112.5867,178.256 112.6897,178.23 C113.3117,178.067 113.9227,177.877 114.5397,177.702 C114.6287,177.677 114.7187,177.652 114.8077,177.626" id="Fill-330" fill="#EEAC77"></path>
                <path d="M177.7291,111.5605 C177.5191,112.4585 177.3071,113.3585 177.0681,114.2505 C177.1461,113.9585 177.2331,113.6705 177.3091,113.3765 C177.4621,112.7765 177.5871,112.1645 177.7291,111.5605" id="Fill-332" fill="#EEAC77"></path>
                <path d="M116.5065,177.1426 C116.6055,177.1126 116.7075,177.0876 116.8065,177.0576 C116.8585,177.0406 116.9085,177.0216 116.9605,177.0056 C117.5475,176.8216 118.1225,176.6106 118.7045,176.4136 C117.9725,176.6586 117.2465,176.9156 116.5065,177.1426" id="Fill-334" fill="#EEAC77"></path>
                <path d="M49.6368,171.5215 C49.2278,171.3155 48.8188,171.1105 48.4128,170.8995 C48.7848,171.0935 49.1588,171.2825 49.5338,171.4715 C49.5678,171.4895 49.6028,171.5035 49.6368,171.5215" id="Fill-336" fill="#EEAC77"></path>
                <path d="M178.5641,107.5898 C178.4081,108.4228 178.2501,109.2558 178.0701,110.0848 C178.1471,109.7318 178.2341,109.3828 178.3071,109.0278 C178.4031,108.5528 178.4751,108.0688 178.5641,107.5898" id="Fill-338" fill="#EEAC77"></path>
                <g id="Group-342" transform="translate(179.000000, 94.113000)">
                    <mask id="mask-36" fill="white">
                        <use xlink:href="#path-35"></use>
                    </mask>
                    <g id="Clip-341"></g>
                    <path d="M0.9015,2.7913 C0.9155,2.5693 0.9315,2.3493 0.9485,2.1283 C0.9665,1.8943 0.9865,1.6613 0.9985,1.4253 L0.9985,1.4223 C1.0055,1.2703 1.0035,1.1173 1.0095,0.9653 C0.9835,1.5743 0.9415,2.1833 0.9015,2.7913" id="Fill-340" fill="#EEAC77" mask="url(#mask-36)"></path>
                </g>
                <path d="M54.3097,173.7187 C53.8107,173.5037 53.3217,173.2667 52.8267,173.0427 C53.3077,173.2617 53.7827,173.4907 54.2677,173.7017 C54.2817,173.7077 54.2957,173.7127 54.3097,173.7187" id="Fill-343" fill="#EEAC77"></path>
                <path d="M173.0739,125.9453 C173.0789,125.9333 173.0849,125.9233 173.0899,125.9113 C173.3029,125.4033 173.4929,124.8833 173.6979,124.3713 C173.8279,124.0453 173.9509,123.7163 174.0819,123.3893 C173.5759,124.6983 173.0419,125.9993 172.4749,127.2883 C172.6729,126.8403 172.8829,126.3973 173.0739,125.9453" id="Fill-345" fill="#EEAC77"></path>
                <path d="M175.6017,119.1484 C175.1587,120.4974 174.6787,121.8364 174.1687,123.1664 C174.3467,122.7204 174.5297,122.2774 174.6937,121.8254 C174.8957,121.2714 175.0717,120.7054 175.2627,120.1464 C175.3767,119.8144 175.4917,119.4824 175.6017,119.1484" id="Fill-347" fill="#EEAC77"></path>
                <path d="M179.2291,103.5244 C179.1231,104.2844 179.0101,105.0444 178.8841,105.8014 C178.9501,105.4024 179.0301,105.0074 179.0911,104.6064 C179.1451,104.2484 179.1791,103.8834 179.2291,103.5244" id="Fill-349" fill="#EEAC77"></path>
                <path d="M180.1051,90.5464 C180.0991,89.6074 180.0631,88.6664 180.0271,87.7264 C180.0091,87.2354 180.0081,86.7444 179.9811,86.2534 C179.9441,85.5654 179.8761,84.8784 179.8241,84.1914 C179.6771,82.2884 179.4851,80.3874 179.2161,78.4904 C179.1941,78.3314 179.1791,78.1714 179.1551,78.0124 C178.9761,76.7914 178.7641,75.5714 178.5341,74.3534 C178.5061,74.2054 178.4831,74.0564 178.4541,73.9074 C178.2181,72.6914 177.9511,71.4784 177.6631,70.2674 C177.6381,70.1624 177.6201,70.0564 177.5941,69.9504 C177.5861,69.9164 177.5741,69.8824 177.5661,69.8474 C177.2601,68.5884 176.9241,67.3374 176.5641,66.0944 C176.5411,66.0164 176.5191,65.9384 176.4961,65.8594 C176.1301,64.6074 175.7381,63.3634 175.3171,62.1294 C174.4541,59.5934 173.4791,57.0994 172.3971,54.6534 C172.3911,54.6384 172.3861,54.6234 172.3791,54.6084 C172.2521,54.3224 172.1201,54.0394 171.9911,53.7554 C171.4361,52.5364 170.8481,51.3354 170.2411,50.1424 C170.0131,49.6964 169.7901,49.2484 169.5551,48.8064 C169.0291,47.8144 168.4681,46.8414 167.9051,45.8694 C166.2031,42.9304 164.3331,40.0964 162.3111,37.3684 C162.2531,37.2904 162.1961,37.2114 162.1381,37.1324 C160.6101,35.0854 159.0261,33.0784 157.3271,31.1694 C156.7781,30.5524 156.1701,29.9984 155.6051,29.3984 C155.5801,29.3714 155.5531,29.3454 155.5281,29.3184 C154.7681,28.5124 154.0011,27.7134 153.2121,26.9374 C153.1901,26.9154 153.1691,26.8914 153.1471,26.8694 C152.3321,26.0684 151.5101,25.2764 150.6661,24.5084 C149.4611,23.4134 148.2291,22.3514 146.9671,21.3234 C146.9431,21.3034 146.9201,21.2814 146.8961,21.2614 C146.1291,20.6384 145.3511,20.0314 144.5631,19.4334 C143.0961,18.3184 141.6061,17.2324 140.0681,16.2074 C140.0441,16.1914 140.0231,16.1724 139.9991,16.1564 C139.4551,15.7954 138.8971,15.4514 138.3441,15.1004 C136.5151,13.9404 134.6601,12.8134 132.7401,11.7794 C132.7171,11.7674 132.6951,11.7524 132.6721,11.7394 C132.6271,11.7154 132.5861,11.6854 132.5411,11.6614 L132.5371,11.6704 L119.5631,35.9114 C119.5961,35.9294 119.6261,35.9504 119.6591,35.9674 C119.6651,35.9714 119.6691,35.9754 119.6751,35.9784 C121.0191,36.7004 122.3161,37.4884 123.5951,38.2994 C123.6161,38.3134 123.6381,38.3244 123.6591,38.3384 C123.8761,38.4764 124.0931,38.6164 124.3101,38.7554 C124.4601,38.8514 124.6131,38.9464 124.7621,39.0454 C124.7681,39.0494 124.7731,39.0544 124.7801,39.0584 C125.8251,39.7544 126.8351,40.4944 127.8341,41.2494 C127.8671,41.2754 127.9031,41.2984 127.9371,41.3234 C128.4961,41.7484 129.0451,42.1804 129.5881,42.6224 C129.5951,42.6274 129.6001,42.6324 129.6061,42.6374 C130.4351,43.3124 131.2431,44.0114 132.0351,44.7274 C132.0691,44.7594 132.1061,44.7884 132.1411,44.8194 C132.7601,45.3824 133.3611,45.9634 133.9581,46.5514 C133.9641,46.5574 133.9701,46.5644 133.9761,46.5704 C134.3951,46.9834 134.8001,47.4114 135.2081,47.8374 C135.2691,47.9004 135.3311,47.9624 135.3921,48.0264 C135.8501,48.5084 136.3391,48.9574 136.7821,49.4554 C137.0911,49.8024 137.3571,50.1844 137.6561,50.5404 C137.6581,50.5434 137.6601,50.5454 137.6631,50.5484 C138.4911,51.5354 139.3171,52.5254 140.0881,53.5584 C140.1101,53.5884 140.1361,53.6154 140.1591,53.6464 C140.1651,53.6544 140.1711,53.6624 140.1771,53.6704 C140.3071,53.8454 140.4241,54.0294 140.5521,54.2064 C141.0871,54.9424 141.6151,55.6824 142.1181,56.4404 C142.1181,56.4404 142.1181,56.4414 142.1191,56.4414 C142.2291,56.6084 142.3361,56.7774 142.4451,56.9454 C142.4451,56.9464 142.4451,56.9474 142.4461,56.9474 C143.0091,57.8134 143.5571,58.6894 144.0761,59.5834 C144.0921,59.6114 144.1111,59.6384 144.1271,59.6664 C144.1611,59.7244 144.1921,59.7824 144.2251,59.8404 C144.5611,60.4254 144.8981,61.0084 145.2161,61.6044 C145.2371,61.6444 145.2611,61.6844 145.2831,61.7244 C145.4361,62.0104 145.5791,62.3014 145.7271,62.5904 C145.7371,62.6094 145.7451,62.6284 145.7541,62.6474 C146.1741,63.4714 146.5811,64.3034 146.9641,65.1454 C146.9761,65.1714 146.9891,65.1954 147.0011,65.2214 C147.0751,65.3834 147.1481,65.5454 147.2211,65.7084 C147.2241,65.7154 147.2261,65.7194 147.2271,65.7224 C148.7411,69.1434 149.9581,72.7004 150.8421,76.3514 C150.8471,76.3694 150.8531,76.3874 150.8571,76.4064 C150.8621,76.4234 150.8631,76.4414 150.8681,76.4594 C151.3091,78.2924 151.6661,80.1374 151.9381,81.9874 C151.9451,82.0354 151.9501,82.0824 151.9571,82.1294 C152.4771,85.7234 152.6681,89.3384 152.5601,92.9374 C152.5531,93.1674 152.5521,93.3984 152.5431,93.6274 C152.4741,95.3024 152.3341,96.9724 152.1301,98.6354 C152.1291,98.6484 152.1291,98.6614 152.1271,98.6734 C152.1011,98.8914 152.0731,99.1094 152.0441,99.3274 C151.8181,101.0194 151.5271,102.7034 151.1631,104.3744 C151.1591,104.3924 151.1571,104.4134 151.1531,104.4324 C151.1261,104.5554 151.0951,104.6774 151.0681,104.8004 C151.0641,104.8164 151.0591,104.8324 151.0551,104.8474 C150.6651,106.5714 150.2091,108.2824 149.6721,109.9724 C149.6651,109.9964 149.6601,110.0214 149.6531,110.0454 C149.6481,110.0574 149.6441,110.0714 149.6401,110.0844 C149.6251,110.1294 149.6051,110.1714 149.5901,110.2164 C149.0301,111.9574 148.3971,113.6774 147.6821,115.3714 C147.6671,115.4084 147.6491,115.4444 147.6331,115.4804 C146.9491,117.0934 146.1831,118.6784 145.3591,120.2404 C145.3011,120.3514 145.2571,120.4674 145.1981,120.5784 C145.1611,120.6464 145.1201,120.7114 145.0831,120.7784 C144.8721,121.1694 144.6431,121.5454 144.4251,121.9294 C144.4161,121.9454 144.4051,121.9604 144.3961,121.9754 C143.4991,123.5544 142.5301,125.0774 141.5131,126.5574 C141.3551,126.7814 141.1991,127.0064 141.0381,127.2294 C140.1361,128.5054 139.1881,129.7394 138.2011,130.9364 C137.8591,131.3444 137.5101,131.7474 137.1591,132.1464 C136.3561,133.0704 135.5271,133.9674 134.6741,134.8394 C134.1051,135.4214 133.5211,135.9834 132.9301,136.5414 C132.2661,137.1694 131.5871,137.7784 130.8971,138.3754 C130.1271,139.0414 129.3431,139.6864 128.5421,140.3134 C127.8181,140.8794 127.0841,141.4294 126.3361,141.9634 C125.6921,142.4214 125.0441,142.8734 124.3831,143.3074 C124.3551,143.3264 124.3271,143.3464 124.2991,143.3654 C124.2631,143.3884 124.2251,143.4094 124.1891,143.4324 C123.1921,144.0824 122.1801,144.7094 121.1461,145.3004 L121.1251,145.3124 C120.7521,145.5264 120.3871,145.7504 120.0101,145.9554 C118.5671,146.7404 117.0921,147.4684 115.5851,148.1404 C115.4061,148.2204 115.2271,148.3004 115.0481,148.3824 C113.3641,149.1144 111.6471,149.7824 109.8911,150.3674 C109.4451,150.5154 109.0021,150.6714 108.5521,150.8104 C108.5141,150.8224 108.4761,150.8374 108.4371,150.8484 C108.0161,150.9784 107.5871,151.0904 107.1621,151.2124 C107.1501,151.2144 107.1381,151.2174 107.1271,151.2214 C106.4981,151.3994 105.8681,151.5744 105.2311,151.7334 C105.1961,151.7424 105.1611,151.7544 105.1251,151.7624 C104.7171,151.8634 104.3051,151.9544 103.8941,152.0474 C103.2511,152.1934 102.6041,152.3304 101.9541,152.4564 C101.9181,152.4634 101.8841,152.4714 101.8481,152.4784 C101.6271,152.5214 101.4121,152.5774 101.1911,152.6174 C101.0151,152.6494 100.8391,152.6614 100.6641,152.6914 C99.2541,152.9354 97.8441,153.1324 96.4351,153.2804 C96.4051,153.2834 96.3751,153.2904 96.3451,153.2934 C95.8061,153.3464 95.2611,153.3774 94.7181,153.4174 C93.9171,153.4784 93.1241,153.5174 92.3321,153.5484 C92.3021,153.5494 92.2721,153.5514 92.2421,153.5534 C92.1971,153.5544 92.1511,153.5534 92.1061,153.5544 C91.2871,153.5844 90.4691,153.5864 89.6521,153.5844 C89.6051,153.5834 89.5581,153.5864 89.5101,153.5854 C88.7431,153.5814 87.9821,153.5194 87.2181,153.4854 C86.4511,153.4524 85.6821,153.4474 84.9181,153.3854 C84.6701,153.3664 84.4231,153.3384 84.1751,153.3154 C82.5211,153.1624 80.8721,152.9604 79.2351,152.6714 C79.2111,152.6684 79.1871,152.6674 79.1641,152.6624 C79.0351,152.6394 78.9081,152.6094 78.7801,152.5854 C77.2101,152.2964 75.6521,151.9544 74.1051,151.5434 C73.7181,151.4404 73.3351,151.3174 72.9491,151.2074 L72.7491,151.1484 C72.2861,151.0134 71.8291,150.8514 71.3681,150.7094 C70.6441,150.4864 69.9171,150.2754 69.2001,150.0194 C68.1011,149.6284 67.0061,149.2154 65.9231,148.7594 C65.6761,148.6564 65.4241,148.5654 65.1781,148.4594 C63.7461,147.8344 62.3321,147.1434 60.9341,146.4074 C60.9221,146.4014 60.9111,146.3964 60.9001,146.3914 C60.7791,146.3274 60.6531,146.2784 60.5321,146.2134 L47.5711,170.4314 L47.5541,170.4634 C47.8261,170.6084 48.1041,170.7384 48.3771,170.8804 C48.3891,170.8864 48.4011,170.8924 48.4131,170.8994 C48.8191,171.1104 49.2281,171.3154 49.6371,171.5214 C49.9821,171.6944 50.3241,171.8784 50.6711,172.0464 C51.3581,172.3794 52.0531,172.6914 52.7481,173.0064 C52.7731,173.0184 52.8001,173.0304 52.8261,173.0434 C53.3211,173.2664 53.8111,173.5044 54.3101,173.7184 C55.1311,174.0734 55.9621,174.4004 56.7921,174.7294 C57.2371,174.9064 57.6791,175.0894 58.1271,175.2594 C58.1371,175.2634 58.1471,175.2664 58.1571,175.2704 C63.9521,177.4594 69.9531,179.0474 76.0521,180.0084 L76.0921,180.0144 C77.2561,180.1974 78.4251,180.3544 79.5961,180.4924 C79.6191,180.4944 79.6411,180.4984 79.6631,180.5014 C79.8161,180.5184 79.9701,180.5334 80.1231,180.5494 C80.1321,180.5504 80.1391,180.5514 80.1451,180.5514 C81.1521,180.6644 82.1601,180.7584 83.1691,180.8374 C83.2021,180.8384 83.2341,180.8434 83.2661,180.8454 C83.6281,180.8734 83.9921,180.8904 84.3541,180.9144 C84.3581,180.9154 84.3611,180.9154 84.3651,180.9154 C85.1791,180.9664 85.9931,181.0124 86.8091,181.0434 C86.8501,181.0444 86.8911,181.0474 86.9321,181.0484 C87.5111,181.0694 88.0911,181.0734 88.6711,181.0834 C89.2781,181.0924 89.8841,181.1034 90.4911,181.1014 C90.5451,181.1014 90.5991,181.1034 90.6531,181.1034 C91.9421,181.0964 93.2311,181.0624 94.5201,181.0004 C94.5821,180.9974 94.6441,180.9974 94.7061,180.9944 C96.1461,180.9214 97.5841,180.8074 99.0211,180.6654 C99.3751,180.6294 99.7281,180.5814 100.0821,180.5414 C100.1831,180.5304 100.2841,180.5174 100.3861,180.5054 C101.3101,180.3994 102.2331,180.2854 103.1551,180.1494 C103.6901,180.0704 104.2231,179.9824 104.7571,179.8934 C104.8101,179.8844 104.8641,179.8774 104.9171,179.8684 C105.3151,179.8014 105.7141,179.7494 106.1121,179.6764 C106.3861,179.6274 106.6541,179.5574 106.9281,179.5044 C108.0051,179.2984 109.0751,179.0714 110.1381,178.8284 C110.1431,178.8274 110.1471,178.8264 110.1521,178.8254 C110.6691,178.7074 111.1871,178.5934 111.7001,178.4664 C111.7011,178.4654 111.7031,178.4654 111.7041,178.4654 C112.7471,178.2084 113.7781,177.9204 114.8081,177.6264 C114.8101,177.6264 114.8111,177.6254 114.8131,177.6254 C115.3771,177.4634 115.9461,177.3144 116.5061,177.1424 C117.2471,176.9164 117.9721,176.6584 118.7041,176.4144 C118.7091,176.4124 118.7141,176.4104 118.7191,176.4094 C139.9331,169.3204 157.6991,154.6634 168.7281,134.8144 C168.7411,134.7904 168.7551,134.7674 168.7681,134.7444 C168.9271,134.4594 169.0971,134.1824 169.2531,133.8964 C169.2531,133.8944 169.2541,133.8934 169.2551,133.8914 C169.3171,133.7784 169.3861,133.6704 169.4471,133.5554 C169.9691,132.5814 170.4591,131.5914 170.9421,130.6014 C170.9491,130.5884 170.9561,130.5764 170.9621,130.5634 C170.9831,130.5214 171.0041,130.4794 171.0251,130.4384 C171.0991,130.2934 171.1751,130.1484 171.2461,130.0024 C171.6631,129.1334 172.0461,128.2584 172.4321,127.3844 C172.4461,127.3524 172.4611,127.3204 172.4751,127.2884 C173.0421,125.9994 173.5761,124.6984 174.0821,123.3894 C174.1101,123.3154 174.1401,123.2414 174.1691,123.1664 C174.6791,121.8374 175.1581,120.4974 175.6021,119.1484 C175.6071,119.1314 175.6131,119.1154 175.6191,119.0984 C175.7041,118.8394 175.7981,118.5854 175.8811,118.3254 C176.1861,117.3644 176.4591,116.4024 176.7301,115.4394 C176.7321,115.4314 176.7351,115.4224 176.7371,115.4154 C176.8461,115.0284 176.9631,114.6444 177.0671,114.2564 C177.3071,113.3584 177.5191,112.4594 177.7291,111.5604 C177.7301,111.5554 177.7311,111.5514 177.7321,111.5474 C177.7321,111.5464 177.7321,111.5464 177.7321,111.5454 C177.8461,111.0604 177.9641,110.5774 178.0691,110.0914 C178.0691,110.0884 178.0701,110.0874 178.0701,110.0854 C178.2501,109.2554 178.4081,108.4224 178.5641,107.5894 C178.5691,107.5614 178.5761,107.5324 178.5821,107.5044 C178.6871,106.9384 178.7891,106.3744 178.8831,105.8074 C178.8841,105.8054 178.8841,105.8034 178.8841,105.8014 C179.0101,105.0444 179.1231,104.2844 179.2291,103.5244 C179.2351,103.4804 179.2431,103.4374 179.2491,103.3934 C179.3401,102.7344 179.4211,102.0754 179.4981,101.4144 C179.4991,101.4124 179.4991,101.4104 179.4991,101.4074 C179.5781,100.7234 179.6511,100.0384 179.7141,99.3524 C179.7191,99.3024 179.7261,99.2544 179.7301,99.2054 C179.7991,98.4404 179.8521,97.6754 179.9011,96.9094 C179.9011,96.9074 179.9011,96.9054 179.9011,96.9044 C179.9411,96.2964 179.9831,95.6874 180.0101,95.0784 C180.0121,95.0284 180.0171,94.9784 180.0191,94.9274 C180.0571,94.0504 180.0681,93.1714 180.0811,92.2934 C180.0881,91.7594 180.1051,91.2294 180.1031,90.6974 C180.1031,90.6474 180.1051,90.5964 180.1051,90.5464 L157.3271,61.7244" id="Fill-351" fill="#4FD6C7"></path>
            </g>
            <text id="42" font-family="AktifoB-Book, Aktifo B" font-size="36" font-weight="300" fill="#979797">
                <tspan x="298.982" y="100">42</tspan>
            </text>
            <line x1="1" y1="91.5" x2="210" y2="91.5" id="Line-6" stroke="#DEDEDE" stroke-linecap="square"></line>
            <line x1="210.5" y1="50.5" x2="210.5" y2="135.5" id="Line-7-Copy-3" stroke="#DEDEDE" stroke-linecap="square"></line>
            <line x1="140.5" y1="50.5" x2="140.5" y2="135.5" id="Line-7-Copy-2" stroke="#DEDEDE" stroke-linecap="square"></line>
            <line x1="70.5" y1="50.5" x2="70.5" y2="135.5" id="Line-7-Copy" stroke="#DEDEDE" stroke-linecap="square"></line>
            <line x1="0.5" y1="50.5" x2="0.5" y2="135.5" id="Line-7" stroke="#DEDEDE" stroke-linecap="square"></line>
        </g>
    </g>
</svg>