<?xml version="1.0" encoding="UTF-8"?>
<svg width="57px" height="48px" viewBox="0 0 57 48" version="1.1" xmlns="http://www.w3.org/2000/svg" xmlns:xlink="http://www.w3.org/1999/xlink">
    <!-- Generator: Sketch 61.2 (89653) - https://sketch.com -->
    <title>Group 10</title>
    <desc>Created with Sketch.</desc>
    <defs>
        <polygon id="path-1" points="0.136605167 0.167142857 38.8428542 0.167142857 38.8428542 44.0160429 0.136605167 44.0160429"></polygon>
    </defs>
    <g id="Page-1" stroke="none" stroke-width="1" fill="none" fill-rule="evenodd">
        <g id="Customer-Portal---Design-Suite-Copy" transform="translate(-857.000000, -328.000000)">
            <g id="Group-10" transform="translate(857.000000, 328.000000)">
                <path d="M52.5973097,29.916722 C52.4699885,30.7081194 51.8668882,31.5769504 51.1646115,31.9811799 L43.4167833,36.4487036 C43.1339962,36.6114454 42.934303,36.6468811 42.8150232,36.6495059 L42.813683,36.6495059 C42.6434747,36.6350692 42.5925462,36.6022583 42.5496591,36.5641977 C42.3606877,36.4001436 42.2816145,35.9197929 42.5509993,35.2491394 L46.2741383,25.9610474 C46.6292974,25.0764673 47.3838428,24.4530613 47.90787,24.361191 C47.9520973,24.3533164 47.9909638,24.3493791 48.0258096,24.3493791 C48.1852961,24.3493791 48.2482866,24.4202505 48.2710704,24.4464992 L52.4753494,29.1633852 C52.6080314,29.3116902 52.6509186,29.5794266 52.5973097,29.916722 L52.5973097,29.916722 Z M49.3110833,23.5579817 C48.9116969,23.1104419 48.3099368,22.9188266 47.6652896,23.0316959 C46.5904309,23.2193738 45.4887678,24.222073 44.9902049,25.4675724 L41.2657256,34.7569768 C40.8073694,35.9001064 40.949433,36.9802392 41.6342869,37.5747715 C41.9559404,37.8530074 42.3580072,38 42.801621,38 L42.837807,38 C43.2519358,37.9934378 43.6821474,37.8635069 44.1177198,37.6128321 L51.8628675,33.1453085 C52.9256643,32.5337144 53.7673242,31.3197135 53.9603163,30.1267114 C54.1117615,29.1791344 53.8008298,28.5964139 53.5153623,28.2761801 L49.3110833,23.5579817 Z" id="Fill-1" fill="#5A595C"></path>
                <g id="Group-5" transform="translate(18.000000, 0.000000)">
                    <mask id="mask-2" fill="white">
                        <use xlink:href="#path-1"></use>
                    </mask>
                    <g id="Clip-4"></g>
                    <path d="M21.58403,20.4527571 C20.99123,20.8024714 20.37893,21.1650429 19.78483,21.5353286 C19.64833,21.6214714 19.60803,21.6214714 19.46373,21.5353286 C16.52963,19.8047571 13.54353,18.0523286 10.65493,16.3577571 L2.57023,11.6211857 L4.20563,10.6851857 C5.65513,9.85461429 7.10593,9.02532857 8.55413,8.18961429 C8.66983,8.12147143 8.68803,8.12404286 8.80373,8.19604286 C12.79733,10.7289 16.79613,13.2553286 20.79623,15.7843286 L24.97963,18.4290429 L21.58403,20.4527571 Z M28.80553,16.1481857 C28.12173,16.5519 27.41453,16.9710429 26.72813,17.3966143 C26.57863,17.4879 26.53053,17.4981857 26.35113,17.3850429 C23.41703,15.5169 20.42703,13.6269 17.53713,11.7999 L10.28313,7.21118571 L10.31693,7.19318571 L11.31793,6.6249 C11.98223,6.24818571 12.66863,5.8599 13.33683,5.46518571 C13.44343,5.40218571 13.46033,5.39704286 13.58253,5.47675714 C17.62553,8.04175714 21.67243,10.6029 25.71933,13.1640429 L29.64663,15.6493286 L28.80553,16.1481857 Z M35.06113,12.4273286 C33.85343,13.1447571 32.60673,13.8866143 31.38473,14.6271857 C31.23393,14.7197571 31.19493,14.7184714 31.04023,14.6194714 C27.22343,12.1946143 23.34033,9.73632857 19.57033,7.35004286 L15.05283,4.4919 L17.69053,2.9889 C18.28853,2.64818571 18.90473,2.2959 19.50663,1.93847143 C19.61843,1.8729 19.64053,1.87675714 19.73673,1.93075714 C23.77063,4.27718571 27.80583,6.62104286 31.84233,8.9649 L36.41313,11.6237571 L35.06113,12.4273286 Z M28.77953,19.8009 C28.74053,19.8523286 28.71583,19.8626143 28.70933,19.8523286 C28.19193,19.5951857 27.70703,19.6286143 27.28713,19.9474714 C27.28713,19.6003286 27.28843,19.2686143 27.29623,18.9484714 C28.16463,18.4239 29.03953,17.9057571 29.95733,17.3593286 L30.36813,17.1163286 C30.36813,17.1677571 30.36813,17.2191857 30.36943,17.2693286 L30.37983,17.6936143 C30.38633,17.9893286 30.39543,18.2953286 30.38893,18.5704714 C29.58423,18.7196143 29.13963,19.3161857 28.77953,19.8009 L28.77953,19.8009 Z M37.2126917,32.1424714 C37.21393,32.2941857 37.19573,32.3263286 37.05793,32.4034714 C32.70293,34.8823286 28.34923,37.3650429 23.99423,39.8477571 L20.43483,41.8791857 L20.43483,38.8256143 C20.43613,33.6094714 20.43613,28.3946143 20.43223,23.1784714 C20.43223,23.0216143 20.44003,23.0164714 20.50113,22.9804714 C21.84403,22.1910429 23.20383,21.3797571 24.52073,20.5954714 L25.64003,19.9281857 L25.63483,20.4810429 C25.62963,20.8950429 25.62313,21.3219 25.64783,21.7474714 C25.66083,21.9891857 25.80643,22.4301857 26.13923,22.5780429 C26.46553,22.7220429 26.89453,22.5330429 27.08823,22.3813286 C27.46653,22.0830429 27.80453,21.7371857 28.05673,21.4684714 C28.13993,21.3810429 28.16723,21.3591857 28.33103,21.4131857 C29.18643,21.6909 29.40353,21.6780429 29.95993,20.9053286 C30.32913,20.3961857 30.75033,20.1159 31.28723,20.0246143 C31.78123,19.9397571 32.06463,19.5694714 32.04643,19.0333286 C32.01523,18.1629 31.98793,17.2307571 31.99443,16.3153286 C31.99443,16.2497571 32.04123,16.1430429 32.05683,16.1250429 C33.59213,15.1864714 35.16513,14.2504714 36.68743,13.3453286 L37.20353,13.0406143 L37.20223,28.0911857 C37.20223,29.4219 37.20093,30.7924714 37.2126917,32.1424714 L37.2126917,32.1424714 Z M1.76943,13.0393286 L4.89593,14.8714714 C9.38613,17.5046143 14.02973,20.2251857 18.60183,22.8956143 C18.79423,23.0074714 18.82023,23.0730429 18.82023,23.2517571 C18.81113,28.1181857 18.81113,33.0669 18.81243,37.8523286 L18.81243,41.8920429 L3.63233,33.3523286 C3.07073,33.0334714 2.48963,32.7043286 1.91113,32.3957571 C1.77853,32.3237571 1.75903,32.2916143 1.75903,32.1411857 C1.77073,28.5746143 1.77203,24.9489 1.77333,21.4427571 L1.76943,13.0393286 Z M0.74763,33.6056143 C1.24293,33.8717571 1.73823,34.1533286 2.22183,34.4297571 L6.53003,36.8546143 C10.56523,39.1226143 14.73563,41.4664714 18.83323,43.7820429 C19.11143,43.9389 19.37013,44.0160429 19.62363,44.0160429 C19.87973,44.0160429 20.14233,43.9376143 20.42183,43.7756143 C25.62183,40.7901857 31.26253,37.5707571 38.17203,33.6429 C38.63873,33.3767571 38.84543,33.0231857 38.8428542,32.4947571 C38.83373,29.7394714 38.83503,26.9366143 38.83633,24.2263286 L38.83633,20.4681857 C38.83633,17.5933286 38.83763,14.7210429 38.8428542,11.8474714 C38.8428542,11.3691857 38.65823,11.0387571 38.25913,10.8073286 C32.11533,7.24975714 26.05213,3.73204286 20.23723,0.349328571 C19.82383,0.1089 19.45593,0.106328571 19.04383,0.341614286 C13.28223,3.63818571 7.30613,7.0479 0.76973,10.7649 C0.33553,11.0130429 0.13403,11.3589 0.136605167,11.8526143 C0.14703,14.5294714 0.14573,17.2500429 0.14443,19.8819 L0.14443,21.8169 L0.14183,21.8169 L0.14183,24.4359 C0.14313,27.1050429 0.14313,29.8654714 0.136605167,32.5796143 C0.13533,33.0566143 0.32903,33.3831857 0.74763,33.6056143 L0.74763,33.6056143 Z" id="Fill-3" fill="#5A595C" mask="url(#mask-2)"></path>
                </g>
                <path d="M28.6224547,32.6858834 L28.4081343,32.687225 L28.4081343,32.6912495 L28.2928274,32.6201491 C27.8278397,32.331723 27.3866654,32.0580535 26.9442378,31.7817011 L25.6545551,30.9714249 C24.7032731,30.3731084 23.7194043,29.7546691 22.7468156,29.1550111 C22.6051886,29.0678125 22.5801219,29.0195179 22.5851352,28.8491452 C22.5976686,28.3608331 22.5951619,27.8671549 22.5926552,27.3292067 L22.5926552,27.317133 L24.9802603,28.7981676 C26.0481026,29.4622184 27.1522916,30.1477336 28.2414406,30.8144674 C28.4043743,30.9150812 28.425681,30.9741079 28.4194143,31.140456 C28.4006143,31.6408418 28.4043743,32.1425691 28.4081343,32.6738098 L28.6224547,32.6858834 Z M21.0046785,28.1394828 C20.9984119,28.5540115 20.9933985,28.9819554 21.0247319,29.4085578 C21.047292,29.7157651 21.222759,30.1235863 21.5147863,30.3100571 C23.9074047,31.8367033 26.2611697,33.3096888 28.6625615,34.8095046 C28.8630952,34.9356072 29.056109,35 29.2340827,35 C29.361923,35 29.4809899,34.9678036 29.5875234,34.9034108 C29.7654972,34.7947479 29.9798176,34.5546164 29.9860843,34.0220342 C29.999871,32.9957738 30.0098977,31.7857256 29.9835776,30.5783605 C29.9760576,30.2765192 29.7980839,29.8566244 29.5123233,29.6741781 C27.1923984,28.2105832 24.9439136,26.8127227 22.2793212,25.16534 C21.9659872,24.97082 21.6551599,24.9466727 21.4044927,25.0996057 C21.1525722,25.2525386 21.0109452,25.5530383 21.0059319,25.9461028 C21.0009185,26.3418503 21.0021719,26.7375977 21.0034252,27.1333452 L21.0084385,27.7906885 L21.0046785,28.1394828 Z" id="Fill-6" fill="#5A595C"></path>
                <path d="M10.7197528,25.3708415 C14.7386885,25.3708415 18.0074746,28.580137 18.0074746,32.5259295 C18.0074746,36.4704501 14.7386885,39.6797456 10.7197528,39.6797456 C6.70081722,39.6797456 3.43332669,36.4704501 3.43332669,32.5259295 C3.43332669,28.580137 6.70081722,25.3708415 10.7197528,25.3708415 L10.7197528,25.3708415 Z M26,45.3771037 L19.3043652,38.8020548 C20.638828,37.0479452 21.4395057,34.8791585 21.4395057,32.5259295 C21.4395057,26.7217221 16.6302571,22 10.7197528,22 C4.80924855,22 0,26.7217221 0,32.5259295 C0,38.328865 4.80924855,43.0493151 10.7197528,43.0493151 C12.8458242,43.0493151 14.8229021,42.4323875 16.4903329,41.3804305 L23.2326091,48 L26,45.3771037 Z" id="Fill-8" fill="#5A595C"></path>
            </g>
        </g>
    </g>
</svg>