<?xml version="1.0" encoding="UTF-8"?>
<svg width="34px" height="31px" viewBox="0 0 34 31" version="1.1" xmlns="http://www.w3.org/2000/svg" xmlns:xlink="http://www.w3.org/1999/xlink">
    <!-- Generator: Sketch 61.2 (89653) - https://sketch.com -->
    <title>Group 9</title>
    <desc>Created with Sketch.</desc>
    <defs>
        <polygon id="path-1" points="0 0.0173447205 26.969544 0.0173447205 26.969544 24.2857143 0 24.2857143"></polygon>
        <polygon id="path-3" points="0.104447368 0.533793103 20.5639737 0.533793103 20.5639737 19.6826897 0.104447368 19.6826897"></polygon>
    </defs>
    <g id="Page-1" stroke="none" stroke-width="1" fill="none" fill-rule="evenodd">
        <g id="Customer-Portal---Design-Suite-builder" transform="translate(-968.000000, -902.000000)">
            <g id="Group-9" transform="translate(968.000000, 902.000000)">
                <g id="Group-3" transform="translate(0.000000, 6.000000)">
                    <mask id="mask-2" fill="white">
                        <use xlink:href="#path-1"></use>
                    </mask>
                    <g id="Clip-2"></g>
                    <path d="M24.118344,22.7401708 C24.060024,23.0390839 24.034104,23.0749534 23.732784,23.0945186 C23.230584,23.1282143 22.727304,23.1575621 22.225104,23.1586491 C18.320904,23.1695186 14.417784,23.1782143 10.513584,23.1771273 C7.875144,23.1771273 5.235624,23.160823 2.596104,23.1488665 C2.274264,23.1466925 1.953504,23.1173447 1.631664,23.1086491 C1.209384,23.0966925 1.094904,22.9206056 1.161864,22.4966925 C1.279584,21.7466925 1.415664,20.9988665 1.552824,20.2521273 C2.072304,17.4325621 2.591784,14.6151708 3.118824,11.7966925 C3.405024,10.2640839 3.705264,8.73256211 4.000104,7.20104037 C4.060584,6.88799689 4.115664,6.83690994 4.429944,6.83364907 C6.196824,6.81951863 7.964784,6.80430124 9.731664,6.79886646 C10.690704,6.79560559 11.650824,6.7977795 12.610944,6.79886646 C12.486744,6.42060559 12.378744,6.03582298 12.296664,5.64125776 L6.696864,5.6477795 C5.930064,5.64886646 5.162184,5.66734472 4.396464,5.64560559 C3.871584,5.6303882 3.041064,6.20430124 2.936304,6.7553882 C2.818584,7.3803882 2.672784,7.99995342 2.555064,8.62386646 C2.106864,11.0010404 1.665144,13.3803882 1.220184,15.7575621 C1.206144,15.8369099 1.187784,15.9151708 1.170504,15.9934317 C1.153224,15.9934317 1.137024,15.9923447 1.119744,15.9912578 L1.119744,15.7586491 C1.114344,12.8314752 1.107864,9.90321429 1.105704,6.97604037 C1.103544,5.22604037 1.108944,3.47712733 1.111104,1.72712733 C1.112184,1.39995342 1.349784,1.14234472 1.686744,1.1303882 C2.142504,1.11517081 2.599344,1.11082298 3.055104,1.11190994 C4.607064,1.11951863 6.157944,1.13256211 7.708824,1.13908385 C7.850304,1.13908385 7.950744,1.18582298 8.032824,1.30430124 C8.358984,1.77060559 8.672184,2.24886646 9.026424,2.69451863 C9.212184,2.92821429 9.465984,3.10973602 9.701424,3.29995342 C9.760824,3.34886646 9.864504,3.35647516 9.948744,3.35647516 C10.653984,3.35756211 11.359224,3.35864907 12.063384,3.35973602 C12.064464,2.98690994 12.083904,2.61951863 12.120624,2.25647516 L10.845144,2.2553882 C10.590264,2.2553882 10.292184,2.31625776 10.091304,2.20647516 C9.880704,2.09125776 9.762984,1.80430124 9.606384,1.59234472 C9.313704,1.19451863 9.032904,0.789083851 8.728344,0.402127329 C8.538264,0.161909938 8.279064,0.0456055901 7.960464,0.0445186335 C7.106184,0.043431677 6.250824,0.0173447205 5.396544,0.0173447205 C4.068144,0.0173447205 2.739744,0.0379968944 1.411344,0.0347360248 C0.781704,0.0325621118 0.019224,0.853214286 0.023544,1.47821429 C0.027864,1.98364907 -0.000216,2.49125776 -0.000216,2.9977795 C0.003024,9.56625776 0.009504,16.134736 0.007344,22.7032143 C0.007344,22.9749534 0.066744,23.2129969 0.212544,23.4336491 C0.564624,23.9651708 1.030104,24.2869099 1.692144,24.2858285 C5.361984,24.2814752 9.032904,24.2836491 12.702744,24.2836491 L12.702744,24.259736 C16.430904,24.259736 20.159064,24.259736 23.888304,24.2586491 C23.962824,24.2586491 24.045984,24.2629969 24.111864,24.2336491 C24.652944,23.9912578 25.086024,23.6466925 25.208064,23.0195186 C25.239384,22.8575621 25.285824,22.6988665 25.316064,22.5369099 C25.867944,19.5466925 26.421984,16.5564752 26.969544,13.5651708 C26.573184,13.7238665 26.166024,13.8553882 25.748064,13.9673447 C25.335504,16.2151708 24.920784,18.4629969 24.506064,20.710823 C24.380784,21.3879969 24.250104,22.0640839 24.118344,22.7401708 Z" id="Fill-1" fill="#5A595C" mask="url(#mask-2)"></path>
                </g>
                <g id="Group-6" transform="translate(13.000000, 0.000000)">
                    <mask id="mask-4" fill="white">
                        <use xlink:href="#path-3"></use>
                    </mask>
                    <g id="Clip-5"></g>
                    <path d="M10.3347632,18.1733793 C5.58323684,18.1733793 1.71813158,14.5557931 1.71813158,10.1085517 C1.71813158,5.66131034 5.58323684,2.04372414 10.3347632,2.04372414 C15.0862895,2.04372414 18.9513947,5.66131034 18.9513947,10.1085517 C18.9513947,14.5557931 15.0862895,18.1733793 10.3347632,18.1733793 M10.3347632,0.53337931 C4.6935,0.53337931 0.104447368,4.82958621 0.104447368,10.1085517 C0.104447368,15.3875172 4.6935,19.6826897 10.3347632,19.6826897 C15.9760263,19.6826897 20.5639737,15.3875172 20.5639737,10.1085517 C20.5639737,4.82958621 15.9760263,0.53337931 10.3347632,0.53337931" id="Fill-4" fill="#5A595C" mask="url(#mask-4)"></path>
                </g>
                <polygon id="Fill-7" fill="#5A595C" points="28 11.4154869 26.8446779 10.1339667 24.3120146 12.9444181 24.3120146 4 22.6365921 4 22.6365921 12.8885511 20.1542942 10.1339667 19 11.4154869 23.1330516 16 23.8669484 16"></polygon>
            </g>
        </g>
    </g>
</svg>