<?xml version="1.0" encoding="UTF-8"?>
<svg width="28px" height="28px" viewBox="0 0 28 28" version="1.1" xmlns="http://www.w3.org/2000/svg" xmlns:xlink="http://www.w3.org/1999/xlink">
    <!-- Generator: Sketch 61.2 (89653) - https://sketch.com -->
    <title>Group 3</title>
    <desc>Created with Sketch.</desc>
    <defs>
        <polygon id="path-1" points="0 0 28 0 28 28 0 28"></polygon>
    </defs>
    <g id="Page-1" stroke="none" stroke-width="1" fill="none" fill-rule="evenodd">
        <g id="Customer-Portal---Design-Suite-builder" transform="translate(-672.000000, -903.000000)">
            <g id="Group-3" transform="translate(672.000000, 903.000000)">
                <mask id="mask-2" fill="white">
                    <use xlink:href="#path-1"></use>
                </mask>
                <g id="Clip-2"></g>
                <path d="M13.9877264,21.9898559 L13.591029,21.9898559 C11.7597535,21.9898559 9.92847813,21.9898559 8.09680838,21.9894618 C7.97219963,21.9894618 7.83812693,22.0111361 7.72455946,21.9733046 C7.53133703,21.9090697 7.42131855,21.9890677 7.29394948,22.1167493 C6.08256315,23.3328764 4.86486753,24.5430924 3.64993222,25.7556729 C3.58881084,25.816361 3.53636476,25.886113 3.46223044,25.9724162 L13.9877264,25.9724162 L13.9877264,21.9898559 Z M2.01345656,24.5277234 C3.20946396,23.340758 4.35933457,22.1809841 5.5320764,21.045249 C5.86607517,20.7217103 6.03287739,20.4174815 6.01947012,19.9130606 C5.97057301,18.0522205 6.00054221,16.1898041 6.00054221,14.3277818 L6.00054221,14.0097602 L2.01345656,14.0097602 L2.01345656,24.5277234 Z M25.9805299,19.9816303 L25.9805299,2.02070086 L8.02504005,2.02070086 L8.02504005,18.4482697 C9.83265558,16.6414184 11.654467,14.8203803 13.4821935,12.9930369 L13.2030068,12.9930369 C12.4636352,12.9930369 11.7242637,12.9981599 10.9848922,12.9914606 C10.4237585,12.9863375 10.0018238,12.5528509 10.0010351,11.9975938 C10.0002465,11.4403664 10.4202095,11.0001804 10.9797659,10.9986041 C12.6564633,10.993087 14.3331608,10.9934811 16.0098583,10.9978159 C16.5737523,10.9993922 16.995687,11.4222388 16.9972643,11.9869537 C17.001602,13.6629708 17.001602,15.338988 16.99687,17.0150051 C16.9952927,17.5048451 16.6167344,17.9280857 16.1514233,17.9864094 C15.6336661,18.0518264 15.1573136,17.7452331 15.0303389,17.2518465 C14.9999754,17.1336228 15.0027357,17.0047591 15.0023413,16.8806242 C14.9999754,16.084191 15.0011583,15.2873637 15.0011583,14.5382199 C13.1828959,16.3557113 11.3587184,18.179508 9.55622921,19.9816303 L25.9805299,19.9816303 Z M15.998817,21.99025 C15.998817,23.6177954 15.9708195,25.2000218 16.0110413,26.7810659 C16.0303635,27.5286334 15.5508564,28.0038924 14.787825,27.999976 C10.2463093,27.9751247 5.70439926,27.9877352 1.16248922,27.9873411 C0.365939618,27.9873411 0.000394331485,27.6220301 0,26.8259909 C0,22.265711 0,17.7050371 0.000394331485,13.1443631 C0.000394331485,12.3680279 0.370671596,11.9964116 1.14434997,11.9960175 C2.74770179,11.9956234 4.3510536,11.9960175 6.00054221,11.9960175 L6.00054221,11.6212486 C6.00054221,8.44576161 6.00014787,5.26988056 6.00054221,2.09399952 C6.00093654,0.839646696 6.83928527,0.000652931134 8.09286506,0.000652931134 C14.0512138,0 20.0095625,0 25.9683056,0 C27.1335551,0 27.9991128,0.864079582 27.9991128,2.03015875 C28.0002957,8.00715191 28.0002957,13.983751 27.9991128,19.9603501 C27.9991128,21.1264292 27.1351325,21.9886736 25.9675169,21.9894618 C22.7698829,21.990644 19.5718546,21.9898559 16.3738262,21.99025 L15.998817,21.99025 Z" id="Fill-1" fill="#5A595C" mask="url(#mask-2)"></path>
            </g>
        </g>
    </g>
</svg>