<?xml version="1.0" encoding="UTF-8"?>
<svg width="44px" height="38px" viewBox="0 0 44 38" version="1.1" xmlns="http://www.w3.org/2000/svg" xmlns:xlink="http://www.w3.org/1999/xlink">
    <!-- Generator: Sketch 61.2 (89653) - https://sketch.com -->
    <title>Group 3</title>
    <desc>Created with Sketch.</desc>
    <defs>
        <polygon id="path-1" points="0 0 44 0 44 38 0 38"></polygon>
    </defs>
    <g id="Page-1" stroke="none" stroke-width="1" fill="none" fill-rule="evenodd">
        <g id="Customer-Portal---Design-Suite-builder" transform="translate(-1108.000000, -546.000000)">
            <g id="Group-2" transform="translate(1076.000000, 136.000000)">
                <g id="Group-3" transform="translate(32.000000, 410.000000)">
                    <mask id="mask-2" fill="white">
                        <use xlink:href="#path-1"></use>
                    </mask>
                    <g id="Clip-2"></g>
                    <path d="M39.664224,8.78191702 C39.664224,8.24083174 39.6752913,7.75274207 39.6610619,7.26518236 C39.6484135,6.83220814 39.6352381,6.39658414 39.5714693,5.97049935 C39.5034843,5.51950662 39.2636924,5.33985147 38.8167834,5.321303 C38.423103,5.30487436 38.0283685,5.2826162 37.6341611,5.28155629 C34.5706213,5.26724747 31.5065545,5.25452852 28.4430146,5.24816904 C24.1594344,5.23915979 19.8753272,5.23703996 15.59122,5.22750075 C15.4599932,5.2269708 15.2966185,5.21584172 15.2033368,5.14005798 C14.8354801,4.84169264 14.4375836,4.55763611 14.1466712,4.19143637 C13.5922511,3.49348405 13.1005458,2.74518589 12.589341,2.01331637 C12.4607493,1.82889161 12.3031717,1.75628761 12.0807713,1.75522769 C9.65017679,1.74515853 7.21958232,1.72449023 4.78898785,1.71389111 C4.0733011,1.71071137 3.35761435,1.71866072 2.64245461,1.74250875 C2.11543933,1.76052726 1.74283953,2.16488384 1.74231251,2.67629158 C1.73862341,5.41510525 1.72966415,8.15497883 1.73145521,10.8948524 C1.73598833,15.4795035 1.74705565,20.0641547 1.75496088,24.6482759 C1.75496088,24.7701658 1.75496088,24.8909958 1.75496088,25.0128857 C1.78131165,25.0139456 1.80766241,25.0150056 1.83401317,25.0160655 C1.86089095,24.8925857 1.89040381,24.7706957 1.91306547,24.6472159 C2.60977966,20.9232137 3.30175073,17.1986815 4.00373508,13.4757391 C4.18871744,12.4979699 4.41796909,11.52868 4.60242444,10.5509108 C4.76527216,9.68814213 6.0669999,8.78880645 6.89019777,8.81212453 C8.09073857,8.84604172 9.29338744,8.81636418 10.4949823,8.81530426 C20.108795,8.80417518 29.7220807,8.7930461 39.3353664,8.78191702 L39.664224,8.78191702 Z M24.1942175,10.5922474 L24.1942175,10.6166254 C21.213419,10.6166254 18.2320936,10.609206 15.2518222,10.6187452 C12.4818299,10.6266946 9.71236459,10.6510726 6.94237228,10.6733307 C6.44961299,10.6770404 6.36423652,10.7570638 6.26937377,11.2488632 C5.80665435,13.646915 5.33655672,16.043377 4.8875397,18.4440786 C4.06223378,22.8564939 3.24746815,27.2699692 2.43375656,31.6839744 C2.21820731,32.8530578 2.00529314,34.0232011 1.82083779,35.1975841 C1.71596175,35.8632091 1.89461993,36.1377264 2.55707814,36.1568048 C3.06090474,36.1711136 3.56420434,36.2172198 4.06855796,36.2193397 C8.20510089,36.239478 12.3411168,36.2627961 16.4776597,36.2634604 C22.5952531,36.2649159 28.7128465,36.2521969 34.8304398,36.2357683 C35.6183277,36.2336485 36.4067425,36.1875423 37.1935763,36.1356066 C37.6663091,36.1048691 37.7079433,36.0476338 37.7985899,35.5796825 C38.0041258,34.52083 38.2096618,33.4625075 38.4057115,32.4020651 C39.2826649,27.6621368 40.1596183,22.9227385 41.0281395,18.1806903 C41.4334143,15.9691831 41.8244596,13.7539661 42.2128699,11.5387492 C42.3045705,11.0140926 41.9235385,10.5922474 41.391253,10.5922474 L24.1942175,10.5922474 Z M19.9074752,37.9968128 C14.1561574,37.9968128 8.40431266,37.9931031 2.6524679,37.9999963 C1.61372079,38.0015824 0.884331639,37.4986539 0.333600672,36.6650328 C0.104876041,36.3200313 0.0115943362,35.948532 0.0115943362,35.5208574 C0.0147564278,25.2359973 0.00421612224,14.9506073 0,4.66521722 C0,3.87240274 0.0432152529,3.0790583 0.0374180849,2.28624381 C0.0295128557,1.30794466 1.22478351,0.0228008587 2.21188313,0.0259805959 C4.29359348,0.0318101142 6.37583085,-0.000517214385 8.45806822,6.29331848e-06 C9.79721405,6.29331848e-06 11.1358329,0.0397594572 12.4749787,0.0418792821 C12.9740622,0.0429391945 13.381972,0.225774085 13.6786816,0.602042991 C14.1566844,1.20778293 14.5972692,1.84320042 15.0547185,2.46483905 C15.3003076,2.79818151 15.485817,3.24705441 15.8152015,3.42723952 C16.1303567,3.59894533 16.5967652,3.50302326 16.9967698,3.50355322 C23.903832,3.51415234 30.8114213,3.51998186 37.7190106,3.5316409 C38.2228372,3.53270081 38.7292989,3.53853033 39.2299634,3.59099599 C40.2481569,3.69751719 41.2284053,4.65249827 41.3158899,5.68326309 C41.389672,6.55398114 41.3670103,7.43317848 41.3807127,8.30813618 C41.388091,8.77025799 41.3812398,8.7760875 41.8212975,8.8656501 C42.9738799,9.09936079 43.6985259,9.79413338 43.9678307,10.9345991 C44.0342347,11.2170658 43.9852223,11.5403391 43.9341018,11.8349947 C43.4397614,14.6681406 42.9454211,17.5018164 42.4289461,20.3307227 C41.5198448,25.3096612 40.594933,30.2848901 39.6747643,35.2611788 C39.6278599,35.5144979 39.5556588,35.7635773 39.5066464,36.0168964 C39.3142858,36.9994352 38.6360172,37.5384006 37.7880496,37.9178493 C37.6852816,37.9634255 37.5551088,37.957066 37.4370574,37.957066 C31.594039,37.9586559 25.7504936,37.9586559 19.9074752,37.9586559 L19.9074752,37.9968128 Z" id="Fill-1" fill="#231F20" mask="url(#mask-2)"></path>
                </g>
            </g>
        </g>
    </g>
</svg>