<?xml version="1.0" encoding="UTF-8"?>
<svg width="51px" height="49px" viewBox="0 0 51 49" version="1.1" xmlns="http://www.w3.org/2000/svg" xmlns:xlink="http://www.w3.org/1999/xlink">
    <!-- Generator: Sketch 61.2 (89653) - https://sketch.com -->
    <title>Group 3</title>
    <desc>Created with Sketch.</desc>
    <defs>
        <polygon id="path-1" points="0 0 51 0 51 48 0 48"></polygon>
    </defs>
    <g id="Page-1" stroke="none" stroke-width="1" fill="none" fill-rule="evenodd">
        <g id="Customer-Portal---Design-Suite" transform="translate(-511.000000, -169.000000)">
            <g id="Group-3" transform="translate(511.000000, 169.295455)">
                <mask id="mask-2" fill="white">
                    <use xlink:href="#path-1"></use>
                </mask>
                <g id="Clip-2"></g>
                <path d="M48.9698642,33.6325905 C48.1925947,36.2207675 46.1343399,37.6340484 42.8139653,37.8345943 C41.866904,37.9272994 42.0310361,37.8724331 41.385827,37.9064881 L34.7696035,37.910272 C30.4002925,37.9121639 25.0424154,37.9140558 21.1522949,37.9140558 L21.0126882,37.7740521 C22.465352,35.8234597 23.3388369,33.4131252 23.3388369,30.7946771 C23.3388369,25.4707516 19.7675478,20.971713 14.9039537,19.562216 L21.2730357,8.51138127 L23.0049129,5.58643854 C24.4538036,3.17042828 25.6046152,2.44770634 26.9855892,2.06742595 C28.5929523,1.64173894 30.2927576,1.83660899 31.6454329,2.60473755 C32.5075983,3.09475059 33.413155,4.0709928 34.0942091,5.24967282 L34.2319292,5.45778647 C34.362103,5.65454846 34.4941633,5.8532024 35.1582382,7.01107106 L47.9473398,28.80057 L47.9492264,28.8043539 C49.0075957,30.5884554 49.4547144,31.8295696 48.9698642,33.6325905 M3.73730789,30.7946771 C3.73730789,26.4110469 7.29539103,22.8409519 11.6703618,22.8409519 C16.0415593,22.8409519 19.601529,26.4110469 19.601529,30.7946771 C19.601529,35.1820912 16.0415593,38.7502943 11.6703618,38.7502943 C7.29539103,38.7502943 3.73730789,35.1820912 3.73730789,30.7946771 M36.7505087,6.08212741 C36.0430426,4.850473 35.9015493,4.63857547 35.7619427,4.42856988 L35.6676139,4.28856615 C34.8412934,2.85258198 33.707461,1.65309059 32.5547628,0.996586632 C30.7832675,-0.00803470476 28.5797462,-0.267230794 26.5045122,0.283324402 C24.402866,0.864150675 22.9313364,2.12418422 21.4239619,4.63857547 L13.0136042,19.1781517 C12.5721453,19.1270693 12.1250267,19.0930143 11.6703618,19.0930143 C5.23524957,19.0930143 0,24.3431541 0,30.7946771 C0,37.2480922 5.23524957,42.49634 11.6703618,42.49634 C13.9833044,42.49634 16.1358881,41.8095649 17.9507747,40.6403446 L25.289557,48 L28.3005329,45.082625 L22.99548,39.7624834 C26.6346859,39.7624834 31.0549345,39.7586995 34.7696035,39.7568076 L41.4311048,39.7530237 C42.2272401,39.7151849 42.0065106,39.7700512 42.9573452,39.6754541 C47.03801,39.4313935 49.7263814,37.5262077 50.7413595,34.139631 C51.4658048,31.4473972 50.5413824,29.5630227 49.5339506,27.8621666 L36.7505087,6.08212741 Z" id="Fill-1" fill="#5A595C" mask="url(#mask-2)"></path>
            </g>
        </g>
    </g>
</svg>