<?xml version="1.0" encoding="UTF-8"?>
<svg width="25px" height="22px" viewBox="0 0 25 22" version="1.1" xmlns="http://www.w3.org/2000/svg" xmlns:xlink="http://www.w3.org/1999/xlink">
    <!-- Generator: Sketch 61.2 (89653) - https://sketch.com -->
    <title>Home Icon Light</title>
    <desc>Created with Sketch.</desc>
    <g id="Page-1" stroke="none" stroke-width="1" fill="none" fill-rule="evenodd">
        <g id="Tearsheet" transform="translate(-747.000000, -232.000000)" fill="#E8E9E9">
            <g id="Home-Icon-Light" transform="translate(747.000000, 232.500000)">
                <g id="Path">
                    <path d="M24.84,10.42 C24.3,11.09 24.1,11.12 23.44,10.6 L13.27,2.5 L12.42,1.83 C11.14,2.83 9.87,3.83 8.6,4.83 L1.6,10.44 C1.48208942,10.5476312 1.35493184,10.6446725 1.22,10.73 C0.84,10.97 0.4,10.98 0.22,10.57 C0.120057933,10.2494402 0.187668355,9.90011971 0.4,9.64 C1.61,8.6 2.91,7.59 4.2,6.57 L11.41,0.82 C12.41,0.03 12.41,0.03 13.41,0.82 L24.17,9.39 C24.41,9.58 24.64,9.81 24.87,10.02 L24.84,10.42 Z" fill-rule="nonzero"></path>
                    <path d="M5.32,19.39 L8.76,19.39 C8.76,19.11 8.76,18.85 8.76,18.58 C8.73155267,17.4155256 8.76827672,16.2503716 8.87,15.09 C9.1504857,13.2801239 10.7617836,11.9806901 12.59,12.09 C14.4886511,12.2149187 15.9728268,13.777438 16,15.68 C16,16.89 16,18.1 16,19.36 L19.46,19.36 L19.46,11 C19.46,10.52 19.67,10.17 20.17,10.18 C20.67,10.19 20.85,10.55 20.85,11.02 L20.85,20.02 C20.8837272,20.2416504 20.8107808,20.4662087 20.653234,20.6257249 C20.4956871,20.7852411 20.2720523,20.8609713 20.05,20.83 C18.51,20.83 16.97,20.83 15.44,20.83 C14.83,20.83 14.6,20.49 14.6,19.9 C14.6,18.55 14.6,17.2 14.6,15.85 C14.6353994,15.2579936 14.4302838,14.6767703 14.0311585,14.238109 C13.6320332,13.7994477 13.0727092,13.5405085 12.48,13.52 C11.8992064,13.4730923 11.3247097,13.6673025 10.8915095,14.0569935 C10.4583093,14.4466846 10.2045999,14.9974982 10.19,15.58 C10.14,16.95 10.19,18.32 10.19,19.7 C10.19,20.64 9.99,20.83 9.07,20.84 L5,20.84 C4.15,20.84 3.93,20.62 3.93,19.84 C3.93,16.95 3.93,14.06 3.93,11.18 C3.93,10.66 4.04,10.18 4.64,10.18 C5.24,10.18 5.33,10.64 5.33,11.18 C5.33,13.65 5.33,16.18 5.33,18.6 L5.32,19.39 Z" fill-rule="nonzero"></path>
                </g>
            </g>
        </g>
    </g>
</svg>