<?xml version="1.0" encoding="UTF-8"?>
<svg width="58px" height="54px" viewBox="0 0 58 54" version="1.1" xmlns="http://www.w3.org/2000/svg" xmlns:xlink="http://www.w3.org/1999/xlink">
    <!-- Generator: Sketch 61.2 (89653) - https://sketch.com -->
    <title>Page 1</title>
    <desc>Created with Sketch.</desc>
    <defs>
        <polygon id="path-1" points="0 0.383238238 24.2154412 0.383238238 24.2154412 53.9810355 0 53.9810355"></polygon>
        <polygon id="path-3" points="0.0005 0.49 24.9065 0.49 24.9065 22.7703 0.0005 22.7703"></polygon>
        <polygon id="path-5" points="0 0 19 0 19 15 0 15"></polygon>
    </defs>
    <g id="Page-1" stroke="none" stroke-width="1" fill="none" fill-rule="evenodd">
        <g id="Customer-Portal---Design-Suite" transform="translate(-616.000000, -694.000000)">
            <polygon id="Fill-1" fill="#E9E9E9" points="333 1024 1445 1024 1445 0 333 0"></polygon>
            <rect id="Rectangle-Copy-7" fill="#FFFFFF" x="368" y="564" width="501" height="418" rx="26"></rect>
            <g id="Group-6" transform="translate(616.000000, 694.000000)">
                <g id="Group-3">
                    <mask id="mask-2" fill="white">
                        <use xlink:href="#path-1"></use>
                    </mask>
                    <g id="Clip-2"></g>
                    <path d="M12.1080882,5.04441391 C11.4433824,5.04441391 10.9051471,5.58846797 10.9051471,6.26035986 C10.9051471,6.93373824 11.4433824,7.47779229 12.1080882,7.47779229 C12.7727941,7.47779229 13.3110294,6.93373824 13.3110294,6.26035986 C13.3110294,5.58846797 12.7727941,5.04441391 12.1080882,5.04441391 L12.1080882,5.04441391 Z M-0.000735294117,53.9810355 L24.2154412,53.9810355 L24.2154412,0.382792292 L-0.000735294117,0.382792292 L-0.000735294117,53.9810355 Z" id="Fill-1" fill="#A4DDF6" mask="url(#mask-2)"></path>
                </g>
                <path d="M13.0653873,43.148543 C13.3425729,43.148543 13.5572139,42.9552239 13.5572139,42.6666667 C13.5572139,42.3837953 13.3425729,42.1947406 13.0653873,42.1947406 C12.7867804,42.1947406 12.5778252,42.3837953 12.5778252,42.6666667 C12.5778252,42.9552239 12.7867804,43.148543 13.0653873,43.148543 L13.0653873,43.148543 Z M8.60767591,41.7882018 C8.60767591,42.6425018 9.18479033,43.1542289 10.0987918,43.1542289 C11.0369581,43.1542289 11.5884861,42.6226013 11.5884861,41.7882018 L11.5884861,39.503909 L10.7938877,39.503909 L10.7938877,41.7526652 C10.7938877,42.1648898 10.5593461,42.4434968 10.0987918,42.4434968 C9.68088131,42.4434968 9.39800995,42.2046908 9.39800995,41.7526652 L9.39800995,39.503909 L8.60767591,39.503909 L8.60767591,41.7882018 Z M17,40.9992893 C17,43.761194 14.761194,46 11.9992893,46 C9.23880597,46 7,43.761194 7,40.9992893 C7,38.238806 9.23880597,36 11.9992893,36 C14.761194,36 17,38.238806 17,40.9992893 L17,40.9992893 Z" id="Fill-4" fill="#231F20"></path>
            </g>
            <g id="Group-14" transform="translate(649.000000, 694.000000)">
                <path d="M6.793,21.9692 L6.384,21.9032 C6.203,21.8712 6.049,21.8122 6.049,21.6372 C6.049,21.4662 6.199,21.3612 6.433,21.3612 C6.689,21.3612 6.859,21.4902 6.867,21.6892 L7.436,21.6892 C7.429,21.2182 7.042,20.9072 6.458,20.9072 C5.86,20.9072 5.465,21.2282 5.465,21.7102 C5.465,22.0702 5.682,22.3292 6.199,22.4202 L6.608,22.4902 C6.706,22.5072 6.912,22.5422 6.912,22.7522 C6.912,22.9332 6.765,23.0492 6.5,23.0492 C6.227,23.0492 6.042,22.9302 6.024,22.7272 L5.455,22.7272 C5.493,23.1992 5.885,23.5102 6.489,23.5102 C7.094,23.5102 7.499,23.1882 7.499,22.7062 C7.499,22.3462 7.29,22.0492 6.793,21.9692" id="Fill-1" fill="#D0D2D3"></path>
                <path d="M9.6768,22.2763 L8.8558,20.9423 L8.2438,20.9423 L8.2438,23.4753 L8.7998,23.4753 L8.7998,22.9123 C8.7998,22.5873 8.7928,22.2243 8.7788,21.7593 L9.5368,22.9583 L9.8098,22.9583 L10.5608,21.7623 C10.5438,22.1513 10.5368,22.5423 10.5368,22.9123 L10.5368,23.4753 L11.0888,23.4753 L11.0888,20.9423 L10.4878,20.9423 L9.6768,22.2763 Z" id="Fill-3" fill="#D0D2D3"></path>
                <path d="M12.6665,22.5873 L13.0335,21.5013 L13.4005,22.5873 L12.6665,22.5873 Z M12.6845,20.9413 L11.7475,23.4753 L12.3695,23.4753 L12.5235,23.0213 L13.5435,23.0213 L13.6975,23.4753 L14.3405,23.4753 L13.3695,20.9413 L12.6845,20.9413 Z" id="Fill-5" fill="#D0D2D3"></path>
                <path d="M16.1597,22.1542 L15.5657,22.1542 L15.5657,21.4452 L16.1597,21.4452 C16.3967,21.4452 16.5577,21.5642 16.5577,21.7942 C16.5577,22.0112 16.4217,22.1542 16.1597,22.1542 M17.1407,21.7522 C17.1407,21.2842 16.8127,20.9422 16.2117,20.9422 L15.0097,20.9422 L15.0097,23.4752 L15.5657,23.4752 L15.5657,22.6012 L15.8557,22.6012 L16.5577,23.4752 L17.2397,23.4752 L16.4777,22.5352 C16.8867,22.4682 17.1407,22.1722 17.1407,21.7522" id="Fill-7" fill="#D0D2D3"></path>
                <polygon id="Fill-9" fill="#D0D2D3" points="17.6772 21.4204 18.4042 21.4204 18.4042 23.4754 18.9632 23.4754 18.9632 21.4204 19.6902 21.4204 19.6902 20.9414 17.6772 20.9414"></polygon>
                <g id="Group-13" transform="translate(0.000000, 0.510200)">
                    <mask id="mask-4" fill="white">
                        <use xlink:href="#path-3"></use>
                    </mask>
                    <g id="Clip-12"></g>
                    <path d="M18.3135,15.4243 L13.1265,18.4183 L12.9585,12.2123 L18.3385,8.9163 L18.3135,15.4243 Z M12.4375,11.3583 L6.8645,8.2663 L12.7275,4.8733 L17.9855,7.9593 L12.4375,11.3583 Z M6.4105,15.0553 L6.4115,9.1583 L11.9585,12.2353 L12.1215,18.2423 L6.4105,15.0553 Z M8.2865,5.2493 L8.7905,4.4013 L8.8015,4.4073 C9.1765,3.7573 9.2505,3.6463 9.3235,3.5363 L9.4015,3.4183 C9.7845,2.7563 10.2945,2.2083 10.7795,1.9333 C11.0895,1.7573 11.4365,1.6503 11.7935,1.5833 C11.9005,1.5633 12.0075,1.5393 12.1145,1.5293 C12.2265,1.5193 12.3405,1.5223 12.4535,1.5223 C12.5665,1.5223 12.6805,1.5193 12.7925,1.5293 C12.8995,1.5393 13.0055,1.5633 13.1125,1.5833 C13.4705,1.6503 13.8165,1.7573 14.1265,1.9333 C14.6125,2.2083 15.1225,2.7563 15.5055,3.4183 L15.5835,3.5363 C15.6565,3.6463 15.7305,3.7573 16.1055,4.4073 L16.1165,4.4013 L16.6205,5.2493 L17.2755,6.3823 L12.7305,3.7163 L7.3845,6.8093 L8.2865,5.2493 Z M24.5655,17.0403 L24.4525,16.8023 C24.3985,16.6963 24.3635,16.6253 24.0695,16.0623 L19.3425,7.9133 L19.3435,7.5963 L19.0625,7.4313 L16.5355,3.0753 C15.9455,2.0933 15.3625,1.4583 14.6655,1.0493 C14.6565,1.0433 14.6475,1.0353 14.6395,1.0303 C14.6345,1.0283 14.6285,1.0273 14.6245,1.0243 C14.3865,0.8883 14.1335,0.7793 13.8635,0.6923 C13.8555,0.6893 13.8465,0.6863 13.8365,0.6833 C13.7825,0.6663 13.7305,0.6453 13.6745,0.6303 C13.5525,0.5973 13.4285,0.5913 13.3055,0.5693 C13.1685,0.5433 13.0345,0.5133 12.8955,0.5003 C12.7475,0.4863 12.6015,0.4903 12.4535,0.4903 C12.3055,0.4903 12.1605,0.4863 12.0115,0.5003 C11.8725,0.5133 11.7385,0.5433 11.6025,0.5693 C11.4795,0.5913 11.3545,0.5973 11.2325,0.6303 C11.1765,0.6453 11.1245,0.6663 11.0695,0.6833 C11.0615,0.6863 11.0525,0.6893 11.0425,0.6923 C10.7725,0.7793 10.5205,0.8883 10.2825,1.0243 C10.2775,1.0273 10.2725,1.0283 10.2675,1.0303 C10.2585,1.0353 10.2505,1.0433 10.2415,1.0493 C9.5445,1.4583 8.9615,2.0933 8.3715,3.0753 L5.6085,7.8373 L5.4115,7.9513 L5.4115,8.1783 L0.8375,16.0623 C0.5425,16.6253 0.5075,16.6963 0.4545,16.8023 L0.3415,17.0403 C0.1435,17.5683 0.0005,17.9493 0.0005,18.6193 C0.0005,20.3403 1.1965,22.1573 3.4285,22.6443 C3.7955,22.7243 4.1895,22.7683 4.6125,22.7703 L4.5835,21.7763 C4.2135,21.7763 3.4615,21.5843 3.4615,21.5843 C1.8655,21.1583 1.0385,19.8813 1.0385,18.6193 C1.0385,18.1373 1.1295,17.8933 1.2995,17.4323 L1.3835,17.2653 C1.4345,17.1623 1.4695,17.0923 1.7465,16.5623 L5.4115,10.2243 L5.4105,15.6423 L12.7965,19.7633 L19.3115,16.0033 L19.3345,9.9443 L23.1605,16.5623 C23.4375,17.0923 23.4725,17.1623 23.5235,17.2653 L23.6075,17.4323 C23.7775,17.8933 23.8695,18.1373 23.8695,18.6193 C23.8695,19.8813 23.0415,21.1583 21.4445,21.5843 C21.4445,21.5843 20.6935,21.7763 20.3235,21.7763 L20.2945,22.7703 C20.7165,22.7683 21.1115,22.7243 21.4785,22.6443 C23.7105,22.1573 24.9065,20.3403 24.9065,18.6193 C24.9065,17.9493 24.7635,17.5683 24.5655,17.0403 L24.5655,17.0403 Z" id="Fill-11" fill="#D0D2D3" mask="url(#mask-4)"></path>
                </g>
            </g>
            <g id="Group-3-Copy-5" transform="translate(653.000000, 730.000000)">
                <mask id="mask-6" fill="white">
                    <use xlink:href="#path-5"></use>
                </mask>
                <g id="Clip-2"></g>
                <path d="M15.9744359,10.8649716 L15.9744359,10.8658582 C16.3832714,11.5396621 16.5569361,12.0077785 16.3697039,12.6877886 C16.0685042,13.6639177 15.2743502,14.1967548 13.9935733,14.273001 C13.6281539,14.3075778 13.6914691,14.2871864 13.4418261,14.2995985 L10.8875083,14.3004851 C8.15319433,14.3023807 4.40583643,14.3040315 3.71660478,14.2995985 C3.46605732,14.2978254 3.37379796,14.2960522 3.33671332,14.2951656 C3.31410073,14.2916193 3.26887556,14.2880729 3.17390269,14.2854132 C1.55755498,14.2792071 0.710939732,13.2286049 0.710939732,12.1939612 C0.710939732,11.8694714 0.774254975,11.7054534 0.890935923,11.3960355 L0.947919642,11.2843259 C0.983195278,11.2151723 1.00761687,11.1681834 1.1966581,10.8117766 L5.67937732,3.21109077 L6.34780539,2.10729353 C6.90678854,1.19677162 7.35180425,0.92370371 7.88455679,0.78007708 C8.50414167,0.619605352 9.1608112,0.693191835 9.6827097,0.983104847 C10.015567,1.16751435 10.3656098,1.53633335 10.6279158,1.980512 L10.680377,2.05941798 C10.7319337,2.13300447 10.7816814,2.20836412 11.0385604,2.6454501 L12.0181377,4.2767649 C10.0616967,4.81846781 8.41640484,5.66870199 7.30657907,6.74058221 C5.21084452,8.76554037 4.7368847,12.1780027 4.83457107,13.514085 L4.87889175,14.1098695 L5.36913263,13.4600034 C5.45506046,13.3438608 5.53917928,13.2312647 5.62782062,13.1213282 C7.62315529,10.6725828 9.87536894,8.44371033 12.875607,8.69284047 C13.0347996,8.69815998 13.1406265,8.70436607 13.2120823,8.71057216 C13.2111778,9.08737041 13.2084642,9.47303451 13.2066552,9.82146208 L13.2030372,10.6557377 C13.2030372,10.9580629 13.2120823,11.2719137 13.2193183,11.480261 C13.2220318,11.580445 13.2238408,11.6549181 13.2238408,11.691268 L13.2238408,12.3234025 L13.6272494,11.8295751 C13.7195087,11.7160924 13.8606113,11.580445 14.0243264,11.4199733 L14.1319623,11.3153563 C14.576978,10.8809301 15.0147577,10.4394112 15.4552509,9.99966549 L15.9744359,10.8649716 Z M18.8001047,6.03929416 C18.7232219,5.97989302 18.6454346,5.92049189 18.5766924,5.85311149 L14.433162,1.7961025 C14.1753785,1.54342602 13.6209178,1.00615603 13.531372,0.925476878 L13.2419309,0.637337034 L13.2419309,3.98241897 C13.0700752,4.01699575 12.9036466,4.05866521 12.7354089,4.09678832 L11.6536228,2.29436278 C11.3804627,1.82979269 11.325288,1.75000012 11.2710178,1.67109413 L11.2357422,1.61878567 C10.9155479,1.07708276 10.4786728,0.624038272 10.0336571,0.376681299 C9.34985242,-0.00277671003 8.49961916,-0.101187549 7.69913358,0.107159723 C6.88779396,0.326146004 6.31976578,0.801355099 5.73817005,1.75000012 L0.574359707,10.4757612 C0.371750928,10.853446 0.348233838,10.9022081 0.312053699,10.9731349 L0.2342664,11.13272 C0.0985908788,11.4873537 0,11.7435765 0,12.1939612 C0,13.5397959 1.11073027,14.9742891 3.16123965,14.9822683 C3.20465581,14.9840415 3.2263639,14.9840415 3.21370085,14.9813817 C3.26435304,14.9920207 3.27430258,14.9929073 3.71027326,14.9964537 C4.03137199,14.9991134 5.00823574,15 6.23655146,15 C7.65933543,15 9.41949919,14.9991134 10.8884128,14.9982268 L13.4599162,14.9964537 C13.7665429,14.9822683 13.6815196,15.0026598 14.048748,14.9671964 C15.6234885,14.8749916 16.660954,14.1559719 17.052604,12.8784042 C17.3320956,11.8632653 16.9757212,11.1522249 16.5867847,10.5103379 L15.9717224,9.48633327 C16.127297,9.33029447 16.2846806,9.17602883 16.4411597,9.01910343 C17.2678758,8.19103385 18.094592,7.36207769 18.9330667,6.54464712 L19,6.47992648 L19,6.19799272 L18.8001047,6.03929416 Z" id="Fill-1" fill="#E7E8E8" mask="url(#mask-6)"></path>
            </g>
        </g>
    </g>
</svg>