<?xml version="1.0" encoding="UTF-8"?>
<svg width="68px" height="18px" viewBox="0 0 68 18" version="1.1" xmlns="http://www.w3.org/2000/svg" xmlns:xlink="http://www.w3.org/1999/xlink">
    <!-- Generator: Sketch 61.2 (89653) - https://sketch.com -->
    <title>Page 1</title>
    <desc>Created with Sketch.</desc>
    <defs>
        <polygon id="path-1" points="0.000483762598 0.0744284291 14.9245599 0.0744284291 14.9245599 14.8620658 0.000483762598 14.8620658"></polygon>
        <polygon id="path-3" points="0.000419260918 0.0645046385 12.9346186 0.0645046385 12.9346186 12.880457 0.000419260918 12.880457"></polygon>
        <polygon id="path-5" points="3.07327819 3.09622789 17.88065 3.09622789 17.88065 17.9037007 3.07327819 17.9037007"></polygon>
    </defs>
    <g id="Page-1" stroke="none" stroke-width="1" fill="none" fill-rule="evenodd">
        <g id="Customer-Portal---Design-Suite" transform="translate(-718.000000, -719.000000)">
            <polygon id="Fill-1" fill="#E9E9E9" points="333 1024 1445 1024 1445 0 333 0"></polygon>
            <path d="M1149.73363,130.931105 L787.911344,764.653125 C725.653323,873.694402 803.479807,1010 927.99057,1010 L1635.00838,1010 C1759.52706,1010 1837.34562,873.694402 1775.0876,764.653125 L1413.26795,130.931105 C1354.70741,28.3562983 1208.29682,28.3562983 1149.73363,130.931105" id="Fill-1" fill="#F3F3F4"></path>
            <rect id="Rectangle-Copy-7" fill="#FFFFFF" x="368" y="564" width="501" height="418" rx="26"></rect>
            <path d="M732.292893,734.166667 L728.833333,730.707107 L728.707107,730.833333 L732.166667,734.292893 L732.292893,734.166667 Z" id="Rectangle" stroke="#C6C4C3" fill="#D8D8D8"></path>
            <g id="Group-6-Copy" transform="translate(751.500000, 727.500000) rotate(180.000000) translate(-751.500000, -727.500000) translate(744.000000, 720.000000)">
                <g id="Group-3" transform="translate(0.000000, -0.000000)">
                    <mask id="mask-2" fill="white">
                        <use xlink:href="#path-1"></use>
                    </mask>
                    <g id="Clip-2"></g>
                    <path d="M7.46252184,13.6965086 C3.99636282,13.6965086 1.17683315,10.9028462 1.17683315,7.46848676 C1.17683315,4.03412737 3.99636282,1.24046494 7.46252184,1.24046494 C10.9286809,1.24046494 13.7482105,4.03412737 13.7482105,7.46848676 C13.7482105,10.9028462 10.9286809,13.6965086 7.46252184,13.6965086 M7.46252184,0.0741088795 C3.34731467,0.0741088795 0.000483762598,3.39183266 0.000483762598,7.46848676 C0.000483762598,11.5451409 3.34731467,14.8620658 7.46252184,14.8620658 C11.577729,14.8620658 14.9245599,11.5451409 14.9245599,7.46848676 C14.9245599,3.39183266 11.577729,0.0741088795 7.46252184,0.0741088795" id="Fill-1" fill="#C6C4C3" mask="url(#mask-2)"></path>
                </g>
                <polygon id="Fill-4" fill="#C6C4C3" points="7.29613979 4 5 6.29225653 5.64184559 6.93301663 7.04888077 5.52779097 7.04888077 6.90770977 7.04888077 10.9344233 7.97967108 10.9344233 7.97967108 5.55572447 9.35872545 6.93301663 10 6.29225653 7.70386021 4"></polygon>
            </g>
            <g id="Group-6-Copy-3" transform="translate(724.500000, 726.500000) rotate(180.000000) translate(-724.500000, -726.500000) translate(718.000000, 720.000000)">
                <g id="Group-3" transform="translate(0.000000, -0.000000)">
                    <mask id="mask-4" fill="white">
                        <use xlink:href="#path-3"></use>
                    </mask>
                    <g id="Clip-2"></g>
                    <path d="M6.46751892,11.8703074 C3.46351445,11.8703074 1.01992206,9.44913333 1.01992206,6.47268853 C1.01992206,3.49624372 3.46351445,1.07506962 6.46751892,1.07506962 C9.4715234,1.07506962 11.9151158,3.49624372 11.9151158,6.47268853 C11.9151158,9.44913333 9.4715234,11.8703074 6.46751892,11.8703074 M6.46751892,0.0642276955 C2.90100605,0.0642276955 0.000419260918,2.93958831 0.000419260918,6.47268853 C0.000419260918,10.0057887 2.90100605,12.880457 6.46751892,12.880457 C10.0340318,12.880457 12.9346186,10.0057887 12.9346186,6.47268853 C12.9346186,2.93958831 10.0340318,0.0642276955 6.46751892,0.0642276955" id="Fill-1" fill="#C6C4C3" mask="url(#mask-4)"></path>
                </g>
            </g>
            <rect id="Rectangle" stroke="#D6D6D6" x="709.5" y="716.5" width="86" height="22" rx="11"></rect>
            <g id="Group-3" transform="translate(768.000000, 717.000000)">
                <mask id="mask-6" fill="white">
                    <use xlink:href="#path-5"></use>
                </mask>
                <g id="Clip-2" transform="translate(10.476964, 10.499964) rotate(45.000000) translate(-10.476964, -10.499964) "></g>
                <path d="M16.7294263,10.5172125 C16.7357141,7.06786153 13.9363034,4.25317944 10.4938547,4.24764916 C7.04286452,4.24204944 4.23051196,7.03895804 4.22463604,10.482442 C4.21886428,13.9326557 7.01680824,16.7465613 10.4590843,16.7523509 C13.9083489,16.7581227 16.723031,13.9592297 16.7294263,10.5172125 M3.07330261,10.4760573 C3.08576126,6.36485967 6.40785056,3.07322688 10.5213778,3.09622859 C14.6141117,3.11938618 17.8960813,6.43138083 17.8806916,10.5228206 C17.8651934,14.618488 14.5670034,17.9054618 10.4745282,17.9037369 C6.36272661,17.9019243 3.06099917,14.5884629 3.07330261,10.4760573" id="Fill-1" fill="#C6C4C3" mask="url(#mask-6)" transform="translate(10.477007, 10.499923) rotate(45.000000) translate(-10.477007, -10.499923) "></path>
            </g>
            <polygon id="Fill-4" fill="#C6C4C3" points="776 729.166667 776.833333 730 781 725.833333 780.166667 725"></polygon>
            <polygon id="Fill-6" fill="#C6C4C3" points="776 725.833333 780.166667 730 781 729.166667 776.833333 725"></polygon>
            <line x1="737.5" y1="720.296296" x2="737.5" y2="735.703704" id="Line-2" stroke="#D6D6D6" stroke-linecap="square"></line>
            <line x1="766" y1="720.296296" x2="766" y2="735.703704" id="Line-2-Copy-2" stroke="#D6D6D6" stroke-linecap="square"></line>
        </g>
    </g>
</svg>