<?xml version="1.0" encoding="UTF-8"?>
<svg width="26px" height="35px" viewBox="0 0 26 35" version="1.1" xmlns="http://www.w3.org/2000/svg" xmlns:xlink="http://www.w3.org/1999/xlink">
    <!-- Generator: Sketch 61.2 (89653) - https://sketch.com -->
    <title>Orders Icon Dark</title>
    <desc>Created with Sketch.</desc>
    <g id="Page-1" stroke="none" stroke-width="1" fill="none" fill-rule="evenodd">
        <g id="Tearsheet" transform="translate(-556.000000, -48.000000)" fill="#C6C5C4">
            <g id="Orders-Icon-Dark" transform="translate(555.625000, 48.000000)">
                <g>
                    <path d="M26,2.17 C26.0500719,1.59293519 25.8475022,1.02250485 25.4446911,0.606266704 C25.04188,0.190028555 24.478396,-0.0311299532 23.9,-8.87311058e-16 L7,-8.87311058e-16 C6.35782506,-0.0235701372 5.73598066,0.227349534 5.29,0.69 C4.14,1.85 3,3 1.82,4.14 C1.27047537,4.65683383 0.971452954,5.38615678 1,6.14 C1,14.14 1,16.77 1,24.79 L1,24.79 L1,32.61 C0.940282455,33.2231048 1.15807508,33.8307605 1.59365728,34.2663427 C2.02923948,34.7019249 2.63689518,34.9197175 3.25,34.86 L23.79,34.86 C24.4022537,34.9084419 25.0041911,34.6811729 25.4316503,34.2401742 C25.8591095,33.7991755 26.0675041,33.1904461 26,32.58 C26,27.58 26,22.49 26,17.45 C26,12.41 26.05,7.26 26,2.17 Z M3.37,4.35 L6,1.75 C6,2.43 6,4.14 6,4.58 L3.16,4.58 L3.37,4.35 Z M24.81,32.6 C24.81,33.32 24.51,33.6 23.81,33.6 L3.29,33.6 C2.56,33.6 2.29,33.3 2.29,32.6 L2.29,23.92 L2.29,23.92 L2.29,5.84 L5.83,5.84 C6.20033808,5.87863119 6.56824162,5.74742311 6.83055773,5.48316392 C7.09287384,5.21890473 7.22136322,4.8500429 7.18,4.48 C7.18,4.08 7.18,1.92 7.18,1.21 L23.81,1.21 C24.5,1.21 24.81,1.51 24.81,2.21 L24.81,32.6 Z" id="Shape" fill-rule="nonzero"></path>
                    <path d="M8.9,8.15 L8.79,8 C8.68760501,7.81231848 8.53533341,7.65658617 8.35,7.55 C8.09009895,7.39826438 7.77972515,7.35856541 7.49,7.44 C7.18836118,7.52498096 6.93291556,7.7264592 6.78,8 L5.44,10.3 L5.34,10.52 C5.28746347,10.6433241 5.26025773,10.775952 5.26,10.91 C5.26240774,11.208872 5.38632825,11.4938975 5.60325266,11.6995041 C5.82017706,11.9051107 6.11142765,12.0135952 6.41,12 L9.24,12 C9.7405578,12.0016781 10.1814548,11.6710054 10.32,11.19 C10.408132,10.887833 10.3488544,10.5618058 10.16,10.31 L8.9,8.15 Z M9.48,11 C9.48,11.05 9.43,11.15 9.18,11.17 L6.42,11.17 C6.19,11.17 6.13,11.04 6.13,10.96 C6.13,10.88 6.13,10.96 6.13,10.88 L7.53,8.45 C7.63,8.28 7.68,8.26 7.72,8.25 C7.78495438,8.22863158 7.85504562,8.22863158 7.92,8.25 C7.97632687,8.30182003 8.02363951,8.36265056 8.06,8.43 L8.14,8.56 L9.41,10.72 L9.41,10.72 C9.5,10.88 9.49,10.91 9.48,11 Z" id="Shape" fill-rule="nonzero"></path>
                    <rect id="Rectangle" fill-rule="nonzero" x="11.59" y="8.65" width="10.82" height="1"></rect>
                    <rect id="Rectangle" fill-rule="nonzero" x="11.59" y="10.73" width="10.82" height="1"></rect>
                    <path d="M8.9,15.75 C8.87058835,15.6889554 8.833633,15.6318426 8.79,15.58 C8.6858593,15.390992 8.53419527,15.2324341 8.35,15.12 C8.08698212,14.9769263 7.7788294,14.9410946 7.49,15.02 C7.18303236,15.1120898 6.9267259,15.3250769 6.78,15.61 L5.44,17.91 L5.34,18.13 C5.28746347,18.2533241 5.26025773,18.385952 5.25999998,18.52 C5.25999998,18.8072811 5.37542291,19.0825152 5.58043345,19.2837641 C5.78544399,19.4850129 6.06276908,19.5953697 6.35,19.59 L9.24,19.59 C9.73777994,19.5929696 10.1777835,19.267041 10.32,18.79 C10.408132,18.487833 10.3488544,18.1618058 10.16,17.91 L8.9,15.75 Z M9.48,18.55 C9.48,18.61 9.43,18.71 9.18,18.72 L6.42,18.72 C6.19,18.72 6.13,18.59 6.13,18.51 C6.13,18.43 6.13,18.51 6.13,18.43 L7.51,16.04 C7.61,15.87 7.66,15.86 7.7,15.85 C7.764,15.8233333 7.836,15.8233333 7.9,15.85 C7.95745893,15.8968415 8.00504563,15.9546253 8.04,16.02 L8.12,16.16 L9.39,18.32 L9.39,18.32 C9.5,18.49 9.49,18.51 9.48,18.55 Z" id="Shape" fill-rule="nonzero"></path>
                    <path d="M8.9,23.28 L8.79,23.1 C8.68240472,22.9162256 8.53131042,22.7616974 8.35,22.65 C8.08972594,22.4993545 7.77980924,22.459724 7.49,22.54 C7.18303236,22.6320898 6.9267259,22.8450769 6.78,23.13 L5.44,25.44 L5.34,25.65 C5.28613295,25.7764203 5.25889977,25.9125862 5.25996795,26.05 C5.26261863,26.3355432 5.3792651,26.6081935 5.58398064,26.8072746 C5.78869618,27.0063558 6.06449493,27.1153495 6.35,27.11 L6.35,27.11 C6.35,27.11 6.35,27.11 6.54,27.11 L9.24,27.11 C9.73777994,27.1129696 10.1777835,26.787041 10.32,26.31 C10.4036883,26.0043883 10.3448909,25.6773278 10.16,25.42 L8.9,23.28 Z M9.48,26.08 C9.48,26.13 9.43,26.23 9.18,26.25 L6.42,26.25 C6.19,26.25 6.13,26.12 6.13,26.05 C6.12496479,26.0202113 6.12496479,25.9897887 6.13,25.96 L7.51,23.58 C7.61,23.41 7.66,23.4 7.7,23.38 C7.76495438,23.3586316 7.83504562,23.3586316 7.9,23.38 C7.95632687,23.43182 8.00363951,23.4926506 8.04,23.56 L8.12,23.7 L9.39,25.85 L9.39,25.85 C9.5,26 9.49,26 9.48,26.08 L9.48,26.08 Z" id="Shape" fill-rule="nonzero"></path>
                    <rect id="Rectangle" fill-rule="nonzero" x="11.59" y="16.26" width="10.82" height="1"></rect>
                    <rect id="Rectangle" fill-rule="nonzero" x="11.59" y="18.33" width="10.82" height="1"></rect>
                    <rect id="Rectangle" fill-rule="nonzero" x="11.59" y="23.86" width="10.82" height="1"></rect>
                    <rect id="Rectangle" fill-rule="nonzero" x="11.59" y="25.94" width="10.82" height="1"></rect>
                </g>
            </g>
        </g>
    </g>
</svg>