<?xml version="1.0" encoding="UTF-8"?>
<svg width="309px" height="819px" viewBox="0 0 309 819" version="1.1" xmlns="http://www.w3.org/2000/svg" xmlns:xlink="http://www.w3.org/1999/xlink">
    <!-- Generator: Sketch 61.2 (89653) - https://sketch.com -->
    <title>Group 2</title>
    <desc>Created with Sketch.</desc>
    <defs>
        <polygon id="path-1" points="0.392375 0.2475 4.767375 0.2475 4.767375 8.5551 0.392375 8.5551"></polygon>
        <polygon id="path-3" points="0.0544 0.2475 4.8669 0.2475 4.8669 8.5551 0.0544 8.5551"></polygon>
        <polygon id="path-5" points="0 0.18041875 6.8674776 0.18041875 6.8674776 4.99291875 0 4.99291875"></polygon>
        <polygon id="path-7" points="0 0.31375 6.8674776 0.31375 6.8674776 4.68875 0 4.68875"></polygon>
        <polygon id="path-9" points="0.392375 0.2475 4.767375 0.2475 4.767375 8.5551 0.392375 8.5551"></polygon>
        <polygon id="path-11" points="0.0544 0.2475 4.8669 0.2475 4.8669 8.5551 0.0544 8.5551"></polygon>
        <polygon id="path-13" points="0 0.18041875 6.8674776 0.18041875 6.8674776 4.99291875 0 4.99291875"></polygon>
        <polygon id="path-15" points="0 0.31375 6.8674776 0.31375 6.8674776 4.68875 0 4.68875"></polygon>
        <linearGradient x1="50%" y1="0%" x2="50%" y2="83.8805638%" id="linearGradient-17">
            <stop stop-color="#7EE5DD" offset="0%"></stop>
            <stop stop-color="#4BC9BA" offset="100%"></stop>
        </linearGradient>
        <polygon id="path-18" points="0 0.361947225 22.2782059 0.361947225 22.2782059 50.9820891 0 50.9820891"></polygon>
        <polygon id="path-20" points="0 0.354850221 22.2782059 0.354850221 22.2782059 49.9824403 0 49.9824403"></polygon>
        <polygon id="path-22" points="0 0.354850221 22.2782059 0.354850221 22.2782059 49.9824403 0 49.9824403"></polygon>
        <polygon id="path-24" points="0.000568421053 0.669157895 26.3051053 0.669157895 26.3051053 25.9994526 0.000568421053 25.9994526"></polygon>
        <polygon id="path-26" points="0.000568421053 0.669157895 26.3051053 0.669157895 26.3051053 25.9994526 0.000568421053 25.9994526"></polygon>
        <polygon id="path-28" points="0.000568421053 0.669157895 26.3051053 0.669157895 26.3051053 25.9994526 0.000568421053 25.9994526"></polygon>
        <linearGradient x1="100%" y1="50%" x2="0%" y2="50%" id="linearGradient-30">
            <stop stop-color="#D0CFCF" offset="0%"></stop>
            <stop stop-color="#A3A2A2" offset="100%"></stop>
        </linearGradient>
        <polygon id="path-31" points="0 0 44 0 44 38 0 38"></polygon>
        <polygon id="path-33" points="0 53.7077922 21.56275 53.7077922 21.56275 0.409792208 0 0.409792208"></polygon>
        <polygon id="path-35" points="0.000568421053 0.669157895 26.3051053 0.669157895 26.3051053 25.9994526 0.000568421053 25.9994526"></polygon>
    </defs>
    <g id="Page-1" stroke="none" stroke-width="1" fill="none" fill-rule="evenodd">
        <g id="Customer-Portal---Design-Suite-builder" transform="translate(-1076.000000, -136.000000)">
            <g id="Group-2" transform="translate(1076.000000, 136.000000)">
                <rect id="Rectangle" stroke="#979797" x="0.5" y="0.5" width="308" height="285"></rect>
                <g id="Group-25" transform="translate(42.000000, 20.000000)">
                    <path d="M51.7198376,69.0632228 L51.7198376,22.9432481 C51.7198376,21.4262073 50.5019999,20.1942155 49.0023879,20.1942155 C47.4980001,20.1942155 46.2801624,21.4262073 46.2801624,22.9432481 L46.2801624,69.0632228 C46.2801624,70.5802636 47.4980001,71.8122554 49.0023879,71.8122554 C50.5019999,71.8122554 51.7198376,70.5802636 51.7198376,69.0632228 L51.7198376,69.0632228 Z M9,230 L89,230 L89,9 L9,9 L9,230 Z" id="Fill-1" fill="#FEFEFE"></path>
                    <path d="M51.7198376,69.0632228 L51.7198376,22.9432481 C51.7198376,21.4262073 50.5019999,20.1942155 49.0023879,20.1942155 C47.4980001,20.1942155 46.2801624,21.4262073 46.2801624,22.9432481 L46.2801624,69.0632228 C46.2801624,70.5802636 47.4980001,71.8122554 49.0023879,71.8122554 C50.5019999,71.8122554 51.7198376,70.5802636 51.7198376,69.0632228 Z M9,230 L89,230 L89,9 L9,9 L9,230 Z" id="Stroke-3" stroke="#231F20" stroke-width="0.1"></path>
                    <g id="Group-7" transform="translate(7.000000, -1.000000)">
                        <mask id="mask-2" fill="white">
                            <use xlink:href="#path-1"></use>
                        </mask>
                        <g id="Clip-6"></g>
                        <line x1="2.579875" y1="8.5551" x2="2.579875" y2="0.24435" id="Stroke-5" stroke="#231F20" stroke-width="0.1" mask="url(#mask-2)"></line>
                    </g>
                    <g id="Group-10" transform="translate(87.000000, -1.000000)">
                        <mask id="mask-4" fill="white">
                            <use xlink:href="#path-3"></use>
                        </mask>
                        <g id="Clip-9"></g>
                        <line x1="2.46065" y1="8.5551" x2="2.46065" y2="0.24435" id="Stroke-8" stroke="#231F20" stroke-width="0.1" mask="url(#mask-4)"></line>
                    </g>
                    <line x1="9.5" y1="239" x2="9.5" y2="232" id="Stroke-11" stroke="#231F20" stroke-width="0.1"></line>
                    <line x1="89.5" y1="239" x2="89.5" y2="232" id="Stroke-13" stroke="#231F20" stroke-width="0.1"></line>
                    <line x1="91" y1="230.5" x2="98" y2="230.5" id="Stroke-15" stroke="#231F20" stroke-width="0.1"></line>
                    <g id="Group-19" transform="translate(1.000000, 228.000000)">
                        <mask id="mask-6" fill="white">
                            <use xlink:href="#path-5"></use>
                        </mask>
                        <g id="Clip-18"></g>
                        <line x1="-0.000433854167" y1="2.58666875" x2="6.8674776" y2="2.58666875" id="Stroke-17" stroke="#231F20" stroke-width="0.1" mask="url(#mask-6)"></line>
                    </g>
                    <line x1="91" y1="9.5" x2="98" y2="9.5" id="Stroke-20" stroke="#231F20" stroke-width="0.1"></line>
                    <g id="Group-24" transform="translate(1.000000, 7.000000)">
                        <mask id="mask-8" fill="white">
                            <use xlink:href="#path-7"></use>
                        </mask>
                        <g id="Clip-23"></g>
                        <line x1="-0.000433854167" y1="2.50125" x2="6.8674776" y2="2.50125" id="Stroke-22" stroke="#231F20" stroke-width="0.1" mask="url(#mask-8)"></line>
                    </g>
                </g>
                <rect id="Rectangle" stroke="#979797" x="25.5" y="83.5" width="131" height="121"></rect>
                <g id="Group-9" transform="translate(76.000000, 139.000000)" fill="#231F20">
                    <path d="M17.5414587,3.26847129 C17.811383,3.26847129 18.0694735,3.28286984 18.3241829,3.26559157 C18.9587023,3.22239592 19.4675576,2.82269212 19.6332314,2.20701004 C19.7910159,1.62127695 19.7019804,1.07413197 19.2444051,0.6433273 C19.0004025,0.412950469 18.7090646,0.273572486 18.3641926,0.278180023 C18.0452423,0.281635675 17.7257285,0.281635675 17.4067783,0.277028139 C17.3211238,0.275300313 17.3036548,0.304673359 17.3036548,0.385881191 C17.3059089,2.36424222 17.3053454,4.34202732 17.3036548,6.32096429 C17.3036548,6.39698865 17.329013,6.44594372 17.3870552,6.48971532 C17.5803413,6.63773243 17.8068749,6.67689649 18.0384801,6.69993418 C18.0655289,6.70223795 18.0925777,6.70281389 18.1252616,6.70511766 L18.1252616,6.96889913 L15.0180325,6.96889913 L15.0180325,6.65846635 C15.0907261,6.65846635 15.1622927,6.6550107 15.2332958,6.65904229 C15.481243,6.6728649 15.6564965,6.52830344 15.8278055,6.37740662 C15.8486556,6.35897647 15.8542908,6.31347704 15.8542908,6.28064835 C15.8559813,4.4088366 15.8559813,2.53644891 15.8548543,0.664637156 C15.8548543,0.469392792 15.7325712,0.350748725 15.4925133,0.321375679 C15.3319111,0.301793648 15.1696184,0.297762054 15,0.28566727 L15,0.000575942077 L15.1239736,0.000575942077 C16.4871196,0.000575942077 17.8502657,0.00115188415 19.2134117,0 C19.6399936,0 20.0130414,0.153200592 20.3410079,0.41870989 C20.8521172,0.832236301 20.9969409,1.39493171 20.9276284,2.02904394 C20.8492996,2.74148429 20.4514571,3.21606056 19.8287715,3.5069113 C19.6630977,3.58466349 19.4850266,3.63361856 19.3063919,3.69812407 C19.4731927,3.92389337 19.6422476,4.15599803 19.8146836,4.38522297 C20.2964901,5.02394273 20.7867493,5.65575119 21.2584125,6.30253415 C21.4483175,6.56285996 21.6827403,6.6947507 22,6.69763041 L22,6.99193681 C21.9752053,6.99424058 21.94872,6.99884812 21.9216712,6.99884812 C21.2353083,6.99942406 20.5483819,6.99827217 19.8614555,7 C19.8028498,7 19.7679118,6.9821458 19.7369184,6.93031101 C19.0122364,5.72716801 18.2864273,4.52460095 17.5611818,3.32145796 C17.5555466,3.31281883 17.5538561,3.30245187 17.5414587,3.26847129" id="Fill-1"></path>
                    <path d="M6,7 L1,7 C2.1268414,4.7765043 3.24842166,2.56446991 4.37669791,0.338681948 C4.34034819,0.335243553 4.31595562,0.331232092 4.29204132,0.331232092 C3.53826287,0.330659026 2.78400612,0.328939828 2.03070595,0.334670487 C1.97331165,0.335243553 1.90300363,0.371346705 1.86139277,0.418911175 C1.69590587,0.609169054 1.64951215,0.863037249 1.62368471,1.12722063 L1.3945858,1.12722063 L1.3945858,0 L5.97752057,0 C4.85928831,2.2286533 3.74679548,4.44584527 2.62425866,6.68194842 L2.73474268,6.68194842 C3.53587144,6.68194842 4.33652191,6.67449857 5.13717237,6.68653295 C5.38731586,6.69054441 5.55088961,6.56446991 5.66711307,6.31977077 C5.71159365,6.22578797 5.75081309,6.1277937 5.78859767,6.0286533 C5.84790511,5.87335244 5.84647025,5.8722063 6,5.88309456 L6,7 Z" id="Fill-3"></path>
                    <path d="M11.5317466,4.66570676 C11.0659788,3.83750206 10.6092491,3.02599967 10.1428787,2.19779496 C9.72651955,3.03060721 9.31980116,3.84326148 8.90826241,4.66570676 L11.5317466,4.66570676 Z M10.8207426,0 C10.9695714,0.289122922 11.1111697,0.560967583 11.2509603,0.833388185 C11.6100776,1.52970216 11.9661821,2.22831989 12.3277096,2.92348198 C12.7506967,3.73498437 13.176094,4.54591081 13.6069142,5.35395754 C13.7912932,5.69952279 13.9949537,6.03587296 14.182948,6.38028633 C14.2986367,6.59050518 14.4950667,6.66940925 14.7198162,6.70857331 C14.8095955,6.7235478 14.9023876,6.72700346 15,6.73679447 L15,6.99654435 L11.7119078,6.99654435 C11.7119078,6.91706434 11.7028696,6.83585651 11.7167282,6.75752839 C11.720946,6.72988317 11.7781878,6.70108606 11.8167508,6.69014316 C11.9396701,6.65443475 12.0692174,6.63658055 12.189124,6.59338489 C12.3319274,6.54097416 12.3463885,6.49144315 12.2831212,6.35724864 C12.0734353,5.90571005 11.8637493,5.45532335 11.6492431,5.00666447 C11.634782,4.97498766 11.5823605,4.93985519 11.5474128,4.93985519 C10.6682986,4.9358236 9.7891843,4.93755142 8.91007005,4.93467171 C8.8449951,4.93467171 8.82089327,4.96346882 8.79799654,5.01184795 C8.60759208,5.40521639 8.41537998,5.79858483 8.22557807,6.19137732 C8.18339986,6.27776864 8.13941402,6.36300806 8.10808164,6.45343097 C8.06951872,6.56401185 8.09482564,6.62390982 8.20991188,6.66019417 C8.34006176,6.69993418 8.47744219,6.71836432 8.62145063,6.74831331 L8.62145063,7 L7,7 L7,6.74831331 C7.15545681,6.71951621 7.30790088,6.69647853 7.45672968,6.66307389 C7.6109814,6.62736548 7.717632,6.54615764 7.78812985,6.3964127 C8.53950441,4.80162909 9.29810951,3.21030114 10.0543044,1.61724535 C10.3073737,1.08449893 10.5598403,0.551176567 10.8207426,0 L10.8207426,0 Z" id="Fill-5"></path>
                    <path d="M26.1461081,2.18908671 C25.7277522,3.02687108 25.3220556,3.83869106 24.9133449,4.65628091 L27.5331927,4.65628091 C27.0702283,3.83407517 26.6144978,3.02283218 26.1461081,2.18908671 M24.6342401,6.74208704 L24.6342401,7 L23,7 L23,6.75189581 C23.1748173,6.71612265 23.3478261,6.68496538 23.5178208,6.64284537 C23.636576,6.61284207 23.7209705,6.54244972 23.7746214,6.42878338 C24.1568081,5.62100231 24.5468314,4.81726014 24.9278125,4.00947906 C25.5559491,2.68125618 26.1798659,1.35014837 26.806194,0.0201945269 C26.8086052,0.0144246621 26.8164419,0.0115397296 26.8303067,0 C26.9171125,0.16732608 27.0039183,0.332344214 27.0883129,0.497939334 C27.3800769,1.06569403 27.6682239,1.63517969 27.9623992,2.20178042 C28.4127044,3.07129904 28.8612011,3.94197165 29.3205486,4.80745137 C29.6002562,5.33712496 29.9004596,5.85756677 30.1898124,6.38262446 C30.3043478,6.59091658 30.502675,6.67284866 30.7293346,6.70862183 C30.8161405,6.72189252 30.9047547,6.72593142 31,6.73574019 L31,6.99942301 L27.7212719,6.99942301 L27.7212719,6.71150676 C27.8177229,6.69073525 27.9208048,6.66996373 28.0238867,6.64630729 C28.0666868,6.63649852 28.108884,6.62380481 28.1498757,6.60822618 C28.3373521,6.5389878 28.3548338,6.50436861 28.274659,6.33069568 C28.0739206,5.8944939 27.8689624,5.45944609 27.6694296,5.02266733 C27.6386859,4.95515991 27.5976942,4.93092648 27.518725,4.93092648 C26.6585035,4.93381141 25.7976792,4.93438839 24.936252,4.93092648 C24.8542687,4.93034949 24.8199081,4.96150676 24.7885615,5.02670623 C24.5769723,5.46636993 24.3629719,5.90430267 24.1489714,6.34338938 C24.140532,6.36242994 24.1326954,6.38262446 24.1248587,6.402242 C24.0669882,6.5603363 24.0917037,6.62842071 24.2556703,6.67746456 C24.372617,6.71266073 24.498606,6.72016156 24.6342401,6.74208704" id="Fill-7"></path>
                </g>
                <g id="Group-25-Copy" transform="translate(185.000000, 21.000000)">
                    <path d="M51.1858397,68.5196642 L51.1858397,22.8170649 C51.1858397,21.3137529 49.9832249,20.0929104 48.5023581,20.0929104 C47.0167751,20.0929104 45.8141603,21.3137529 45.8141603,22.8170649 L45.8141603,68.5196642 C45.8141603,70.0229762 47.0167751,71.2438187 48.5023581,71.2438187 C49.9832249,71.2438187 51.1858397,70.0229762 51.1858397,68.5196642 L51.1858397,68.5196642 Z M9,228 L88,228 L88,9 L9,9 L9,228 Z" id="Fill-1" fill="#FEFEFE"></path>
                    <path d="M51.1858397,68.5196642 L51.1858397,22.8170649 C51.1858397,21.3137529 49.9832249,20.0929104 48.5023581,20.0929104 C47.0167751,20.0929104 45.8141603,21.3137529 45.8141603,22.8170649 L45.8141603,68.5196642 C45.8141603,70.0229762 47.0167751,71.2438187 48.5023581,71.2438187 C49.9832249,71.2438187 51.1858397,70.0229762 51.1858397,68.5196642 Z M9,228 L88,228 L88,9 L9,9 L9,228 Z" id="Stroke-3" stroke="#231F20" stroke-width="0.1"></path>
                    <g id="Group-7" transform="translate(7.000000, -1.000000)">
                        <mask id="mask-10" fill="white">
                            <use xlink:href="#path-9"></use>
                        </mask>
                        <g id="Clip-6"></g>
                        <line x1="2.579875" y1="8.5551" x2="2.579875" y2="0.24435" id="Stroke-5" stroke="#231F20" stroke-width="0.1" mask="url(#mask-10)"></line>
                    </g>
                    <g id="Group-10" transform="translate(86.000000, -1.000000)">
                        <mask id="mask-12" fill="white">
                            <use xlink:href="#path-11"></use>
                        </mask>
                        <g id="Clip-9"></g>
                        <line x1="2.46065" y1="8.5551" x2="2.46065" y2="0.24435" id="Stroke-8" stroke="#231F20" stroke-width="0.1" mask="url(#mask-12)"></line>
                    </g>
                    <line x1="9.5" y1="237" x2="9.5" y2="230" id="Stroke-11" stroke="#231F20" stroke-width="0.1"></line>
                    <line x1="88.5" y1="237" x2="88.5" y2="230" id="Stroke-13" stroke="#231F20" stroke-width="0.1"></line>
                    <line x1="90" y1="228.5" x2="97" y2="228.5" id="Stroke-15" stroke="#231F20" stroke-width="0.1"></line>
                    <g id="Group-19" transform="translate(1.000000, 226.000000)">
                        <mask id="mask-14" fill="white">
                            <use xlink:href="#path-13"></use>
                        </mask>
                        <g id="Clip-18"></g>
                        <line x1="-0.000433854167" y1="2.58666875" x2="6.8674776" y2="2.58666875" id="Stroke-17" stroke="#231F20" stroke-width="0.1" mask="url(#mask-14)"></line>
                    </g>
                    <line x1="90" y1="9.5" x2="97" y2="9.5" id="Stroke-20" stroke="#231F20" stroke-width="0.1"></line>
                    <g id="Group-24" transform="translate(1.000000, 7.000000)">
                        <mask id="mask-16" fill="white">
                            <use xlink:href="#path-15"></use>
                        </mask>
                        <g id="Clip-23"></g>
                        <line x1="-0.000433854167" y1="2.50125" x2="6.8674776" y2="2.50125" id="Stroke-22" stroke="#231F20" stroke-width="0.1" mask="url(#mask-16)"></line>
                    </g>
                </g>
                <rect id="Rectangle-Copy-14" fill="#FFFFFF" x="0" y="376" width="309" height="443" rx="26"></rect>
                <text id="Project-Items" font-family="AktifoB-Bold, Aktifo B" font-size="18" font-weight="bold" fill="#5A595C">
                    <tspan x="85" y="426">Project Items</tspan>
                </text>
                <rect id="Rectangle-Copy-8" fill="url(#linearGradient-17)" x="32" y="322" width="106" height="24" rx="12"></rect>
                <rect id="Rectangle-Copy-9" stroke="#C6C6C6" x="171.5" y="322.5" width="105" height="23" rx="11.5"></rect>
                <text id="3D" font-family="AktifoB-Book, Aktifo B" font-size="14" font-weight="300" fill="#E9E9E9">
                    <tspan x="75.256" y="332">3D </tspan>
                </text>
                <text id="2D" font-family="AktifoB-Book, Aktifo B" font-size="14" font-weight="300" fill="#C6C6C6">
                    <tspan x="214.424" y="334">2D </tspan>
                </text>
                <text id="01." font-family="AktifoB-Bold, Aktifo B" font-size="20" font-weight="bold" fill="#5A595C">
                    <tspan x="36.09" y="508">01.</tspan>
                </text>
                <text id="Uniti-Hang-tag.-RFID" font-family="AktifoB-Bold, Aktifo B" font-size="12" font-weight="bold" fill="#5A595C">
                    <tspan x="73" y="506">Uniti Hang tag. RFID </tspan>
                </text>
                <text id="Click-to-switch-betw" font-family="AktifoB-Bold, Aktifo B" font-size="12" font-weight="bold" fill="#D1D0CF">
                    <tspan x="86" y="449">Click to switch between Items. </tspan>
                </text>
                <text id="Uniti-Hang-tag." font-family="AktifoB-Bold, Aktifo B" font-size="12" font-weight="bold" fill="#5A595C">
                    <tspan x="71" y="668">Uniti Hang tag. </tspan>
                </text>
                <text id="Uniti-Hang-tag.-Copy" font-family="AktifoB-Bold, Aktifo B" font-size="12" font-weight="bold" fill="#5A595C">
                    <tspan x="71" y="750">Uniti Hang tag. </tspan>
                </text>
                <text id="Created:" font-family="AktifoB-Bold, Aktifo B" font-size="8" font-weight="bold" fill="#5A595C">
                    <tspan x="73" y="528">Created:</tspan>
                </text>
                <text id="Created:-Copy-2" font-family="AktifoB-Bold, Aktifo B" font-size="8" font-weight="bold" fill="#5A595C">
                    <tspan x="71" y="689">Created:</tspan>
                </text>
                <text id="Created:-Copy-3" font-family="AktifoB-Bold, Aktifo B" font-size="8" font-weight="bold" fill="#5A595C">
                    <tspan x="71" y="771">Created:</tspan>
                </text>
                <text id="Last-Edit:" font-family="AktifoB-Bold, Aktifo B" font-size="8" font-weight="bold" fill="#5A595C">
                    <tspan x="73" y="545">Last Edit:</tspan>
                </text>
                <text id="Last-Edit:-Copy-2" font-family="AktifoB-Bold, Aktifo B" font-size="8" font-weight="bold" fill="#5A595C">
                    <tspan x="71" y="706">Last Edit:</tspan>
                </text>
                <text id="Last-Edit:-Copy-3" font-family="AktifoB-Bold, Aktifo B" font-size="8" font-weight="bold" fill="#5A595C">
                    <tspan x="71" y="788">Last Edit:</tspan>
                </text>
                <text id="03." font-family="AktifoB-Bold, Aktifo B" font-size="20" font-weight="bold" fill="#5A595C">
                    <tspan x="34.94" y="672">03.</tspan>
                </text>
                <text id="04." font-family="AktifoB-Bold, Aktifo B" font-size="20" font-weight="bold" fill="#5A595C">
                    <tspan x="34.49" y="754">04.</tspan>
                </text>
                <g id="Group-6" transform="translate(208.000000, 497.000000)">
                    <g id="Group-3">
                        <mask id="mask-19" fill="white">
                            <use xlink:href="#path-18"></use>
                        </mask>
                        <g id="Clip-2"></g>
                        <path d="M11.1394412,4.7641687 C10.5279118,4.7641687 10.0327353,5.27799753 10.0327353,5.91256209 C10.0327353,6.54853056 10.5279118,7.06235939 11.1394412,7.06235939 C11.7509706,7.06235939 12.2461471,6.54853056 12.2461471,5.91256209 C12.2461471,5.27799753 11.7509706,4.7641687 11.1394412,4.7641687 L11.1394412,4.7641687 Z M-0.000676470588,50.9820891 L22.2782059,50.9820891 L22.2782059,0.361526054 L-0.000676470588,0.361526054 L-0.000676470588,50.9820891 Z" id="Fill-1" fill="#A4DDF6" mask="url(#mask-19)"></path>
                    </g>
                    <path d="M12.4588486,40.4336887 C12.7083156,40.4336887 12.9014925,40.2597015 12.9014925,40 C12.9014925,39.7454158 12.7083156,39.5752665 12.4588486,39.5752665 C12.2081023,39.5752665 12.0200426,39.7454158 12.0200426,40 C12.0200426,40.2597015 12.2081023,40.4336887 12.4588486,40.4336887 L12.4588486,40.4336887 Z M8.44690832,39.2093817 C8.44690832,39.9782516 8.9663113,40.438806 9.78891258,40.438806 C10.6332623,40.438806 11.1296375,39.9603412 11.1296375,39.2093817 L11.1296375,37.1535181 L10.4144989,37.1535181 L10.4144989,39.1773987 C10.4144989,39.5484009 10.2034115,39.7991471 9.78891258,39.7991471 C9.41279318,39.7991471 9.15820896,39.5842217 9.15820896,39.1773987 L9.15820896,37.1535181 L8.44690832,37.1535181 L8.44690832,39.2093817 Z M16,38.4993603 C16,40.9850746 13.9850746,43 11.4993603,43 C9.01492537,43 7,40.9850746 7,38.4993603 C7,36.0149254 9.01492537,34 11.4993603,34 C13.9850746,34 16,36.0149254 16,38.4993603 L16,38.4993603 Z" id="Fill-4" fill="#231F20"></path>
                </g>
                <g id="Group-6-Copy-8" transform="translate(208.000000, 660.000000)">
                    <g id="Group-3">
                        <mask id="mask-21" fill="white">
                            <use xlink:href="#path-20"></use>
                        </mask>
                        <g id="Clip-2"></g>
                        <path d="M11.1394412,4.67075362 C10.5279118,4.67075362 10.0327353,5.17450738 10.0327353,5.7966295 C10.0327353,6.420128 10.5279118,6.92388175 11.1394412,6.92388175 C11.7509706,6.92388175 12.2461471,6.420128 12.2461471,5.7966295 C12.2461471,5.17450738 11.7509706,4.67075362 11.1394412,4.67075362 L11.1394412,4.67075362 Z M-0.000676470588,49.9824403 L22.2782059,49.9824403 L22.2782059,0.354437308 L-0.000676470588,0.354437308 L-0.000676470588,49.9824403 Z" id="Fill-1" fill="#A4DDF6" mask="url(#mask-21)"></path>
                    </g>
                    <path d="M12.4588486,39.4336887 C12.7083156,39.4336887 12.9014925,39.2597015 12.9014925,39 C12.9014925,38.7454158 12.7083156,38.5752665 12.4588486,38.5752665 C12.2081023,38.5752665 12.0200426,38.7454158 12.0200426,39 C12.0200426,39.2597015 12.2081023,39.4336887 12.4588486,39.4336887 L12.4588486,39.4336887 Z M8.44690832,38.2093817 C8.44690832,38.9782516 8.9663113,39.438806 9.78891258,39.438806 C10.6332623,39.438806 11.1296375,38.9603412 11.1296375,38.2093817 L11.1296375,36.1535181 L10.4144989,36.1535181 L10.4144989,38.1773987 C10.4144989,38.5484009 10.2034115,38.7991471 9.78891258,38.7991471 C9.41279318,38.7991471 9.15820896,38.5842217 9.15820896,38.1773987 L9.15820896,36.1535181 L8.44690832,36.1535181 L8.44690832,38.2093817 Z M16,37.4993603 C16,39.9850746 13.9850746,42 11.4993603,42 C9.01492537,42 7,39.9850746 7,37.4993603 C7,35.0149254 9.01492537,33 11.4993603,33 C13.9850746,33 16,35.0149254 16,37.4993603 L16,37.4993603 Z" id="Fill-4" fill="#231F20"></path>
                </g>
                <g id="Group-6-Copy-9" transform="translate(208.000000, 742.000000)">
                    <g id="Group-3">
                        <mask id="mask-23" fill="white">
                            <use xlink:href="#path-22"></use>
                        </mask>
                        <g id="Clip-2"></g>
                        <path d="M11.1394412,4.67075362 C10.5279118,4.67075362 10.0327353,5.17450738 10.0327353,5.7966295 C10.0327353,6.420128 10.5279118,6.92388175 11.1394412,6.92388175 C11.7509706,6.92388175 12.2461471,6.420128 12.2461471,5.7966295 C12.2461471,5.17450738 11.7509706,4.67075362 11.1394412,4.67075362 L11.1394412,4.67075362 Z M-0.000676470588,49.9824403 L22.2782059,49.9824403 L22.2782059,0.354437308 L-0.000676470588,0.354437308 L-0.000676470588,49.9824403 Z" id="Fill-1" fill="#A4DDF6" mask="url(#mask-23)"></path>
                    </g>
                    <path d="M12.4588486,39.4336887 C12.7083156,39.4336887 12.9014925,39.2597015 12.9014925,39 C12.9014925,38.7454158 12.7083156,38.5752665 12.4588486,38.5752665 C12.2081023,38.5752665 12.0200426,38.7454158 12.0200426,39 C12.0200426,39.2597015 12.2081023,39.4336887 12.4588486,39.4336887 L12.4588486,39.4336887 Z M8.44690832,38.2093817 C8.44690832,38.9782516 8.9663113,39.438806 9.78891258,39.438806 C10.6332623,39.438806 11.1296375,38.9603412 11.1296375,38.2093817 L11.1296375,36.1535181 L10.4144989,36.1535181 L10.4144989,38.1773987 C10.4144989,38.5484009 10.2034115,38.7991471 9.78891258,38.7991471 C9.41279318,38.7991471 9.15820896,38.5842217 9.15820896,38.1773987 L9.15820896,36.1535181 L8.44690832,36.1535181 L8.44690832,38.2093817 Z M16,37.4993603 C16,39.9850746 13.9850746,42 11.4993603,42 C9.01492537,42 7,39.9850746 7,37.4993603 C7,35.0149254 9.01492537,33 11.4993603,33 C13.9850746,33 16,35.0149254 16,37.4993603 L16,37.4993603 Z" id="Fill-4" fill="#231F20"></path>
                </g>
                <g id="Group-6" transform="translate(47.000000, 534.000000) rotate(90.000000) translate(-47.000000, -534.000000) translate(33.000000, 520.000000)">
                    <g id="Group-3" transform="translate(0.500000, 0.500000)">
                        <mask id="mask-25" fill="white">
                            <use xlink:href="#path-24"></use>
                        </mask>
                        <g id="Clip-2"></g>
                        <path d="M13.1524105,24.0029263 C7.04330526,24.0029263 2.07388421,19.2175579 2.07388421,13.3347158 C2.07388421,7.45187368 7.04330526,2.66650526 13.1524105,2.66650526 C19.2615158,2.66650526 24.2309368,7.45187368 24.2309368,13.3347158 C24.2309368,19.2175579 19.2615158,24.0029263 13.1524105,24.0029263 M13.1524105,0.668610526 C5.90077895,0.668610526 0.000568421053,6.35166316 0.000568421053,13.3347158 C0.000568421053,20.3177684 5.90077895,25.9994526 13.1524105,25.9994526 C20.4054632,25.9994526 26.3056737,20.3177684 26.3056737,13.3347158 C26.3056737,6.35166316 20.4054632,0.668610526 13.1524105,0.668610526" id="Fill-1" fill="#C6C4C3" mask="url(#mask-25)"></path>
                    </g>
                    <polygon id="Fill-4" fill="#C6C4C3" points="13.4291914 8 7 13.3485986 8.79716766 14.8437055 12.7368661 11.5648456 12.7368661 22 15.343079 22 15.343079 11.6300238 19.2044312 14.8437055 21 13.3485986 14.5708086 8"></polygon>
                </g>
                <g id="Group-6-Copy-2" transform="translate(47.000000, 699.000000) rotate(90.000000) translate(-47.000000, -699.000000) translate(33.000000, 685.000000)">
                    <g id="Group-3" transform="translate(0.500000, 0.500000)">
                        <mask id="mask-27" fill="white">
                            <use xlink:href="#path-26"></use>
                        </mask>
                        <g id="Clip-2"></g>
                        <path d="M13.1524105,24.0029263 C7.04330526,24.0029263 2.07388421,19.2175579 2.07388421,13.3347158 C2.07388421,7.45187368 7.04330526,2.66650526 13.1524105,2.66650526 C19.2615158,2.66650526 24.2309368,7.45187368 24.2309368,13.3347158 C24.2309368,19.2175579 19.2615158,24.0029263 13.1524105,24.0029263 M13.1524105,0.668610526 C5.90077895,0.668610526 0.000568421053,6.35166316 0.000568421053,13.3347158 C0.000568421053,20.3177684 5.90077895,25.9994526 13.1524105,25.9994526 C20.4054632,25.9994526 26.3056737,20.3177684 26.3056737,13.3347158 C26.3056737,6.35166316 20.4054632,0.668610526 13.1524105,0.668610526" id="Fill-1" fill="#C6C4C3" mask="url(#mask-27)"></path>
                    </g>
                    <polygon id="Fill-4" fill="#C6C4C3" points="13.4291914 8 7 13.3485986 8.79716766 14.8437055 12.7368661 11.5648456 12.7368661 22 15.343079 22 15.343079 11.6300238 19.2044312 14.8437055 21 13.3485986 14.5708086 8"></polygon>
                </g>
                <g id="Group-6-Copy-3" transform="translate(47.000000, 781.000000) rotate(90.000000) translate(-47.000000, -781.000000) translate(33.000000, 767.000000)">
                    <g id="Group-3" transform="translate(0.500000, 0.500000)">
                        <mask id="mask-29" fill="white">
                            <use xlink:href="#path-28"></use>
                        </mask>
                        <g id="Clip-2"></g>
                        <path d="M13.1524105,24.0029263 C7.04330526,24.0029263 2.07388421,19.2175579 2.07388421,13.3347158 C2.07388421,7.45187368 7.04330526,2.66650526 13.1524105,2.66650526 C19.2615158,2.66650526 24.2309368,7.45187368 24.2309368,13.3347158 C24.2309368,19.2175579 19.2615158,24.0029263 13.1524105,24.0029263 M13.1524105,0.668610526 C5.90077895,0.668610526 0.000568421053,6.35166316 0.000568421053,13.3347158 C0.000568421053,20.3177684 5.90077895,25.9994526 13.1524105,25.9994526 C20.4054632,25.9994526 26.3056737,20.3177684 26.3056737,13.3347158 C26.3056737,6.35166316 20.4054632,0.668610526 13.1524105,0.668610526" id="Fill-1" fill="#C6C4C3" mask="url(#mask-29)"></path>
                    </g>
                    <polygon id="Fill-4" fill="#C6C4C3" points="13.4291914 8 7 13.3485986 8.79716766 14.8437055 12.7368661 11.5648456 12.7368661 22 15.343079 22 15.343079 11.6300238 19.2044312 14.8437055 21 13.3485986 14.5708086 8"></polygon>
                </g>
                <rect id="Rectangle" fill="#FFFFFF" x="21" y="773" width="269" height="22"></rect>
                <rect id="Rectangle-Copy" stroke="#979797" x="277.5" y="493.5" width="12" height="282" rx="6"></rect>
                <rect id="Rectangle-Copy-4" fill="url(#linearGradient-30)" x="277" y="501" width="13" height="59" rx="6.5"></rect>
                <line x1="19.1692719" y1="475" x2="264.6391" y2="474.5" id="Line" stroke="#D6D6D6" stroke-linecap="square"></line>
                <g id="Group-3" transform="translate(32.000000, 410.000000)">
                    <mask id="mask-32" fill="white">
                        <use xlink:href="#path-31"></use>
                    </mask>
                    <g id="Clip-2"></g>
                    <path d="M39.664224,8.78191702 C39.664224,8.24083174 39.6752913,7.75274207 39.6610619,7.26518236 C39.6484135,6.83220814 39.6352381,6.39658414 39.5714693,5.97049935 C39.5034843,5.51950662 39.2636924,5.33985147 38.8167834,5.321303 C38.423103,5.30487436 38.0283685,5.2826162 37.6341611,5.28155629 C34.5706213,5.26724747 31.5065545,5.25452852 28.4430146,5.24816904 C24.1594344,5.23915979 19.8753272,5.23703996 15.59122,5.22750075 C15.4599932,5.2269708 15.2966185,5.21584172 15.2033368,5.14005798 C14.8354801,4.84169264 14.4375836,4.55763611 14.1466712,4.19143637 C13.5922511,3.49348405 13.1005458,2.74518589 12.589341,2.01331637 C12.4607493,1.82889161 12.3031717,1.75628761 12.0807713,1.75522769 C9.65017679,1.74515853 7.21958232,1.72449023 4.78898785,1.71389111 C4.0733011,1.71071137 3.35761435,1.71866072 2.64245461,1.74250875 C2.11543933,1.76052726 1.74283953,2.16488384 1.74231251,2.67629158 C1.73862341,5.41510525 1.72966415,8.15497883 1.73145521,10.8948524 C1.73598833,15.4795035 1.74705565,20.0641547 1.75496088,24.6482759 C1.75496088,24.7701658 1.75496088,24.8909958 1.75496088,25.0128857 C1.78131165,25.0139456 1.80766241,25.0150056 1.83401317,25.0160655 C1.86089095,24.8925857 1.89040381,24.7706957 1.91306547,24.6472159 C2.60977966,20.9232137 3.30175073,17.1986815 4.00373508,13.4757391 C4.18871744,12.4979699 4.41796909,11.52868 4.60242444,10.5509108 C4.76527216,9.68814213 6.0669999,8.78880645 6.89019777,8.81212453 C8.09073857,8.84604172 9.29338744,8.81636418 10.4949823,8.81530426 C20.108795,8.80417518 29.7220807,8.7930461 39.3353664,8.78191702 L39.664224,8.78191702 Z M24.1942175,10.5922474 L24.1942175,10.6166254 C21.213419,10.6166254 18.2320936,10.609206 15.2518222,10.6187452 C12.4818299,10.6266946 9.71236459,10.6510726 6.94237228,10.6733307 C6.44961299,10.6770404 6.36423652,10.7570638 6.26937377,11.2488632 C5.80665435,13.646915 5.33655672,16.043377 4.8875397,18.4440786 C4.06223378,22.8564939 3.24746815,27.2699692 2.43375656,31.6839744 C2.21820731,32.8530578 2.00529314,34.0232011 1.82083779,35.1975841 C1.71596175,35.8632091 1.89461993,36.1377264 2.55707814,36.1568048 C3.06090474,36.1711136 3.56420434,36.2172198 4.06855796,36.2193397 C8.20510089,36.239478 12.3411168,36.2627961 16.4776597,36.2634604 C22.5952531,36.2649159 28.7128465,36.2521969 34.8304398,36.2357683 C35.6183277,36.2336485 36.4067425,36.1875423 37.1935763,36.1356066 C37.6663091,36.1048691 37.7079433,36.0476338 37.7985899,35.5796825 C38.0041258,34.52083 38.2096618,33.4625075 38.4057115,32.4020651 C39.2826649,27.6621368 40.1596183,22.9227385 41.0281395,18.1806903 C41.4334143,15.9691831 41.8244596,13.7539661 42.2128699,11.5387492 C42.3045705,11.0140926 41.9235385,10.5922474 41.391253,10.5922474 L24.1942175,10.5922474 Z M19.9074752,37.9968128 C14.1561574,37.9968128 8.40431266,37.9931031 2.6524679,37.9999963 C1.61372079,38.0015824 0.884331639,37.4986539 0.333600672,36.6650328 C0.104876041,36.3200313 0.0115943362,35.948532 0.0115943362,35.5208574 C0.0147564278,25.2359973 0.00421612224,14.9506073 0,4.66521722 C0,3.87240274 0.0432152529,3.0790583 0.0374180849,2.28624381 C0.0295128557,1.30794466 1.22478351,0.0228008587 2.21188313,0.0259805959 C4.29359348,0.0318101142 6.37583085,-0.000517214385 8.45806822,6.29331848e-06 C9.79721405,6.29331848e-06 11.1358329,0.0397594572 12.4749787,0.0418792821 C12.9740622,0.0429391945 13.381972,0.225774085 13.6786816,0.602042991 C14.1566844,1.20778293 14.5972692,1.84320042 15.0547185,2.46483905 C15.3003076,2.79818151 15.485817,3.24705441 15.8152015,3.42723952 C16.1303567,3.59894533 16.5967652,3.50302326 16.9967698,3.50355322 C23.903832,3.51415234 30.8114213,3.51998186 37.7190106,3.5316409 C38.2228372,3.53270081 38.7292989,3.53853033 39.2299634,3.59099599 C40.2481569,3.69751719 41.2284053,4.65249827 41.3158899,5.68326309 C41.389672,6.55398114 41.3670103,7.43317848 41.3807127,8.30813618 C41.388091,8.77025799 41.3812398,8.7760875 41.8212975,8.8656501 C42.9738799,9.09936079 43.6985259,9.79413338 43.9678307,10.9345991 C44.0342347,11.2170658 43.9852223,11.5403391 43.9341018,11.8349947 C43.4397614,14.6681406 42.9454211,17.5018164 42.4289461,20.3307227 C41.5198448,25.3096612 40.594933,30.2848901 39.6747643,35.2611788 C39.6278599,35.5144979 39.5556588,35.7635773 39.5066464,36.0168964 C39.3142858,36.9994352 38.6360172,37.5384006 37.7880496,37.9178493 C37.6852816,37.9634255 37.5551088,37.957066 37.4370574,37.957066 C31.594039,37.9586559 25.7504936,37.9586559 19.9074752,37.9586559 L19.9074752,37.9968128 Z" id="Fill-1" fill="#231F20" mask="url(#mask-32)"></path>
                </g>
                <rect id="Rectangle" fill="#F5F4F4" x="18" y="567" width="246" height="72"></rect>
                <text id="QR-Printed-Carelabel" font-family="AktifoB-Bold, Aktifo B" font-size="12" font-weight="bold" fill="#5A595C">
                    <tspan x="71" y="587">QR Printed Carelabel. </tspan>
                </text>
                <text id="Created:-Copy" font-family="AktifoB-Bold, Aktifo B" font-size="8" font-weight="bold" fill="#5A595C">
                    <tspan x="71" y="609">Created:</tspan>
                </text>
                <text id="Last-Edit:-Copy" font-family="AktifoB-Bold, Aktifo B" font-size="8" font-weight="bold" fill="#5A595C">
                    <tspan x="71" y="626">Last Edit:</tspan>
                </text>
                <text id="02." font-family="AktifoB-Bold, Aktifo B" font-size="20" font-weight="bold" fill="#5A595C">
                    <tspan x="35.04" y="592">02.</tspan>
                </text>
                <g id="Group-41" transform="translate(208.000000, 576.000000)">
                    <polygon id="Fill-1" fill="#E5E6E7" points="0 53 22 53 22 0 0 0"></polygon>
                    <g id="Group-40">
                        <path d="M11.529925,12.2249513 C11.782925,12.2249513 11.980925,12.0491591 11.980925,11.7854708 C11.980925,11.527276 11.782925,11.3542305 11.529925,11.3542305 C11.274175,11.3542305 11.084425,11.527276 11.084425,11.7854708 C11.084425,12.0491591 11.274175,12.2249513 11.529925,12.2249513 L11.529925,12.2249513 Z M7.451675,10.9834188 C7.451675,11.7634968 7.979675,12.2304448 8.815675,12.2304448 C9.673675,12.2304448 10.179675,11.7442695 10.179675,10.9834188 L10.179675,8.89588636 L9.450925,8.89588636 L9.450925,10.9504578 C9.450925,11.326763 9.239175,11.582211 8.815675,11.582211 C8.433425,11.582211 8.174925,11.3652175 8.174925,10.9504578 L8.174925,8.89588636 L7.451675,8.89588636 L7.451675,10.9834188 Z M15.129675,10.2637695 C15.129675,12.785289 13.080925,14.8316201 10.556425,14.8316201 C8.029175,14.8316201 5.980425,12.785289 5.980425,10.2637695 C5.980425,7.73950325 8.029175,5.69317208 10.556425,5.69317208 C13.080925,5.69317208 15.129675,7.73950325 15.129675,10.2637695 L15.129675,10.2637695 Z" id="Fill-2" fill="#231F20"></path>
                        <line x1="3.340425" y1="17.7882253" x2="17.766925" y2="17.7882253" id="Stroke-4" stroke="#231F20" stroke-width="0.25"></line>
                        <line x1="3.340425" y1="20.2773331" x2="17.766925" y2="20.2773331" id="Stroke-6" stroke="#231F20" stroke-width="0.25"></line>
                        <line x1="3.340425" y1="22.768089" x2="17.766925" y2="22.768089" id="Stroke-8" stroke="#231F20" stroke-width="0.25"></line>
                        <line x1="3.340425" y1="25.2585701" x2="17.766925" y2="25.2585701" id="Stroke-10" stroke="#231F20" stroke-width="0.25"></line>
                        <line x1="3.340425" y1="27.749326" x2="17.766925" y2="27.749326" id="Stroke-12" stroke="#231F20" stroke-width="0.25"></line>
                        <line x1="3.340425" y1="30.2384338" x2="17.766925" y2="30.2384338" id="Stroke-14" stroke="#231F20" stroke-width="0.25"></line>
                        <mask id="mask-34" fill="white">
                            <use xlink:href="#path-33"></use>
                        </mask>
                        <g id="Clip-17"></g>
                        <path d="M13.81875,39.9108506 L14.48975,39.9108506 L14.48975,39.2406429 L13.81875,39.2406429 L13.81875,39.9108506 Z M11.781,43.9787922 L12.45475,43.9787922 L12.45475,43.3085844 L11.781,43.3085844 L11.781,43.9787922 Z M13.816,43.3058377 L13.816,42.6301364 L13.14225,42.6301364 L13.14225,43.3030909 L13.816,43.3030909 L13.816,43.9787922 L15.169,43.9787922 L15.169,43.3058377 L13.816,43.3058377 Z M11.77825,37.881 L11.77825,38.5567013 L15.17175,38.5567013 L15.17175,39.2351494 L15.851,39.2351494 L15.851,39.9163442 L15.85375,39.9135974 L15.17725,39.9135974 L15.17725,40.5947922 L15.85375,40.5947922 L15.851,40.5920455 L15.851,41.9489416 L16.533,41.9489416 L16.53025,41.9489416 L16.53025,43.3003442 L15.8565,43.3003442 L15.8565,44.6627338 L16.533,44.6627338 L16.53025,44.659987 L16.53025,45.3384351 L17.886,45.3384351 L17.886,46.0141364 L15.85375,46.0141364 L15.85375,47.3682857 L15.17725,47.3682857 L15.17725,46.6925844 L13.816,46.6925844 L13.816,46.6953312 L13.816,46.0168831 L13.1395,46.0168831 L13.1395,45.3411818 L14.48975,45.3411818 L14.48975,44.6654805 L11.1045,44.6654805 L11.1045,45.3384351 L9.74325,45.3384351 L9.74325,45.3384351 L9.74325,43.981539 L9.74325,43.9842857 L10.417,43.9842857 L10.417,43.3030909 L9.74325,43.3030909 L9.74325,43.3058377 C9.74325,43.0778571 9.74325,42.8526234 9.74325,42.6246429 L11.10175,42.6246429 L11.10175,41.9516883 L11.781,41.9516883 L11.781,42.6218961 L12.46025,42.6218961 L12.46025,41.2704935 L12.4575,41.2732403 C12.485,41.2704935 12.51525,41.2704935 12.54275,41.2704935 C13.1945,41.2704935 13.8435,41.2704935 14.49525,41.2704935 L14.49525,41.9434481 L15.169,41.9434481 L15.169,41.2704935 L14.4925,41.2704935 L14.4925,40.5892987 L13.134,40.5892987 L13.134,39.2406429 L11.099,39.2406429 L11.099,39.9163442 L9.746,39.9163442 L9.746,41.2732403 L10.41975,41.2732403 L10.41975,41.9489416 L9.74325,41.9489416 L9.74325,42.6273896 L9.06675,42.6273896 L9.06675,41.9489416 L7.03175,41.9489416 L7.03175,41.2732403 L9.064,41.2732403 L9.064,35.8484026 L9.74325,35.8484026 L9.74325,35.8456558 C9.74325,36.4993831 9.74325,37.1531104 9.74325,37.8040909 L9.74325,37.8755065 L10.4225,37.8755065 L10.4225,36.5268506 L11.099,36.5268506 L11.099,37.881 L11.781,37.881 L11.77825,37.881 Z" id="Fill-16" fill="#231F20" mask="url(#mask-34)"></path>
                        <path d="M4.3175,37.1998052 L7.70275,37.1998052 L7.70275,33.8185519 L4.3175,33.8185519 L4.3175,37.1998052 Z M3.63825,37.8755065 L8.382,37.8755065 L8.382,33.1373571 L3.63825,33.1373571 L3.63825,37.8755065 Z" id="Fill-18" fill="#231F20" mask="url(#mask-34)"></path>
                        <path d="M13.81875,37.1998052 L17.20675,37.1998052 L17.20675,33.8185519 L13.81875,33.8185519 L13.81875,37.1998052 Z M13.14225,37.8755065 L17.886,37.8755065 L17.886,33.1373571 L13.14225,33.1373571 L13.14225,37.8755065 Z" id="Fill-19" fill="#231F20" mask="url(#mask-34)"></path>
                        <path d="M4.32025,46.6898377 L7.7055,46.6898377 L7.7055,43.3085844 L4.32025,43.3085844 L4.32025,46.6898377 Z M3.63825,47.3682857 L8.382,47.3682857 L8.382,42.6301364 L3.63825,42.6301364 L3.63825,47.3682857 Z" id="Fill-20" fill="#231F20" mask="url(#mask-34)"></path>
                        <path d="M10.42525,34.486013 L11.09625,34.486013 L11.09625,33.8158052 L10.42525,33.8158052 L10.42525,34.486013 Z M9.74325,35.8484026 L9.74325,34.4915065 L9.06675,34.4915065 L9.06675,33.1401039 L12.45475,33.1401039 L12.45475,34.4887597 L11.78375,34.4887597 L11.78375,35.1699545 L12.45475,35.1699545 L12.45475,36.5213571 L11.781,36.5213571 L11.781,35.8484026 L11.10175,35.8484026 L11.10175,35.1727013 L10.42525,35.1727013 L10.42525,35.8456558 L9.74325,35.8456558 L9.74325,35.8484026 Z" id="Fill-21" fill="#231F20" mask="url(#mask-34)"></path>
                        <polygon id="Fill-22" fill="#231F20" mask="url(#mask-34)" points="5.66995 39.2378961 7.02845 39.2378961 7.02845 39.2378961 7.02845 39.9135974 8.38145 39.9135974 8.38145 40.5892987 6.35195 40.5892987 6.35195 41.9461948 3.6377 41.9461948 3.6377 40.597539 4.31145 40.597539 4.31145 41.265 5.66995 41.265"></polygon>
                        <polygon id="Fill-23" fill="#231F20" mask="url(#mask-34)" points="9.7427 45.337611 9.7427 46.0160591 10.42195 46.0160591 10.42195 46.6917604 11.09845 46.6917604 11.09845 47.3702084 9.06895 47.3702084 9.06895 45.337611"></polygon>
                        <polygon id="Fill-24" fill="#231F20" mask="url(#mask-34)" points="5.671325 39.2365227 4.315575 39.2365227 4.315575 39.912224 3.639075 39.912224 3.639075 38.5635682 5.671325 38.5635682"></polygon>
                        <polygon id="Fill-25" fill="#231F20" mask="url(#mask-34)" points="17.212525 39.2351494 16.533275 39.2351494 16.533275 38.5621948 17.886275 38.5621948 17.886275 40.5892987 17.212525 40.5892987"></polygon>
                        <polygon id="Fill-26" fill="#231F20" mask="url(#mask-34)" points="7.029 39.2378961 7.029 38.5621948 8.382 38.5621948 8.382 39.2378961"></polygon>
                        <polygon id="Fill-27" fill="#231F20" mask="url(#mask-34)" points="16.531625 41.9497656 16.531625 41.2740643 17.205375 41.2740643 17.205375 41.9497656"></polygon>
                        <polygon id="Fill-28" fill="#231F20" mask="url(#mask-34)" points="17.21225 43.3003442 17.88325 43.3003442 17.88325 42.6301364 17.21225 42.6301364"></polygon>
                        <polygon id="Fill-29" fill="#231F20" mask="url(#mask-34)" points="15.851 39.9152455 16.5275 39.9152455 16.5275 40.5936935 15.851 40.5936935 15.85375 40.5936935 15.85375 39.9152455"></polygon>
                        <polygon id="Fill-30" fill="#231F20" mask="url(#mask-34)" points="9.744075 43.981539 9.067575 43.981539 9.067575 43.3058377 9.744075 43.3058377 9.744075 43.3030909"></polygon>
                        <polygon id="Fill-31" fill="#231F20" mask="url(#mask-34)" points="16.531625 44.6616351 16.531625 43.9859338 17.205375 43.9859338 17.205375 44.6616351"></polygon>
                        <polygon id="Fill-32" fill="#231F20" mask="url(#mask-34)" points="11.781 37.881824 11.781 37.2061227 12.45475 37.2061227 12.45475 37.881824 11.77825 37.881824"></polygon>
                        <polygon id="Fill-33" fill="#231F20" mask="url(#mask-34)" points="11.78375 46.6898377 12.45475 46.6898377 12.45475 46.0196299 11.78375 46.0196299"></polygon>
                        <polygon id="Fill-34" fill="#231F20" mask="url(#mask-34)" points="13.815175 46.6934084 13.815175 47.3691097 13.141425 47.3691097 13.141425 46.6934084"></polygon>
                        <polygon id="Fill-35" fill="#231F20" mask="url(#mask-34)" points="17.21225 47.3682857 17.88325 47.3682857 17.88325 46.6980779 17.21225 46.6980779"></polygon>
                        <polygon id="Fill-36" fill="#231F20" mask="url(#mask-34)" points="12.45915 41.2696695 11.78265 41.2696695 11.78265 40.5967149 12.45915 40.5967149 12.45915 41.2724162"></polygon>
                        <polygon id="Fill-37" fill="#231F20" mask="url(#mask-34)" points="4.99675 36.5213571 7.02625 36.5213571 7.02625 34.4942532 4.99675 34.4942532"></polygon>
                        <polygon id="Fill-38" fill="#231F20" mask="url(#mask-34)" points="14.498 36.5213571 16.5275 36.5213571 16.5275 34.4942532 14.498 34.4942532"></polygon>
                        <polygon id="Fill-39" fill="#231F20" mask="url(#mask-34)" points="4.99675 46.0141364 7.02625 46.0141364 7.02625 43.9870325 4.99675 43.9870325"></polygon>
                    </g>
                </g>
                <g id="Group-6-Copy" transform="translate(47.000000, 619.000000) rotate(90.000000) translate(-47.000000, -619.000000) translate(33.000000, 605.000000)">
                    <g id="Group-3" transform="translate(0.500000, 0.500000)">
                        <mask id="mask-36" fill="white">
                            <use xlink:href="#path-35"></use>
                        </mask>
                        <g id="Clip-2"></g>
                        <path d="M13.1524105,24.0029263 C7.04330526,24.0029263 2.07388421,19.2175579 2.07388421,13.3347158 C2.07388421,7.45187368 7.04330526,2.66650526 13.1524105,2.66650526 C19.2615158,2.66650526 24.2309368,7.45187368 24.2309368,13.3347158 C24.2309368,19.2175579 19.2615158,24.0029263 13.1524105,24.0029263 M13.1524105,0.668610526 C5.90077895,0.668610526 0.000568421053,6.35166316 0.000568421053,13.3347158 C0.000568421053,20.3177684 5.90077895,25.9994526 13.1524105,25.9994526 C20.4054632,25.9994526 26.3056737,20.3177684 26.3056737,13.3347158 C26.3056737,6.35166316 20.4054632,0.668610526 13.1524105,0.668610526" id="Fill-1" fill="#C6C4C3" mask="url(#mask-36)"></path>
                    </g>
                    <polygon id="Fill-4" fill="#C6C4C3" points="13.4291914 8 7 13.3485986 8.79716766 14.8437055 12.7368661 11.5648456 12.7368661 22 15.343079 22 15.343079 11.6300238 19.2044312 14.8437055 21 13.3485986 14.5708086 8"></polygon>
                </g>
                <line x1="141" y1="334.5" x2="167" y2="334.5" id="Line-Copy-7" stroke="#D6D6D6" stroke-linecap="square" transform="translate(154.000000, 334.500000) rotate(90.000000) translate(-154.000000, -334.500000) "></line>
                <path d="M20.7379518,560.5 L264.262048,560.5" id="Line-2" stroke="#D6D6D6" stroke-linecap="square"></path>
                <line x1="20.7379518" y1="728.5" x2="264.262048" y2="728.5" id="Line-Copy-15" stroke="#D6D6D6" stroke-linecap="square"></line>
                <line x1="20.7379518" y1="645.5" x2="264.262048" y2="645.5" id="Line-Copy" stroke="#D6D6D6" stroke-linecap="square"></line>
            </g>
        </g>
    </g>
</svg>