<?xml version="1.0" encoding="UTF-8"?>
<svg width="269px" height="741px" viewBox="0 0 269 741" version="1.1" xmlns="http://www.w3.org/2000/svg" xmlns:xlink="http://www.w3.org/1999/xlink">
    <!-- Generator: Sketch 61.2 (89653) - https://sketch.com -->
    <title>Group</title>
    <desc>Created with Sketch.</desc>
    <defs>
        <linearGradient x1="50%" y1="0%" x2="50%" y2="83.8805638%" id="linearGradient-1">
            <stop stop-color="#7EE5DD" offset="0%"></stop>
            <stop stop-color="#4BC9BA" offset="100%"></stop>
        </linearGradient>
        <polygon id="path-2" points="0.0360185507 0.0129606061 34.8485403 0.0129606061 34.8485403 47 0.0360185507 47"></polygon>
        <linearGradient x1="50%" y1="0%" x2="50%" y2="100%" id="linearGradient-4">
            <stop stop-color="#939295" offset="0%"></stop>
            <stop stop-color="#5A595C" offset="100%"></stop>
        </linearGradient>
    </defs>
    <g id="Page-1" stroke="none" stroke-width="1" fill="none" fill-rule="evenodd">
        <g id="Customer-Portal---Design-Suite-builder" transform="translate(-222.000000, -169.000000)">
            <g id="Group" transform="translate(182.000000, 136.000000)">
                <rect id="Rectangle-Copy-9" stroke="#C6C6C6" x="199.5" y="607.5" width="67" height="17" rx="8.5"></rect>
                <text id="select-color" font-family="AktifoB-Book, Aktifo B" font-size="7" font-weight="300" fill="#C6C6C6">
                    <tspan x="207.4725" y="615">select color</tspan>
                </text>
                <text id="Project-Name" font-family="AktifoB-Bold, Aktifo B" font-size="22" font-weight="bold" fill="#5A595C">
                    <tspan x="48" y="50">Project Name</tspan>
                </text>
                <text id="Item-Name" font-family="AktifoB-Bold, Aktifo B" font-size="18" font-weight="bold" fill="#5A595C">
                    <tspan x="48" y="85">Item Name</tspan>
                </text>
                <rect id="Rectangle-Copy-8" fill="url(#linearGradient-1)" x="48" y="159" width="106" height="24" rx="12"></rect>
                <rect id="Rectangle-Copy-9" stroke="#C6C6C6" x="186.5" y="159.5" width="105" height="23" rx="11.5"></rect>
                <g id="Group-9" transform="translate(51.000000, 463.000000)" fill="#231F20">
                    <path d="M47.2613106,9.87156492 C48.0325229,9.87156492 48.7699243,9.9106467 49.4976654,9.86374856 C51.310578,9.74650321 52.7644502,8.66159289 53.2378039,6.99045582 C53.688617,5.40060885 53.4342296,3.91550107 52.1268717,2.7461741 C51.4297215,2.12086556 50.5973273,1.74255389 49.6119787,1.75506006 C48.7006923,1.76443969 47.7877958,1.76443969 46.8765094,1.75193352 C46.6317823,1.74724371 46.5818709,1.82697054 46.5818709,2.04739181 C46.5883111,7.4172289 46.586701,12.7855027 46.5818709,18.1569031 C46.5818709,18.3632549 46.654323,18.496133 46.8201578,18.6149416 C47.3724038,19.0167023 48.0196426,19.1230048 48.6813718,19.1855356 C48.758654,19.1917887 48.8359362,19.193352 48.929319,19.1996051 L48.929319,19.9155833 L40.0515215,19.9155833 L40.0515215,19.0729801 C40.2592175,19.0729801 40.4636934,19.0636005 40.6665593,19.0745434 C41.3749799,19.1120619 41.8757044,18.7196808 42.3651586,18.3101037 C42.4247303,18.260079 42.4408308,18.1365805 42.4408308,18.0474741 C42.4456609,12.9668422 42.4456609,7.88464703 42.4424408,2.80401514 C42.4424408,2.27406615 42.0930607,1.95203225 41.4071808,1.87230541 C40.9483175,1.81915419 40.4846241,1.80821129 40,1.77538259 L40,1.00156327 L40.3542103,1.00156327 C44.2489132,1.00156327 48.1436162,1.00312654 52.0383191,1 C53.2571245,1 54.3229754,1.41583018 55.2600225,2.13649827 C56.7203349,3.2589271 57.1341169,4.78624321 56.9360811,6.50740497 C56.7122847,8.44117163 55.5755917,9.72930722 53.7964901,10.5187593 C53.3231364,10.7298009 52.8143616,10.862679 52.3039768,11.0377653 C52.7805506,11.6505677 53.2635646,12.2805661 53.7562389,12.9027481 C55.1328289,14.636416 56.5335695,16.3513247 57.8811786,18.1068784 C58.4237643,18.813477 59.0935437,19.1714662 60,19.1792825 L60,19.9781142 C59.9291579,19.9843673 59.8534858,19.9968735 59.7762035,19.9968735 C57.8151666,19.9984367 55.8525197,19.9953102 53.8898728,20 C53.722428,20 53.6226051,19.9515386 53.5340525,19.8108442 C51.4635324,16.5451703 49.3897923,13.2810597 47.3176622,10.0153859 C47.3015617,9.99193681 47.2967316,9.96379793 47.2613106,9.87156492" id="Fill-1"></path>
                    <path d="M17,20 L0,20 C3.83126076,13.6471551 7.64463363,7.3270569 11.4807729,0.96766271 C11.3571839,0.957838723 11.2742491,0.946377405 11.1929405,0.946377405 C8.63009374,0.944740074 6.06562081,0.93982808 3.50440023,0.956201392 C3.30925961,0.957838723 3.07021236,1.06099059 2.92873541,1.19688907 C2.36607997,1.74048301 2.2083413,2.46582071 2.12052803,3.22063037 L1.34159174,3.22063037 L1.34159174,0 L16.9235699,0 C13.1215803,6.36758084 9.33910465,12.7024151 5.52247943,19.0912812 L5.89812512,19.0912812 C8.62196289,19.0912812 11.3441745,19.0699959 14.0663861,19.1043799 C14.9168739,19.1158412 15.4730247,18.7556283 15.8681844,18.0564879 C16.0194184,17.7879656 16.1527645,17.507982 16.2812321,17.2247237 C16.4828774,16.781007 16.4779989,16.7777323 17,16.8088416 L17,20 Z" id="Fill-3"></path>
                    <path d="M28.8958349,13.6640612 C27.6731942,11.416077 26.4742788,9.21342768 25.2500565,6.96544348 C24.1571138,9.22593385 23.089478,11.4317097 22.0091888,13.6640612 L28.8958349,13.6640612 Z M27.0294494,1 C27.420125,1.78476222 27.7918204,2.5226263 28.1587708,3.26205364 C29.1014536,5.15204871 30.0362281,7.04829686 30.9852376,8.93516538 C32.0955788,11.1378147 33.2122467,13.3389008 34.3431498,15.5321705 C34.8271447,16.4701333 35.3617534,17.3830838 35.8552384,18.31792 C36.1589214,18.8885141 36.67455,19.1026822 37.2645176,19.2089847 C37.5001883,19.2496298 37.7437674,19.2590094 38,19.285585 L38,19.9906204 L29.368758,19.9906204 C29.368758,19.7748889 29.3450328,19.5544677 29.3814115,19.3418628 C29.3924832,19.2668257 29.5427431,19.1886622 29.6439708,19.15896 C29.966634,19.0620372 30.3066958,19.0135758 30.6214506,18.8963304 C30.9963094,18.7540727 31.0342698,18.6196314 30.8681931,18.2553892 C30.3177676,17.0297844 29.767342,15.8073062 29.204263,14.5895179 C29.1663026,14.5035379 29.0286962,14.4081784 28.9369587,14.4081784 C26.6292837,14.3972355 24.3216088,14.4019253 22.0139339,14.3941089 C21.8431121,14.3941089 21.7798448,14.4722725 21.7197409,14.6035873 C21.2199292,15.6713016 20.7153724,16.739016 20.2171424,17.805167 C20.1064246,18.0396577 19.9909618,18.2710219 19.9087143,18.5164555 C19.8074866,18.8166036 19.8739173,18.9791838 20.1760187,19.0776699 C20.5176621,19.1855356 20.8782858,19.2355603 21.2563079,19.3168504 L21.2563079,20 L17,20 L17,19.3168504 C17.4080741,19.2386869 17.8082398,19.176156 18.1989154,19.0854863 C18.6038262,18.9885634 18.883784,18.7681422 19.0688409,18.3616916 C21.0411991,14.0329933 23.0325375,9.71367451 25.0175491,5.38966595 C25.6818558,3.94363995 26.3445809,2.49605068 27.0294494,1 L27.0294494,1 Z" id="Fill-5"></path>
                    <path d="M69.2585336,6.94180679 C68.1603496,9.21579294 67.095396,11.4193043 66.0225303,13.6384768 L72.8996308,13.6384768 C71.6843493,11.4067755 70.4880567,9.2048302 69.2585336,6.94180679 M65.2898802,19.2999505 L65.2898802,20 L61,20 L61,19.3265743 C61.4588953,19.2294758 61.9130435,19.144906 62.3592796,19.0305803 C62.671012,18.9491428 62.8925477,18.7580778 63.0333811,18.4495549 C64.0366212,16.2570063 65.0604325,14.0754204 66.0605079,11.8828717 C67.7093663,8.27769535 69.3471479,4.66468843 70.9912591,1.05481372 C70.9975887,1.03915265 71.0181599,1.03132212 71.054555,1 C71.2824203,1.45417079 71.5102856,1.90207715 71.7318213,2.35154962 C72.4977018,3.89259809 73.2540879,5.43834487 74.0262979,6.97626113 C75.208349,9.33638312 76.3856529,11.6996373 77.59144,14.0487966 C78.3256725,15.486482 79.1137066,16.8991098 79.8732575,18.3242664 C80.173913,18.8896307 80.6945219,19.1120178 81.2895034,19.2091164 C81.5173687,19.2451368 81.7499812,19.2560996 82,19.2827234 L82,19.9984339 L73.3933389,19.9984339 L73.3933389,19.2169469 C73.6465225,19.1605671 73.9171125,19.1041873 74.1877025,19.0399769 C74.3000527,19.0133531 74.4108206,18.9788988 74.5184236,18.9366139 C75.0105493,18.7486812 75.0564389,18.6547148 74.84598,18.1833168 C74.3190415,16.9993406 73.7810263,15.8184965 73.2572527,14.6329542 C73.1765504,14.4497197 73.0689473,14.3839433 72.8616532,14.3839433 C70.6035717,14.3917738 68.3439078,14.3933399 66.0826614,14.3839433 C65.8674554,14.3823772 65.7772587,14.4669469 65.694974,14.6439169 C65.1395524,15.8372898 64.5778012,17.0259644 64.01605,18.2177712 C63.9938965,18.2694527 63.9733253,18.3242664 63.9527541,18.377514 C63.8008439,18.8066271 63.8657223,18.9914276 64.2961344,19.1245467 C64.6031196,19.2200791 64.9338407,19.2404385 65.2898802,19.2999505" id="Fill-7"></path>
                </g>
                <text id="Size" font-family="AktifoB-Bold, Aktifo B" font-size="12" font-weight="bold" fill="#5A595C">
                    <tspan x="50" y="211">Size </tspan>
                </text>
                <text id="Front" font-family="AktifoB-Book, Aktifo B" font-size="14" font-weight="300" fill="#FFFFFF">
                    <tspan x="81.967" y="168">Front</tspan>
                </text>
                <text id="Back" font-family="AktifoB-Book, Aktifo B" font-size="14" font-weight="300" fill="#C6C6C6">
                    <tspan x="221.85" y="171">Back</tspan>
                </text>
                <text id="Hang-hole" font-family="AktifoB-Bold, Aktifo B" font-size="12" font-weight="bold" fill="#5A595C">
                    <tspan x="50" y="267">Hang hole</tspan>
                </text>
                <text id="Corners" font-family="AktifoB-Bold, Aktifo B" font-size="12" font-weight="bold" fill="#5A595C">
                    <tspan x="50" y="325">Corners</tspan>
                </text>
                <text id="Logo-/-Image" font-family="AktifoB-Bold, Aktifo B" font-size="12" font-weight="bold" fill="#5A595C">
                    <tspan x="50" y="383">Logo  / Image</tspan>
                </text>
                <text id="Special-Finishes" font-family="AktifoB-Bold, Aktifo B" font-size="12" font-weight="bold" fill="#5A595C">
                    <tspan x="50" y="570">Special Finishes</tspan>
                </text>
                <text id="Emboss" font-family="AktifoB-Bold, Aktifo B" font-size="12" font-weight="bold" fill="#5A595C">
                    <tspan x="76" y="597">Emboss</tspan>
                </text>
                <text id="Spot-UV" font-family="AktifoB-Bold, Aktifo B" font-size="12" font-weight="bold" fill="#5A595C">
                    <tspan x="76" y="659">Spot UV</tspan>
                </text>
                <text id="Scodex" font-family="AktifoB-Bold, Aktifo B" font-size="12" font-weight="bold" fill="#5A595C">
                    <tspan x="205" y="597">Scodex</tspan>
                </text>
                <text id="Deboss" font-family="AktifoB-Bold, Aktifo B" font-size="12" font-weight="bold" fill="#5A595C">
                    <tspan x="76" y="628">Deboss</tspan>
                </text>
                <text id="Application" font-family="AktifoB-Bold, Aktifo B" font-size="12" font-weight="bold" fill="#5A595C">
                    <tspan x="50" y="733">Application</tspan>
                </text>
                <polyline id="Stroke-1-Copy-5" stroke="#C6C6C6" stroke-width="2" transform="translate(276.500000, 392.000000) scale(-1, 1) translate(-276.500000, -392.000000) " points="282 389 276.5 395 271 389"></polyline>
                <polyline id="Stroke-1-Copy-6" stroke="#C6C6C6" stroke-width="2" transform="translate(276.500000, 337.000000) scale(-1, 1) translate(-276.500000, -337.000000) " points="282 334 276.5 340 271 334"></polyline>
                <polyline id="Stroke-1-Copy-11" stroke="#C6C6C6" stroke-width="2" transform="translate(276.500000, 749.000000) scale(-1, 1) translate(-276.500000, -749.000000) " points="282 746 276.5 752 271 746"></polyline>
                <polyline id="Stroke-1-Copy-12" stroke="#C6C6C6" transform="translate(255.500000, 616.000000) scale(-1, 1) translate(-255.500000, -616.000000) " points="259.5 614 255.5 618 251.5 614"></polyline>
                <polyline id="Stroke-1-Copy-7" stroke="#C6C6C6" stroke-width="2" transform="translate(276.500000, 280.000000) scale(-1, 1) translate(-276.500000, -280.000000) " points="282 277 276.5 283 271 277"></polyline>
                <polyline id="Stroke-1-Copy-8" stroke="#C6C6C6" stroke-width="2" transform="translate(276.500000, 224.000000) scale(-1, 1) translate(-276.500000, -224.000000) " points="282 221 276.5 227 271 221"></polyline>
                <polyline id="Stroke-1-Copy-5" stroke="#C6C6C6" stroke-width="2" transform="translate(276.500000, 398.000000) scale(-1, -1) translate(-276.500000, -398.000000) " points="282 395 276.5 401 271 395"></polyline>
                <line x1="47.6620308" y1="193.5" x2="291.495885" y2="193" id="Line-Copy-12" stroke="#D6D6D6" stroke-linecap="square"></line>
                <rect id="Rectangle-Copy-6" stroke="#B1B1B2" opacity="0.3" x="191.5" y="422.5" width="89" height="125" rx="14"></rect>
                <text id="Drag-and-Drop-to-upl" opacity="0.3" font-family="AktifoB-Book, Aktifo B" font-size="10" font-weight="300" fill="#B1B1B2">
                    <tspan x="199.34" y="450">Drag and Drop</tspan>
                    <tspan x="211.5" y="464">to upload</tspan>
                </text>
                <g id="Group-19" opacity="0.3" transform="translate(215.000000, 474.000000)">
                    <path d="M34.4237758,47 L6.57622425,47 C4.60379338,47 3,45.4442558 3,43.5309185 L3,3.46765687 C3,1.55574416 4.60379338,0 6.57622425,0 L34.4237758,0 C36.3947379,0 38,1.55574416 38,3.46765687 L38,27.0944529 L36.286056,27.0944529 L36.286056,3.46765687 C36.286056,2.47180964 35.4503798,1.66117005 34.4237758,1.66117005 L6.57622425,1.66117005 C5.54962024,1.66117005 4.71394402,2.47180964 4.71394402,3.46765687 L4.71394402,43.5309185 C4.71394402,44.5267657 5.54962024,45.3374053 6.57622425,45.3374053 L34.4237758,45.3374053 L34.4237758,47 Z" id="Fill-1" fill="#B1B1B2"></path>
                    <path d="M11.0515997,30.4294413 L11.3143202,30.4339116 C11.8368742,30.4368918 14.6603978,30.4339116 16.7549442,30.4339116 L18.6935906,30.4339116 C18.8278379,30.4249711 18.803298,30.439872 19.0660185,30.4145404 C20.0880302,30.3504664 20.3435331,29.8632058 20.44891,29.5026031 C20.5355211,29.1688221 20.484998,28.9482883 20.1962941,28.4491069 L20.1948506,28.4461267 L16.4489182,21.8733238 C16.2641477,21.5440131 16.2280597,21.4873896 16.1934152,21.4322561 L16.1457791,21.3577514 C15.9797744,21.0612228 15.7762382,20.8317484 15.5986853,20.7274418 C15.464438,20.6484669 15.0948971,20.4771061 14.59977,20.6141947 C14.3572588,20.682739 14.1031994,20.8004564 13.7264409,21.4486471 L13.2197656,22.3278024 L9.61818508,28.8037492 C9.53446096,29.0332236 9.51569521,29.0943175 9.51569521,29.2522674 C9.51569521,29.7201568 9.88379262,30.4175206 10.9000302,30.4219909 C10.9678756,30.4249711 11.0169552,30.4264611 11.0515997,30.4294413 M13.2226526,32 C12.2886957,32 11.5452833,32 11.3013285,31.9985099 C11.0472691,31.9955297 10.9592145,31.9940396 10.9000302,31.9880793 C9.00757643,31.9701981 8,30.56802 8,29.2522674 C8,28.8022591 8.09671579,28.5370224 8.20786677,28.2300632 L8.29014737,28.0467816 L8.49224006,27.6459465 L12.4243865,20.6454867 C12.9325053,19.7722918 13.4637204,19.313343 14.2042457,19.1032398 C14.93611,18.9020771 15.7156104,18.9974431 16.3464283,19.3669864 C16.9094008,19.696297 17.2746112,20.2476317 17.4406159,20.5456504 C17.4940261,20.6261155 17.5402187,20.6946598 17.7581901,21.0865544 L21.5012355,27.6504167 C21.8346885,28.2300632 22.1681414,28.9318973 21.9054209,29.9332402 C21.5459846,31.1700179 20.5817138,31.8867529 19.1829436,31.9746684 C18.9909555,31.9925495 18.9389889,31.9925495 18.8653694,31.9925495 L18.7296786,31.9970198 L16.7549442,31.9985099 C15.6318863,32 14.299518,32 13.2226526,32" id="Fill-3" fill="#B1B1B2"></path>
                    <path d="M20.6867039,32 C19.7835981,32 19.0436525,32 18.6672392,31.997222 C18.2579075,31.9930551 18.1505653,31.9916661 18.0818663,31.9833322 C15.4083298,31.9611085 14,30.1387654 14,28.4289296 C14,27.8497245 14.1288106,27.5149801 14.2919708,27.0913409 L14.3978818,26.8732708 C14.4408187,26.788543 14.468012,26.7343727 14.7084586,26.2898988 L20.7482467,16.1836724 C21.4781738,15.0058165 22.1995134,14.4127216 23.2400172,14.1363143 C24.2604838,13.8710189 25.3453557,13.9974162 26.2212681,14.4766147 C27.0012881,14.9085878 27.5150995,15.6378029 27.7498211,16.0350515 L27.7813081,16.0781099 C27.8457135,16.1711716 27.91155,16.2670113 28.2378703,16.8170478 L34,26.3176784 L32.7047374,27.0566163 L26.9397452,17.5518188 C26.6477744,17.0573415 26.5905253,16.9726137 26.5318449,16.8906638 L26.4660083,16.7920462 C26.1797624,16.3142367 25.8176614,15.9336558 25.4798912,15.7461434 C25.2279948,15.6086343 24.5381423,15.3100033 23.632174,15.5433522 C23.0911693,15.6878062 22.6331759,15.9711583 22.0392157,16.9323332 L21.2591956,18.2060289 L16.0251896,26.9941122 C15.8105052,27.3913608 15.7833119,27.4427531 15.7418062,27.523314 L15.6945756,27.6163757 C15.5528839,27.9844557 15.5013597,28.1233538 15.5013597,28.4289296 C15.5013597,29.2650963 16.1797624,30.5137902 18.0446544,30.5221241 C18.1534278,30.5249021 18.2192643,30.529069 18.26077,30.533236 C18.310863,30.534625 18.4239302,30.5360139 18.6801202,30.5387919 C19.4415343,30.5429588 21.7171891,30.5415699 23.8053528,30.5401809 L26.4502648,30.5387919 L26.4502648,31.997222 L23.806784,31.998611 C22.7405181,32 21.6255904,32 20.6867039,32" id="Fill-5" fill="#B1B1B2"></path>
                    <path d="M34.5007095,26.7347297 C29.6235556,26.7347297 25.6559903,30.8909459 25.6559903,36 C25.6559903,41.1090541 29.6235556,45.2652703 34.5007095,45.2652703 C39.3778634,45.2652703 43.3454287,41.1090541 43.3454287,36 C43.3454287,30.8909459 39.3778634,26.7347297 34.5007095,26.7347297 M24,36 C24,29.9351351 28.7111291,25 34.5007095,25 C40.2902899,25 45,29.9351351 45,36 C45,42.0648649 40.2902899,47 34.5007095,47 C28.7111291,47 24,42.0648649 24,36 Z" id="Fill-7" fill="#B1B1B2"></path>
                    <polygon id="Fill-9" fill="#B1B1B2" points="40 34.5846702 35.4077989 30 34.5922011 30 30 34.5846702 31.2826739 35.8652406 34.097986 33.0559715 34.097986 42 35.9591487 42 35.9591487 33.1130125 38.7173261 35.8652406"></polygon>
                    <path d="M14,8.32827324 C12.5275142,8.32827324 11.3282732,9.52751423 11.3282732,11 C11.3282732,12.4724858 12.5275142,13.6717268 14,13.6717268 C15.4724858,13.6717268 16.6717268,12.4724858 16.6717268,11 C16.6717268,9.52751423 15.4724858,8.32827324 14,8.32827324 M14,15 C11.7943074,15 10,13.2041746 10,11 C10,8.7943074 11.7943074,7 14,7 C16.2056926,7 18,8.7943074 18,11 C18,13.2041746 16.2056926,15 14,15" id="Fill-11" fill="#B1B1B2"></path>
                    <g id="Group-15" transform="translate(0.000000, 2.000000)">
                        <mask id="mask-3" fill="white">
                            <use xlink:href="#path-2"></use>
                        </mask>
                        <g id="Clip-14"></g>
                        <path d="M31.4564012,47.0001424 L3.42669681,47.0001424 C1.55678377,47.0001424 0.0360185507,45.5160818 0.0360185507,43.6930515 L0.0360185507,3.32147576 C0.0360185507,1.49702121 1.55678377,0.0129606061 3.42669681,0.0129606061 L3.42669681,1.67505152 C2.49758377,1.67505152 1.73939246,2.41280909 1.73939246,3.32147576 L1.73939246,43.6930515 C1.73939246,44.6002939 2.49758377,45.3380515 3.42669681,45.3380515 L31.4564012,45.3380515 C32.3869751,45.3380515 33.1437055,44.6002939 33.1437055,43.6930515 L34.8485403,43.6930515 C34.8485403,45.5160818 33.3263142,47.0001424 31.4564012,47.0001424" id="Fill-13" fill="#B1B1B2" mask="url(#mask-3)"></path>
                    </g>
                </g>
                <path d="M169,158.5 L169,184.5" id="Line-Copy-14" stroke="#D6D6D6" stroke-linecap="square"></path>
                <line x1="47.7379518" y1="250.5" x2="291.262048" y2="250.5" id="Line-Copy" stroke="#D6D6D6" stroke-linecap="square"></line>
                <line x1="47.7379518" y1="306.5" x2="291.262048" y2="306.5" id="Line-Copy-8" stroke="#D6D6D6" stroke-linecap="square"></line>
                <line x1="47.7379518" y1="365.5" x2="291.262048" y2="365.5" id="Line-Copy-10" stroke="#D6D6D6" stroke-linecap="square"></line>
                <circle id="Oval" stroke="#979797" cx="59.5" cy="594.5" r="9"></circle>
                <circle id="Oval-Copy-2" stroke="#979797" cx="59.5" cy="625.5" r="9"></circle>
                <circle id="Oval-Copy-4" stroke="#979797" cx="59.5" cy="656.5" r="9"></circle>
                <circle id="Oval-Copy-5" stroke="#979797" cx="190.5" cy="594.5" r="9"></circle>
                <line x1="47.7379518" y1="717.5" x2="291.262048" y2="717.5" id="Line-Copy-13" stroke="#D6D6D6" stroke-linecap="square"></line>
                <line x1="47.7379518" y1="773.5" x2="291.262048" y2="773.5" id="Line-Copy-16" stroke="#D6D6D6" stroke-linecap="square"></line>
                <line x1="169.375" y1="420.910887" x2="169.375" y2="545.894758" id="Line-8-Copy-5" stroke="#D6D6D6" stroke-linecap="square"></line>
                <text id="TM" font-family="AktifoB-Bold, Aktifo B" font-size="5" font-weight="bold" fill="#5A595C">
                    <tspan x="252" y="595">TM</tspan>
                </text>
                <path d="M134.241,597.783 L135.143,597.783 L135.143,594.631 L134.241,594.631 L134.241,597.783 Z M134.695,594.183 C135.084,594.183 135.286,593.956 135.286,593.663 C135.286,593.388 135.084,593.161 134.695,593.161 C134.302,593.161 134.098,593.388 134.098,593.663 C134.098,593.956 134.302,594.183 134.695,594.183 L134.695,594.183 Z M139.279,595.64 C139.279,598.202 137.202,600.279 134.64,600.279 C132.077,600.279 130,598.202 130,595.64 C130,593.077 132.077,591 134.64,591 C137.202,591 139.279,593.077 139.279,595.64 L139.279,595.64 Z" id="Fill-1" fill="#76787B"></path>
                <path d="M268.241,597.783 L269.143,597.783 L269.143,594.631 L268.241,594.631 L268.241,597.783 Z M268.695,594.183 C269.084,594.183 269.286,593.956 269.286,593.663 C269.286,593.388 269.084,593.161 268.695,593.161 C268.302,593.161 268.098,593.388 268.098,593.663 C268.098,593.956 268.302,594.183 268.695,594.183 L268.695,594.183 Z M273.279,595.64 C273.279,598.202 271.202,600.279 268.64,600.279 C266.077,600.279 264,598.202 264,595.64 C264,593.077 266.077,591 268.64,591 C271.202,591 273.279,593.077 273.279,595.64 L273.279,595.64 Z" id="Fill-1-Copy-3" fill="#76787B"></path>
                <path d="M134.241,628.783 L135.143,628.783 L135.143,625.631 L134.241,625.631 L134.241,628.783 Z M134.695,625.183 C135.084,625.183 135.286,624.956 135.286,624.663 C135.286,624.388 135.084,624.161 134.695,624.161 C134.302,624.161 134.098,624.388 134.098,624.663 C134.098,624.956 134.302,625.183 134.695,625.183 L134.695,625.183 Z M139.279,626.64 C139.279,629.202 137.202,631.279 134.64,631.279 C132.077,631.279 130,629.202 130,626.64 C130,624.077 132.077,622 134.64,622 C137.202,622 139.279,624.077 139.279,626.64 L139.279,626.64 Z" id="Fill-1-Copy" fill="#76787B"></path>
                <path d="M134.241,658.783 L135.143,658.783 L135.143,655.631 L134.241,655.631 L134.241,658.783 Z M134.695,655.183 C135.084,655.183 135.286,654.956 135.286,654.663 C135.286,654.388 135.084,654.161 134.695,654.161 C134.302,654.161 134.098,654.388 134.098,654.663 C134.098,654.956 134.302,655.183 134.695,655.183 L134.695,655.183 Z M139.279,656.64 C139.279,659.202 137.202,661.279 134.64,661.279 C132.077,661.279 130,659.202 130,656.64 C130,654.077 132.077,652 134.64,652 C137.202,652 139.279,654.077 139.279,656.64 L139.279,656.64 Z" id="Fill-1-Copy-2" fill="#76787B"></path>
                <rect id="Rectangle-Copy-16" fill="url(#linearGradient-4)" x="40" y="103" width="269" height="27"></rect>
                <text id="HANG-TAG-I.D:-AD8839" font-family="AktifoB-Bold, Aktifo B" font-size="13" font-weight="bold" fill="#FFFFFF">
                    <tspan x="48" y="118">HANG TAG I.D: AD88394 </tspan>
                </text>
            </g>
        </g>
    </g>
</svg>