<?xml version="1.0" encoding="UTF-8"?>
<svg width="53px" height="29px" viewBox="0 0 53 29" version="1.1" xmlns="http://www.w3.org/2000/svg" xmlns:xlink="http://www.w3.org/1999/xlink">
    <!-- Generator: Sketch 61.2 (89653) - https://sketch.com -->
    <title>Group 3</title>
    <desc>Created with Sketch.</desc>
    <defs>
        <polygon id="path-1" points="0 0 53 0 53 30 0 30"></polygon>
    </defs>
    <g id="Page-1" stroke="none" stroke-width="1" fill="none" fill-rule="evenodd">
        <g id="Customer-Portal---Design-Suite-builder" transform="translate(-976.000000, -808.000000)">
            <g id="Group-3" transform="translate(976.000000, 807.000000)">
                <mask id="mask-2" fill="white">
                    <use xlink:href="#path-1"></use>
                </mask>
                <g id="Clip-2"></g>
                <path d="M23.1665743,20.999893 L23.1665743,14.5893043 C25.8805968,17.3507483 28.6062563,20.1239934 31.2866606,22.8513455 C28.6385815,25.540672 25.912922,28.307361 23.1782114,31.0845397 L23.1782114,24.3645014 C22.5006755,24.3146748 21.8541718,24.275338 21.2102542,24.2189552 C16.0563268,23.7665819 11.012305,22.8513455 6.31480919,20.5173615 C4.58735134,19.659819 2.99307325,18.5977252 1.73239106,17.095059 C0.542824273,15.6789339 -0.155399709,14.0739921 0.0295003456,12.1687793 C0.163973113,10.7985471 0.745826431,9.61713154 1.59403927,8.56421628 C2.70990463,7.17956058 4.11928267,6.1699158 5.65666844,5.32679685 C8.20001395,3.93296257 10.9230875,3.04001699 13.7276205,2.38309227 C16.8114431,1.6606062 19.9392279,1.26068197 23.0980449,1.09415615 C26.3021172,0.923696639 29.5010174,0.978768173 32.6921596,1.30788615 C37.0702826,1.75894823 41.354016,2.62698049 45.4218172,4.39320324 C47.1660842,5.15109244 48.8107896,6.08337482 50.2395627,7.36575481 C51.0735525,8.11446542 51.7885856,8.96414051 52.2902724,9.97903019 C53.3389014,12.0953505 53.1811545,14.1565994 51.9463325,16.1365521 C51.0541574,17.5671007 49.7986472,18.620016 48.4034923,19.5142728 C46.2260678,20.9067959 43.8533993,21.8403895 41.3824622,22.5196051 C39.8308534,22.9470651 38.2507983,23.2735606 36.6823804,23.6433266 C36.608679,23.6603725 36.5323915,23.6616838 36.434123,23.6734848 L36.434123,20.301009 C37.3456932,20.0820341 38.2572634,19.8709266 39.1636616,19.6427731 C41.5052979,19.0500985 43.7887489,18.2948317 45.911867,17.1068601 C47.0393695,16.4748487 48.0918775,15.7392503 48.8974211,14.6955137 C49.93312,13.351506 49.9188969,12.0389678 48.8469938,10.7251183 C47.8164669,9.46240676 46.4704462,8.63108885 45.0455521,7.9190926 C42.7026227,6.75078936 40.2174626,6.01519102 37.671531,5.47627673 C34.332986,4.77083661 30.9543577,4.43385128 27.5459903,4.37353483 C23.6708472,4.30535103 19.8241502,4.58726483 16.0162435,5.33335299 C13.1030979,5.9024255 10.2597747,6.70489641 7.60393755,8.08824088 C6.37945956,8.72549719 5.22351097,9.46371799 4.2990107,10.5192557 C3.65380002,11.254854 3.20641947,12.069126 3.33959923,13.1023729 C3.42105869,13.7474965 3.73138046,14.2864108 4.12962673,14.7754985 C5.15110256,16.0303427 6.48936519,16.8551045 7.90262225,17.5618558 C10.4472608,18.8363685 13.1599902,19.573278 15.932198,20.116126 C18.1354826,20.5462085 20.3607483,20.8045202 22.5963581,20.9723572 C22.769621,20.9854695 22.94547,20.9894032 23.1665743,20.999893 L297,72" id="Fill-1" fill="#5A595C" mask="url(#mask-2)"></path>
            </g>
        </g>
    </g>
</svg>