<?xml version="1.0" encoding="UTF-8"?>
<svg width="108px" height="41px" viewBox="0 0 108 41" version="1.1" xmlns="http://www.w3.org/2000/svg" xmlns:xlink="http://www.w3.org/1999/xlink">
    <!-- Generator: Sketch 61.2 (89653) - https://sketch.com -->
    <title>Group 22</title>
    <desc>Created with Sketch.</desc>
    <defs>
        <polygon id="path-1" points="0.681138266 0.10121875 39.9977081 0.10121875 39.9977081 40.9145406 0.681138266 40.9145406"></polygon>
        <polygon id="path-3" points="0.0886030883 0.76199233 47.7246316 0.76199233 47.7246316 5.71753469 0.0886030883 5.71753469"></polygon>
        <polygon id="path-5" points="0.00902857143 0.207271013 15.8078857 0.207271013 15.8078857 5 0.00902857143 5"></polygon>
    </defs>
    <g id="Page-1" stroke="none" stroke-width="1" fill="none" fill-rule="evenodd">
        <g id="Customer-Portal---Design-Suite-Copy-2" transform="translate(-801.000000, -699.000000)">
            <g id="Group-22" transform="translate(801.000000, 699.000000)">
                <path d="M39.891632,18.9993517 C39.891632,13.4255848 44.4255848,8.891632 49.9993517,8.891632 C55.5731187,8.891632 60.1070715,13.4255848 60.1070715,18.9993517 C60.1070715,24.5731187 55.5731187,29.1070715 49.9993517,29.1070715 C44.4255848,29.1070715 39.891632,24.5731187 39.891632,18.9993517 M62,18.9993517 C62,12.3831776 56.6155259,7 49.9993517,7 C43.3831776,7 38,12.3831776 38,18.9993517 C38,25.6168224 43.3831776,31 49.9993517,31 C56.6155259,31 62,25.6168224 62,18.9993517" id="Fill-1" fill="#5A595C"></path>
                <polygon id="Fill-3" fill="#5A595C" points="56 19.0515075 51.0334442 14 49.6451306 15.4120603 52.6897862 18.5075377 43 18.5075377 43 20.5552764 52.6292637 20.5552764 49.6451306 23.589196 51.0334442 25 56 19.9484925"></polygon>
                <g id="Group-7" transform="translate(2.000000, 0.000000)">
                    <mask id="mask-2" fill="white">
                        <use xlink:href="#path-1"></use>
                    </mask>
                    <g id="Clip-6"></g>
                    <path d="M9.461775,6.54500938 C8.22280625,6.55654063 6.98255625,6.55269688 5.7435875,6.54500938 C5.628275,6.54500938 5.51424375,6.48735312 5.4002125,6.45660313 C5.39893125,6.40791563 5.39765,6.35922813 5.39636875,6.31054063 C5.5180875,6.27850938 5.6410875,6.21957187 5.76280625,6.21957187 C6.98768125,6.21188437 8.21255625,6.21060313 9.43615,6.22085313 C9.54249375,6.22085313 9.6488375,6.31566563 9.7539,6.36563438 C9.656525,6.42841563 9.55915,6.54500938 9.461775,6.54500938 M38.7344938,24.0212594 L27.7298375,5.32269687 C27.1212438,4.26566562 26.999525,4.08500937 26.8778063,3.90435312 L26.7970875,3.78391562 C26.0847125,2.55135312 25.1084,1.52122812 24.1167125,0.957478125 C22.592025,0.093915625 20.6944938,-0.129021875 18.9084313,0.345040625 C17.098025,0.842165625 15.8308688,1.92482187 14.5342438,4.08372812 L14.002525,4.99854062 C13.715525,4.71538437 13.3004,4.56547812 12.7507438,4.56547812 C9.32980625,4.56419687 5.90886875,4.56547812 2.48793125,4.56547812 C1.28611875,4.56547812 0.70315,5.17663437 0.70315,6.43866563 C0.70186875,9.54313437 0.7313375,12.6488844 0.681138266,15.7533531 C0.6698375,16.5054469 1.09265,16.8065406 1.5769625,17.2485719 L1.5769625,8.28750937 L13.6091813,8.28750937 L13.6091813,11.5470094 C13.9179625,11.5675094 14.1780563,11.5841656 14.4676188,11.6033844 L14.4676188,7.30222813 L15.8949313,4.89732187 C17.1415875,2.82425937 18.133275,2.20285312 19.322275,1.87613438 C20.706025,1.50969687 22.1679313,1.67754062 23.3338688,2.33738438 C24.0757125,2.75891563 24.857275,3.59685312 25.441525,4.60775937 L25.5606813,4.78841563 C25.6734313,4.95625938 25.7861813,5.12666562 26.3589,6.12091562 L37.3686813,24.8271656 L37.3712438,24.8297281 C38.2822125,26.3621031 38.6678688,27.4281031 38.2501813,28.9758531 C37.5800875,31.1988219 35.8068375,32.4108844 32.94965,32.5825719 C32.134775,32.6632906 32.2769938,32.6158844 31.7209313,32.6453531 L26.0232125,32.6479156 C25.3467125,32.6479156 24.6433063,32.6491969 23.924525,32.6491969 C23.0045875,32.6491969 22.0615875,32.6491969 21.1185875,32.6504781 C21.12115,32.2776344 21.116025,31.9060719 21.054525,31.5460406 C20.58815,28.7490719 20.0846188,25.9585094 19.5849313,23.1679469 C19.4670563,22.5068219 19.3901813,21.8226344 19.1608375,21.2025094 C18.8930563,20.4786031 18.4881813,19.8072281 18.12815,19.1217594 C16.9878375,16.9513219 15.8398375,14.7860094 14.6956813,12.6168531 C14.258775,11.7891656 13.7731813,11.7404781 13.1684313,12.4707906 C13.0813063,12.5745719 12.9954625,12.6847594 12.9378063,12.8077594 C12.2382438,14.2837594 12.1869938,15.8174156 12.77765,17.3139156 C13.16715,18.3017594 13.7590875,19.2024781 14.2459625,20.1506031 C14.4676188,20.5798219 14.8250875,21.0231344 14.8314938,21.4664469 C14.8814625,24.4171656 14.8584,27.3678844 14.8507125,30.3198844 C14.8468688,31.6690406 14.0806813,32.4467594 12.7648375,32.4480406 C10.2318063,32.4518844 7.698775,32.4493219 5.16574375,32.4493219 L4.695525,32.4493219 C4.6673375,32.4890406 4.63915,32.5287594 4.6109625,32.5684781 C5.32461875,33.4576656 5.96011875,34.4365406 6.7788375,35.2065719 C7.442525,35.8305406 8.31249375,36.2277281 9.1184,36.6736031 C9.41180625,36.8350406 9.5207125,36.9862281 9.513025,37.3257594 C9.48868125,38.2943844 9.50405625,39.2642906 9.50405625,40.2329156 L9.50405625,40.9145406 L21.0878375,40.9145406 C21.0980875,40.7582281 21.1134625,40.6236969 21.1147438,40.4891656 C21.116025,38.4045719 21.116025,36.3212594 21.1134625,34.2366656 C22.7957438,34.2353844 24.48315,34.2353844 26.0232125,34.2341031 L31.7593688,34.2302594 C32.4435563,34.1982281 32.2552125,34.2443531 33.0739313,34.1649156 C36.5858375,33.9535094 38.9010563,32.3173531 39.7748688,29.4114781 C40.3988375,27.1001031 39.6031813,25.4806031 38.7344938,24.0212594" id="Fill-5" fill="#5A595C" mask="url(#mask-2)"></path>
                </g>
                <path d="M16.9858535,30.1861798 C16.9910679,27.3902983 17.0106221,24.593143 16.9923716,21.7985352 C16.9884607,21.0966989 16.5061243,20.5795563 16.2023827,20 L16.0915757,20.035665 L16.0915757,28.3252309 L5.4710493,28.3252309 C5.09300184,29.690691 4.57677151,30.0804586 3.0020083,30.2078336 C2.95898911,31.3236387 3.60949146,31.9961787 4.72277605,31.9974525 C8.21906325,32.0012738 11.7140468,32 15.2090304,31.9987262 C16.3822812,31.9974525 16.9832463,31.3784099 16.9858535,30.1861798" id="Fill-8" fill="#5A595C"></path>
                <path d="M4.60906745,29.4665102 C5.19632752,28.7595795 5.11657615,27.8074633 4.40606397,27.1341367 C3.98555676,26.7371105 3.55538271,26.3512857 3.09137476,25.9243891 C3.21221016,25.8920296 3.26416939,25.8721161 3.31612861,25.8646485 C3.93118082,25.7825051 4.34685462,25.4103709 4.55469151,24.8067417 C4.77944537,24.1570624 4.62115099,23.5758359 4.16801822,23.0842204 C3.97226486,22.872639 3.7765115,22.659813 3.57592473,22.4519655 C3.17233448,22.0337811 2.76511916,21.6205751 2.29023602,21.133938 C2.47994761,21.133938 2.53674025,21.1302042 2.59232453,21.1351826 C3.32579544,21.1949232 3.87076312,20.8638606 4.1788934,20.1706205 C4.43627282,19.5881494 4.30577058,18.8824633 3.8345125,18.3609774 C3.56263284,18.0610297 3.28833647,17.7623266 3.00437326,17.4748249 C2.3748208,16.8375916 1.45768008,16.8438146 0.859544822,17.4810479 C0.265034628,18.115792 0.265034628,19.0928001 0.866794946,19.7723496 C1.22930116,20.1830664 1.60026586,20.5838264 1.94706347,20.9659175 C1.0468397,20.8377241 0.500663668,21.1003339 0.159907826,21.8470917 C-0.159097644,22.5465548 0.000405090726,23.2136584 0.627540844,23.8981864 C1.18338371,24.5043048 1.72472632,25.1241137 2.269694,25.7339659 C1.61718281,25.7949511 1.11329917,26.1484165 0.899420506,26.8665485 C0.678291714,27.6083279 0.926004295,28.2057341 1.47943045,28.6836591 C1.80568604,28.9649379 2.12348316,29.257418 2.44128028,29.5486535 C3.12762538,30.1796639 4.0447661,30.1460598 4.60906745,29.4665102" id="Fill-10" fill="#5A595C"></path>
                <path d="M2.99785429,17 C2.99785429,15.4231072 3.00837482,14.0183118 2.98282496,12.6121823 C2.98132203,12.457428 2.8114906,12.2359692 2.65518556,12.1652625 C1.88418092,11.8130631 0.973403512,12.0411923 0.424832959,12.684223 C-0.0966847997,13.2939016 -0.173334384,14.2144228 0.393271366,14.7654014 C1.17028774,15.5244979 2.04950356,16.1955445 2.99785429,17" id="Fill-12" fill="#5A595C"></path>
                <path d="M83.9987296,28.2324286 C91.1360796,28.2324286 98.2734296,28.2324286 105.41078,28.2324286 C105.813027,28.2324286 106.210183,28.3285087 106.207649,27.6534192 C106.184724,20.2426052 106.18727,12.8317911 106.196181,5.42097705 C106.197454,4.94057628 106.035791,4.79898447 105.560986,4.79898447 C91.2646461,4.81036238 76.970852,4.80909817 62.6745121,4.81036238 C61.8089158,4.81036238 61.80637,4.81162659 61.80637,5.67508378 C61.805097,12.843169 61.8025512,20.0112543 61.8076429,27.1793395 C61.8076429,28.2652981 61.5632393,28.2324286 62.8310831,28.2324286 L83.9987296,28.2324286 Z M83.989819,29.9960051 C76.2630998,29.9960051 68.5363806,29.9960051 60.8083884,29.9947409 C60.0178954,29.9947409 60.0191684,29.9922125 60.0191684,29.1881733 C60.0191684,21.252711 60.0484459,13.3172487 60,5.38178646 C59.9898908,3.4740897 61.0273334,2.99748156 62.3906474,3 C76.8244644,3.01644475 91.2595543,3.0215016 105.694644,3.0012742 C107.15852,2.99874578 108.008841,3.76865123 108,5.28191367 C107.954105,13.2376033 107.980837,21.193293 107.98211,29.1489827 C107.98211,29.9858914 107.979564,29.9972693 107.110149,29.9972693 C99.4037964,30.0010619 91.6961712,30 83.989819,30 L83.989819,29.9960051 Z" id="Fill-14" fill="#5A595C"></path>
                <g id="Group-18" transform="translate(60.000000, 30.000000)">
                    <mask id="mask-4" fill="white">
                        <use xlink:href="#path-3"></use>
                    </mask>
                    <g id="Clip-17"></g>
                    <path d="M24.7715399,3.2412 C24.7728,2.8176 24.3862737,2.4636 23.9125895,2.4528 C23.4426947,2.442 23.0473263,2.79 23.0384842,3.2184 C23.0296421,3.6456 23.4818526,4.0776 23.9239579,4.0644 C24.3496421,4.0524 24.7702737,3.6432 24.7715399,3.2412 M23.9125895,0.7728 C31.6014316,0.7728 39.2915368,0.7788 46.9803789,0.76199233 C47.5576421,0.7608 47.7584842,0.9 47.7205895,1.4652 C47.6662737,2.2488 47.7054316,3.0396 47.7003789,3.828 C47.6928,4.9992 47.0650105,5.6292 45.8245895,5.7096 C45.6022737,5.724 45.3786947,5.7144 45.1563789,5.7144 C36.7184842,5.7096 28.2805895,5.7024 19.8426947,5.7024 C14.1976421,5.7012 8.55385263,5.7096 2.9088,5.7132 C2.62585263,5.7144 2.34290526,5.6916 2.05995789,5.7036 C0.853642105,5.754 0.0186947368,4.8588 0.0932210526,3.78 C0.150063158,2.976 0.121010526,2.166 0.0957473684,1.3596 C0.0818526316,0.9144 0.235957895,0.7608 0.722273684,0.7668 C2.74585263,0.7896 4.77069474,0.774 6.79427368,0.774 C12.4999579,0.7728 18.2056421,0.774 23.9125895,0.7728" id="Fill-16" fill="#5A595C" mask="url(#mask-4)"></path>
                </g>
                <g id="Group-21" transform="translate(76.000000, 36.000000)">
                    <mask id="mask-6" fill="white">
                        <use xlink:href="#path-5"></use>
                    </mask>
                    <g id="Clip-20"></g>
                    <path d="M1.95688571,4.089875 C2.19088571,3.013625 2.4326,2.022375 2.61517143,1.019875 C2.71802857,0.452375 2.88002857,0.196125 3.59102857,0.209875 C6.5366,0.266125 9.48217143,0.237375 12.4277429,0.207375 C12.9150286,0.202375 13.0680286,0.377375 13.1490286,0.799875 C13.3277429,1.742375 13.5643143,2.673625 13.7468857,3.614875 C13.8214571,3.989875 14.0168857,4.109875 14.3833143,4.087375 C14.6906,4.067375 15.0158857,4.031125 15.3051714,4.104875 C15.4980286,4.154875 15.6420286,4.383625 15.8078857,4.532375 C15.6446,4.679875 15.5044571,4.903625 15.3128857,4.957375 C15.0467429,5.033625 14.7420286,4.984875 14.4527429,4.984875 C9.94245714,4.983625 5.43217143,4.982375 0.9206,4.979875 C0.817742857,4.979875 0.690457143,5.017375 0.617171429,4.972375 C0.402457143,4.838625 0.2096,4.671125 0.00902857143,4.516125 C0.203171429,4.374875 0.381885714,4.142375 0.594028571,4.109875 C1.01445714,4.043625 1.4516,4.089875 1.95688571,4.089875" id="Fill-19" fill="#5A595C" mask="url(#mask-6)"></path>
                </g>
            </g>
        </g>
    </g>
</svg>