<?xml version="1.0" encoding="UTF-8"?>
<svg width="38px" height="29px" viewBox="0 0 38 29" version="1.1" xmlns="http://www.w3.org/2000/svg" xmlns:xlink="http://www.w3.org/1999/xlink">
    <!-- Generator: Sketch 61.2 (89653) - https://sketch.com -->
    <title>Group 3 Copy 6</title>
    <desc>Created with Sketch.</desc>
    <defs>
        <polygon id="path-1" points="0 0 38 0 38 29 0 29"></polygon>
    </defs>
    <g id="Page-1" stroke="none" stroke-width="1" fill="none" fill-rule="evenodd">
        <g id="Customer-Portal---Design-Suite-builder" transform="translate(-885.000000, -903.000000)">
            <g id="Group-3-Copy-6" transform="translate(885.000000, 903.000000)">
                <mask id="mask-2" fill="white">
                    <use xlink:href="#path-1"></use>
                </mask>
                <g id="Clip-2"></g>
                <path d="M31.9488718,21.0056118 L31.9488718,21.0073258 C32.7665429,22.3100134 33.1138722,23.2150385 32.7394078,24.5297246 C32.1370085,26.4169076 30.5487004,27.4470592 27.9871465,27.5944686 C27.2563077,27.6613171 27.3829382,27.6218936 26.8836523,27.6458905 L21.7750167,27.6476046 C16.3063887,27.6512694 8.81167286,27.6544608 7.43320956,27.6458905 C6.93211463,27.6424624 6.74759592,27.6390342 6.67342664,27.6373202 C6.62820147,27.6304639 6.53775112,27.6236077 6.34780539,27.6184655 C3.11510997,27.6064671 1.42187946,25.5753028 1.42187946,23.5749917 C1.42187946,22.9476448 1.54850995,22.6305432 1.78187185,22.0323353 L1.89583928,21.8163634 C1.96639056,21.6826665 2.01523374,21.5918212 2.3933162,20.902768 L11.3587546,6.20810883 L12.6956108,4.07410082 C13.8135771,2.31375847 14.7036085,1.78582717 15.7691136,1.50814902 C17.0082833,1.19790368 18.3216224,1.34017088 19.3654194,1.90066937 C20.031134,2.2571944 20.7312197,2.97024447 21.2558317,3.82898986 L21.3607541,3.98154144 C21.4638675,4.12380864 21.5633628,4.26950396 22.0771208,5.11453685 L24.0362753,8.26841215 C20.1233933,9.31570443 16.8328097,10.9594905 14.6131581,13.0317923 C10.421689,16.9467114 9.4737694,23.5441386 9.66914215,26.127231 L9.75778349,27.2790811 L10.7382653,26.0226732 C10.9101209,25.798131 11.0783586,25.580445 11.2556412,25.3679012 C15.2463106,20.6336602 19.7507379,16.3245066 25.7512139,16.8061582 C26.0695992,16.8164426 26.281253,16.8284411 26.4241645,16.8404395 C26.4223555,17.5689161 26.4169285,18.3145334 26.4133105,18.98816 L26.4060745,20.601093 C26.4060745,21.1855883 26.4241645,21.7923665 26.4386366,22.1951712 C26.4440636,22.3888603 26.4476816,22.5328416 26.4476816,22.6031182 L26.4476816,23.8252448 L27.2544987,22.8705119 C27.4390174,22.6511119 27.7212225,22.3888603 28.0486528,22.078615 L28.2639246,21.8763556 C29.153956,21.0364649 30.0295154,20.1828617 30.9105018,19.3326866 L31.9488718,21.0056118 Z M37.6002095,11.6759687 C37.4464439,11.5611265 37.2908693,11.4462843 37.1533847,11.3160156 L28.8663239,3.47246483 C28.3507569,2.98395697 27.2418357,1.945235 27.062744,1.7892553 L26.4838618,1.23218493 L26.4838618,7.69934334 C26.1401504,7.76619179 25.8072932,7.84675273 25.4708179,7.92045743 L23.3072455,4.43576804 C22.7609254,3.53759921 22.650576,3.38333357 22.5420356,3.23078199 L22.4714843,3.1296523 C21.8310959,2.08236001 20.9573455,1.20647399 20.0673141,0.728250512 C18.6997048,-0.00536830605 16.9992383,-0.195629261 15.3982672,0.207175464 C13.7755879,0.63054894 12.6395316,1.54928653 11.4763401,3.38333357 L1.14871941,20.2531383 C0.743501857,20.9833289 0.696467676,21.0776024 0.624107398,21.2147274 L0.4685328,21.5232587 C0.197181758,22.2088837 0,22.7042479 0,23.5749917 C0,26.1769388 2.22146054,28.9502922 6.32247929,28.9657187 C6.40931163,28.9691469 6.45272779,28.9691469 6.42740169,28.9640047 C6.52870608,28.9845734 6.54860516,28.9862875 7.42054651,28.9931437 C8.06274398,28.9982859 10.0164715,29 12.4731029,29 C15.3186709,29 18.8389984,28.9982859 21.7768257,28.9965719 L26.9198324,28.9931437 C27.5330858,28.9657187 27.3630391,29.0051422 28.097496,28.9365797 C31.2469771,28.7583172 33.321908,27.3682123 34.105208,24.8982481 C34.6641912,22.9356463 33.9514424,21.5609681 33.1735695,20.3199867 L31.9434447,18.3402443 C32.2545939,18.0385693 32.5693611,17.7403224 32.8823193,17.4369333 C34.5357517,15.8359988 36.189184,14.2333502 37.8661335,12.6529844 L38,12.5278579 L38,11.9827859 L37.6002095,11.6759687 Z" id="Fill-1" fill="#5A595C" mask="url(#mask-2)"></path>
            </g>
        </g>
    </g>
</svg>