<?xml version="1.0" encoding="UTF-8"?>
<svg width="33px" height="31px" viewBox="0 0 33 31" version="1.1" xmlns="http://www.w3.org/2000/svg" xmlns:xlink="http://www.w3.org/1999/xlink">
    <!-- Generator: Sketch 61.2 (89653) - https://sketch.com -->
    <title>Group 14</title>
    <desc>Created with Sketch.</desc>
    <defs>
        <polygon id="path-1" points="0.00066 0.0140496894 32.87658 0.0140496894 32.87658 28.9092462 0.00066 28.9092462"></polygon>
    </defs>
    <g id="Page-1" stroke="none" stroke-width="1" fill="none" fill-rule="evenodd">
        <g id="Customer-Portal---Design-Suite-builder" transform="translate(-809.000000, -903.000000)">
            <g id="Group-14" transform="translate(809.000000, 903.000000)">
                <path d="M8.96379648,28.6319631 L8.36350294,28.5305417 C8.09784736,28.4813677 7.87181996,28.390703 7.87181996,28.1217826 C7.87181996,27.8590088 8.09197652,27.6976566 8.43542074,27.6976566 C8.8111546,27.6976566 9.06066536,27.8958894 9.07240705,28.2016904 L9.90753425,28.2016904 C9.89726027,27.4779101 9.32925636,27 8.4721135,27 C7.5944227,27 7.0146771,27.493277 7.0146771,28.2339608 C7.0146771,28.7871687 7.33317025,29.185171 8.09197652,29.3250096 L8.69227006,29.4325778 C8.83610568,29.4587015 9.13845401,29.5124856 9.13845401,29.8351902 C9.13845401,30.1133308 8.92270059,30.2915866 8.53375734,30.2915866 C8.13307241,30.2915866 7.86154599,30.1087207 7.8351272,29.796773 L7,29.796773 C7.05577299,30.5220899 7.63111546,31 8.51761252,31 C9.4055773,31 10,30.5051863 10,29.7645025 C10,29.2112947 9.69324853,28.7548982 8.96379648,28.6319631" id="Fill-1" fill="#5A595C"></path>
                <path d="M13.0147627,29.106593 L11.8604569,27 L11,27 L11,31 L11.7817223,31 L11.7817223,30.1109356 C11.7817223,29.5977102 11.7718805,29.0244769 11.7521968,28.2901698 L12.8179262,30.1835768 L13.2017575,30.1835768 L14.257645,28.2949072 C14.2337434,28.9091986 14.2239016,29.5266482 14.2239016,30.1109356 L14.2239016,31 L15,31 L15,27 L14.1550088,27 L13.0147627,29.106593 Z" id="Fill-3" fill="#5A595C"></path>
                <path d="M16.4176629,29.5982636 L16.9838025,27.8839779 L17.5499422,29.5982636 L16.4176629,29.5982636 Z M16.44543,27 L15,31 L15.9595064,31 L16.197069,30.2833465 L17.7705361,30.2833465 L18.0080987,31 L19,31 L17.5021211,27 L16.44543,27 Z" id="Fill-5" fill="#5A595C"></path>
                <path d="M21.5470852,28.913936 L20.7479821,28.913936 L20.7479821,27.794315 L21.5470852,27.794315 C21.8659193,27.794315 22.0825112,27.9822345 22.0825112,28.3454402 C22.0825112,28.6881169 21.8995516,28.913936 21.5470852,28.913936 M22.8668161,28.2791157 C22.8668161,27.5400711 22.4255605,27 21.6170404,27 L20,27 L20,31 L20.7479821,31 L20.7479821,29.6198184 L21.1381166,29.6198184 L22.0825112,31 L23,31 L21.9748879,29.5155942 C22.5251121,29.4097908 22.8668161,28.9423608 22.8668161,28.2791157" id="Fill-7" fill="#5A595C"></path>
                <polygon id="Fill-9" fill="#5A595C" points="23 27.7561168 24.0834575 27.7561168 24.0834575 31 24.9165425 31 24.9165425 27.7561168 26 27.7561168 26 27 23 27"></polygon>
                <g id="Group-13">
                    <mask id="mask-2" fill="white">
                        <use xlink:href="#path-1"></use>
                    </mask>
                    <g id="Clip-12"></g>
                    <path d="M24.17382,19.3822599 L17.32698,23.2651617 L17.10522,15.216635 L24.20682,10.9420711 L24.17382,19.3822599 Z M16.4175,14.1090872 L9.06114,10.0990897 L16.8003,5.69872696 L23.74086,9.70094311 L16.4175,14.1090872 Z M8.46186,18.9037058 L8.46318,11.2559195 L15.78522,15.2464636 L16.00038,23.0369083 L8.46186,18.9037058 Z M10.93818,6.18635925 L11.60346,5.0865928 L11.61798,5.09437416 C12.11298,4.2513928 12.21066,4.10743752 12.30702,3.96477913 L12.40998,3.81174559 C12.91554,2.95320149 13.58874,2.24250335 14.22894,1.88585739 C14.63814,1.65760398 15.09618,1.51883627 15.56742,1.43194435 C15.70866,1.40600646 15.8499,1.37488099 15.99114,1.36191205 C16.13898,1.34894311 16.28946,1.35283379 16.43862,1.35283379 C16.58778,1.35283379 16.73826,1.34894311 16.8861,1.36191205 C17.02734,1.37488099 17.16726,1.40600646 17.3085,1.43194435 C17.78106,1.51883627 18.23778,1.65760398 18.64698,1.88585739 C19.2885,2.24250335 19.9617,2.95320149 20.46726,3.81174559 L20.57022,3.96477913 C20.66658,4.10743752 20.76426,4.2513928 21.25926,5.09437416 L21.27378,5.0865928 L21.93906,6.18635925 L22.80366,7.65574062 L16.80426,4.19822012 L9.74754,8.20951453 L10.93818,6.18635925 Z M32.42646,21.4780412 L32.2773,21.1693804 C32.20602,21.0319096 32.15982,20.9398301 31.77174,20.2096785 L25.5321,9.64128596 L25.53342,9.23017043 L25.1625,9.01618286 L21.82686,3.36691081 C21.04806,2.0933605 20.2785,1.26983255 19.35846,0.739402733 C19.34658,0.731621366 19.3347,0.721246211 19.32414,0.714761739 C19.31754,0.71216795 19.30962,0.710871056 19.30434,0.706980373 C18.99018,0.530602733 18.65622,0.389241242 18.29982,0.276411429 C18.28926,0.272520745 18.27738,0.268630062 18.26418,0.264739379 C18.1929,0.242692174 18.12426,0.215457391 18.05034,0.196003975 C17.8893,0.15320646 17.72562,0.145425093 17.56326,0.116893416 C17.38242,0.0831741615 17.20554,0.0442673292 17.02206,0.0274077019 C16.8267,0.00925118012 16.63398,0.0144387578 16.43862,0.0144387578 C16.24326,0.0144387578 16.05186,0.00925118012 15.85518,0.0274077019 C15.6717,0.0442673292 15.49482,0.0831741615 15.3153,0.116893416 C15.15294,0.145425093 14.98794,0.15320646 14.8269,0.196003975 C14.75298,0.215457391 14.68434,0.242692174 14.61174,0.264739379 C14.60118,0.268630062 14.5893,0.272520745 14.5761,0.276411429 C14.2197,0.389241242 13.88706,0.530602733 13.5729,0.706980373 C13.5663,0.710871056 13.5597,0.71216795 13.5531,0.714761739 C13.54122,0.721246211 13.53066,0.731621366 13.51878,0.739402733 C12.59874,1.26983255 11.82918,2.0933605 11.05038,3.36691081 L7.40322,9.54272199 L7.14318,9.69056795 L7.14318,9.98496298 L1.1055,20.2096785 C0.7161,20.9398301 0.6699,21.0319096 0.59994,21.1693804 L0.45078,21.4780412 C0.18942,22.1628015 0.00066,22.6569183 0.00066,23.5258375 C0.00066,25.7577928 1.57938,28.1142499 4.52562,28.7458375 C5.01006,28.8495891 5.53014,28.9066524 6.0885,28.9092462 L6.05022,27.6201332 C5.56182,27.6201332 4.56918,27.3711294 4.56918,27.3711294 C2.46246,26.8186524 1.37082,25.1625183 1.37082,23.5258375 C1.37082,22.9007344 1.49094,22.5842922 1.71534,21.9864239 L1.82622,21.7698425 C1.89354,21.6362624 1.93974,21.5454798 2.30538,20.8581257 L7.14318,12.6384089 L7.14186,19.6649829 L16.89138,25.0094847 L25.49118,20.1331617 L25.52154,12.2752785 L30.57186,20.8581257 C30.9375,21.5454798 30.9837,21.6362624 31.05102,21.7698425 L31.1619,21.9864239 C31.3863,22.5842922 31.50774,22.9007344 31.50774,23.5258375 C31.50774,25.1625183 30.41478,26.8186524 28.30674,27.3711294 C28.30674,27.3711294 27.31542,27.6201332 26.82702,27.6201332 L26.78874,28.9092462 C27.34578,28.9066524 27.86718,28.8495891 28.35162,28.7458375 C31.29786,28.1142499 32.87658,25.7577928 32.87658,23.5258375 C32.87658,22.6569183 32.68782,22.1628015 32.42646,21.4780412 L32.42646,21.4780412 Z" id="Fill-11" fill="#5A595C" mask="url(#mask-2)"></path>
                </g>
            </g>
        </g>
    </g>
</svg>