<?xml version="1.0" encoding="UTF-8"?>
<svg width="44px" height="38px" viewBox="0 0 44 38" version="1.1" xmlns="http://www.w3.org/2000/svg" xmlns:xlink="http://www.w3.org/1999/xlink">
    <!-- Generator: Sketch 61.2 (89653) - https://sketch.com -->
    <title>Group 10</title>
    <desc>Created with Sketch.</desc>
    <defs>
        <polygon id="path-1" points="0.319255808 0.865 40.5458468 0.865 40.5458468 38 0.319255808 38"></polygon>
    </defs>
    <g id="Page-1" stroke="none" stroke-width="1" fill="none" fill-rule="evenodd">
        <g id="Customer-Portal---Design-Suite-Copy" transform="translate(-1195.000000, -333.000000)">
            <g id="Group-10" transform="translate(1195.000000, 332.000000)">
                <g id="Group-3" transform="translate(3.000000, 0.134900)">
                    <mask id="mask-2" fill="white">
                        <use xlink:href="#path-1"></use>
                    </mask>
                    <g id="Clip-2"></g>
                    <path d="M9.3025,7.4583 C8.0345,7.4693 6.7665,7.4663 5.4975,7.4583 C5.3805,7.4573 5.2635,7.3993 5.1465,7.3683 L5.1435,7.2183 C5.2685,7.1863 5.3935,7.1253 5.5185,7.1243 C6.7715,7.1173 8.0245,7.1153 9.2775,7.1253 C9.3855,7.1263 9.4935,7.2233 9.6015,7.2753 C9.5015,7.3383 9.4035,7.4573 9.3025,7.4583 L9.3025,7.4583 Z M21.4895,37.9713 L21.2235,35.7913 C22.9465,35.7903 24.6715,35.7893 26.2475,35.7883 L32.1155,35.7843 C32.8175,35.7503 32.6235,35.7983 33.4605,35.7173 C37.0545,35.5013 39.4235,33.8273 40.3185,30.8543 C40.9555,28.4893 40.1425,26.8323 39.2535,25.3383 L27.9925,6.2083 C27.3705,5.1253 27.2455,4.9403 27.1215,4.7563 L27.0395,4.6333 C26.3105,3.3723 25.3125,2.3173 24.2975,1.7413 C22.7365,0.8583 20.7955,0.6293 18.9685,1.1143 C17.1155,1.6233 15.8195,2.7303 14.4915,4.9393 L13.9485,5.8763 C13.6555,5.5863 13.2305,5.4333 12.6675,5.4323 C9.1675,5.4313 5.6675,5.4323 2.1665,5.4323 C0.9385,5.4323 0.3415,6.0583 0.3405,7.3483 C0.3395,10.5253 0.3695,13.7033 0.319255808,16.8803 C0.3075,17.6493 0.7395,17.9573 1.2345,18.4083 L1.2345,9.2413 L13.5455,9.2413 L13.5455,12.5763 C13.8625,12.5963 14.1275,12.6143 14.4235,12.6333 C14.4235,11.1703 14.4245,9.7023 14.4235,8.2333 L15.8855,5.7713 C17.1605,3.6503 18.1745,3.0163 19.3915,2.6813 C20.8065,2.3073 22.3035,2.4783 23.4955,3.1523 C24.2555,3.5843 25.0545,4.4403 25.6535,5.4763 L25.7745,5.6603 C25.8895,5.8323 26.0045,6.0063 26.5905,7.0243 L37.8565,26.1633 L37.8575,26.1663 C38.7895,27.7343 39.1845,28.8243 38.7575,30.4083 C38.0725,32.6823 36.2585,33.9223 33.3335,34.0993 C32.5005,34.1803 32.6455,34.1333 32.0765,34.1623 L26.2465,34.1653 C25.5555,34.1653 24.8355,34.1663 24.0995,34.1663 C23.1585,34.1663 22.1945,34.1663 21.2295,34.1673 C21.2325,33.7863 21.2265,33.4063 21.1645,33.0373 C20.6875,30.1753 20.1705,27.3213 19.6595,24.4653 C19.5395,23.7893 19.4605,23.0893 19.2265,22.4553 C18.9525,21.7143 18.5375,21.0273 18.1685,20.3253 C17.0025,18.1053 15.8285,15.8893 14.6575,13.6713 C14.2105,12.8233 13.7135,12.7733 13.0945,13.5203 C13.0065,13.6273 12.9185,13.7403 12.8595,13.8663 C12.1435,15.3763 12.0915,16.9453 12.6955,18.4763 C13.0935,19.4863 13.6985,20.4083 14.1985,21.3783 C14.4235,21.8173 14.7895,22.2713 14.7965,22.7253 C14.8485,25.7433 14.8245,28.7633 14.8165,31.7833 C14.8135,33.1643 14.0295,33.9593 12.6825,33.9613 C10.0905,33.9643 7.4985,33.9623 4.9065,33.9623 L4.4265,33.9623 C4.3975,34.0023 4.3685,34.0433 4.3395,34.0843 C4.7045,34.5393 5.0505,35.0163 5.4085,35.4793 C5.7675,35.9413 7.0595,37.6063 7.4785,38.0003 L21.4895,37.9713 Z" id="Fill-1" fill="#5A595C" mask="url(#mask-2)"></path>
                </g>
                <path d="M17.4236,31.8247 C17.4286,28.9467 17.4466,26.0687 17.4306,23.1917 C17.4266,22.4697 16.9416,21.9387 16.6356,21.3407 C16.5986,21.3527 16.5626,21.3657 16.5256,21.3777 L16.5256,29.9087 L5.8446,29.9087 C5.4646,31.3147 4.9446,31.7157 3.3616,31.8457 C3.3186,32.9947 3.9716,33.6867 5.0916,33.6887 C8.6076,33.6927 12.1216,33.6917 15.6376,33.6897 C16.8166,33.6887 17.4206,33.0517 17.4236,31.8247" id="Fill-4" fill="#5A595C"></path>
                <path d="M5.0007,30.8252 C5.6387,30.0802 5.5517,29.0782 4.7787,28.3682 C4.3237,27.9502 3.8567,27.5432 3.3547,27.0942 C3.4847,27.0602 3.5407,27.0392 3.5987,27.0322 C4.2657,26.9452 4.7157,26.5532 4.9407,25.9172 C5.1847,25.2332 5.0147,24.6202 4.5217,24.1032 C4.3097,23.8792 4.0967,23.6552 3.8797,23.4362 C3.4407,22.9972 2.9997,22.5612 2.4847,22.0492 C2.6907,22.0492 2.7517,22.0442 2.8117,22.0492 C3.6067,22.1132 4.1997,21.7642 4.5327,21.0342 C4.8137,20.4202 4.6707,19.6762 4.1597,19.1282 C3.8647,18.8122 3.5677,18.4972 3.2597,18.1942 C2.5767,17.5232 1.5807,17.5302 0.9337,18.2012 C0.2887,18.8692 0.2887,19.8982 0.9397,20.6152 C1.3337,21.0472 1.7357,21.4692 2.1127,21.8722 C1.1367,21.7372 0.5427,22.0132 0.1737,22.8002 C-0.1723,23.5362 0.0007,24.2392 0.6817,24.9612 C1.2827,25.5982 1.8707,26.2512 2.4627,26.8942 C1.7547,26.9582 1.2087,27.3312 0.9767,28.0862 C0.7357,28.8682 1.0047,29.4972 1.6047,30.0002 C1.9587,30.2962 2.3037,30.6042 2.6477,30.9112 C3.3937,31.5762 4.3887,31.5412 5.0007,30.8252" id="Fill-6" fill="#5A595C"></path>
                <path d="M2.9538,17.7617 C2.9538,16.2127 2.9628,14.8307 2.9408,13.4507 C2.9378,13.2987 2.7908,13.0807 2.6538,13.0107 C1.9818,12.6647 1.1878,12.8887 0.7088,13.5207 C0.2548,14.1187 0.1858,15.0237 0.6808,15.5667 C1.3598,16.3117 2.1258,16.9707 2.9538,17.7617" id="Fill-8" fill="#5A595C"></path>
            </g>
        </g>
    </g>
</svg>